<svg width="648" height="784" viewBox="0 0 648 784" fill="none" xmlns="http://www.w3.org/2000/svg">
<rect x="0.583984" y="0.185059" width="645.74" height="783.405" rx="15" fill="#23735C"/>
<mask id="mask0" mask-type="alpha" maskUnits="userSpaceOnUse" x="1" y="0" width="647" height="784">
<rect x="1.26807" y="0.185059" width="645.74" height="783.405" rx="15" fill="#4F57A2"/>
</mask>
<g mask="url(#mask0)">
<circle cx="635.341" cy="783.621" r="254.27" fill="#5B9E8B"/>
</g>
<path d="M396.054 589.809C396.054 590.231 395.929 590.644 395.694 590.995C395.459 591.347 395.125 591.621 394.734 591.782C394.344 591.944 393.914 591.986 393.499 591.904C393.084 591.821 392.704 591.618 392.405 591.319C392.106 591.02 391.902 590.64 391.819 590.226C391.737 589.811 391.779 589.382 391.941 588.991C392.103 588.601 392.377 588.268 392.728 588.033C393.08 587.798 393.493 587.673 393.916 587.673C394.483 587.673 395.027 587.898 395.428 588.298C395.829 588.699 396.054 589.242 396.054 589.809Z" fill="white"/>
<path d="M396.054 606.857C396.054 607.279 395.929 607.692 395.694 608.043C395.459 608.395 395.125 608.668 394.734 608.83C394.344 608.992 393.914 609.034 393.499 608.951C393.084 608.869 392.704 608.666 392.405 608.367C392.106 608.068 391.902 607.688 391.819 607.273C391.737 606.859 391.779 606.429 391.941 606.039C392.103 605.649 392.377 605.315 392.728 605.081C393.08 604.846 393.493 604.721 393.916 604.721C394.483 604.721 395.027 604.946 395.428 605.346C395.829 605.747 396.054 606.29 396.054 606.857Z" fill="white"/>
<path d="M393.85 626.04C395.031 626.04 395.988 625.084 395.988 623.904C395.988 622.725 395.031 621.769 393.85 621.769C392.67 621.769 391.712 622.725 391.712 623.904C391.712 625.084 392.67 626.04 393.85 626.04Z" fill="white"/>
<path d="M396.054 640.926C396.054 641.348 395.929 641.761 395.694 642.113C395.459 642.464 395.125 642.738 394.734 642.899C394.344 643.061 393.914 643.103 393.499 643.021C393.084 642.938 392.704 642.735 392.405 642.436C392.106 642.138 391.902 641.757 391.819 641.343C391.737 640.928 391.779 640.499 391.941 640.109C392.103 639.718 392.377 639.385 392.728 639.15C393.08 638.915 393.493 638.79 393.916 638.79C394.482 638.793 395.024 639.02 395.424 639.419C395.824 639.819 396.051 640.361 396.054 640.926Z" fill="white"/>
<path d="M393.85 660.136C395.031 660.136 395.988 659.18 395.988 658C395.988 656.821 395.031 655.864 393.85 655.864C392.67 655.864 391.712 656.821 391.712 658C391.712 659.18 392.67 660.136 393.85 660.136Z" fill="white"/>
<path d="M396.054 675.035C396.054 675.457 395.929 675.87 395.694 676.222C395.459 676.573 395.125 676.847 394.734 677.008C394.344 677.17 393.914 677.212 393.499 677.13C393.084 677.047 392.704 676.844 392.405 676.545C392.106 676.246 391.902 675.866 391.819 675.452C391.737 675.037 391.779 674.608 391.941 674.217C392.103 673.827 392.377 673.494 392.728 673.259C393.08 673.024 393.493 672.899 393.916 672.899C394.483 672.899 395.027 673.124 395.428 673.525C395.829 673.925 396.054 674.468 396.054 675.035Z" fill="white"/>
<path d="M413.712 589.809C413.712 590.231 413.587 590.644 413.352 590.996C413.117 591.347 412.783 591.621 412.393 591.782C412.002 591.944 411.572 591.986 411.157 591.904C410.743 591.821 410.362 591.618 410.063 591.319C409.764 591.02 409.56 590.64 409.478 590.226C409.395 589.811 409.437 589.382 409.599 588.991C409.761 588.601 410.035 588.268 410.387 588.033C410.738 587.798 411.152 587.673 411.574 587.673C411.856 587.671 412.135 587.725 412.395 587.832C412.655 587.939 412.891 588.096 413.09 588.295C413.289 588.493 413.446 588.729 413.553 588.989C413.66 589.249 413.714 589.528 413.712 589.809Z" fill="white"/>
<path d="M413.712 606.857C413.712 607.279 413.587 607.692 413.352 608.043C413.117 608.395 412.783 608.668 412.393 608.83C412.002 608.992 411.572 609.034 411.157 608.952C410.743 608.869 410.362 608.666 410.063 608.367C409.764 608.068 409.56 607.688 409.478 607.273C409.395 606.859 409.437 606.43 409.599 606.039C409.761 605.649 410.035 605.315 410.387 605.081C410.738 604.846 411.152 604.721 411.574 604.721C411.856 604.719 412.135 604.773 412.395 604.88C412.655 604.986 412.891 605.144 413.09 605.342C413.289 605.541 413.446 605.777 413.553 606.037C413.66 606.297 413.714 606.576 413.712 606.857Z" fill="white"/>
<path d="M411.574 626.04C412.755 626.04 413.712 625.084 413.712 623.904C413.712 622.725 412.755 621.769 411.574 621.769C410.394 621.769 409.437 622.725 409.437 623.904C409.437 625.084 410.394 626.04 411.574 626.04Z" fill="white"/>
<path d="M413.712 640.926C413.712 641.348 413.587 641.761 413.352 642.113C413.117 642.464 412.783 642.738 412.393 642.899C412.002 643.061 411.572 643.103 411.157 643.021C410.743 642.938 410.362 642.735 410.063 642.436C409.764 642.138 409.56 641.757 409.478 641.343C409.395 640.928 409.437 640.499 409.599 640.109C409.761 639.718 410.035 639.385 410.387 639.15C410.738 638.915 411.152 638.79 411.574 638.79C412.141 638.79 412.685 639.015 413.086 639.416C413.487 639.816 413.712 640.359 413.712 640.926Z" fill="white"/>
<path d="M411.574 660.136C412.755 660.136 413.712 659.18 413.712 658C413.712 656.821 412.755 655.864 411.574 655.864C410.394 655.864 409.437 656.821 409.437 658C409.437 659.18 410.394 660.136 411.574 660.136Z" fill="white"/>
<path d="M413.712 675.035C413.712 675.457 413.587 675.87 413.352 676.222C413.117 676.573 412.783 676.847 412.393 677.008C412.002 677.17 411.572 677.212 411.157 677.13C410.743 677.047 410.362 676.844 410.063 676.545C409.764 676.247 409.56 675.866 409.478 675.452C409.395 675.037 409.437 674.608 409.599 674.218C409.761 673.827 410.035 673.494 410.387 673.259C410.738 673.024 411.152 672.899 411.574 672.899C411.856 672.897 412.135 672.951 412.395 673.058C412.655 673.165 412.891 673.322 413.09 673.521C413.289 673.719 413.446 673.956 413.553 674.215C413.66 674.475 413.714 674.754 413.712 675.035Z" fill="white"/>
<path d="M431.449 589.809C431.449 590.231 431.324 590.644 431.089 590.995C430.854 591.347 430.52 591.621 430.129 591.782C429.739 591.944 429.309 591.986 428.894 591.904C428.479 591.821 428.099 591.618 427.8 591.319C427.501 591.02 427.297 590.64 427.214 590.226C427.132 589.811 427.174 589.382 427.336 588.991C427.498 588.601 427.772 588.268 428.124 588.033C428.475 587.798 428.888 587.673 429.311 587.673C429.878 587.673 430.422 587.898 430.823 588.298C431.224 588.699 431.449 589.242 431.449 589.809Z" fill="white"/>
<path d="M431.449 606.857C431.449 607.279 431.324 607.692 431.089 608.043C430.854 608.395 430.52 608.668 430.129 608.83C429.739 608.992 429.309 609.034 428.894 608.951C428.479 608.869 428.099 608.666 427.8 608.367C427.501 608.068 427.297 607.688 427.214 607.273C427.132 606.859 427.174 606.429 427.336 606.039C427.498 605.649 427.772 605.315 428.124 605.081C428.475 604.846 428.888 604.721 429.311 604.721C429.878 604.721 430.422 604.946 430.823 605.346C431.224 605.747 431.449 606.29 431.449 606.857Z" fill="white"/>
<path d="M431.449 623.904C431.449 624.327 431.324 624.74 431.089 625.091C430.854 625.442 430.52 625.716 430.129 625.878C429.739 626.039 429.309 626.082 428.894 625.999C428.479 625.917 428.099 625.714 427.8 625.415C427.501 625.116 427.297 624.736 427.214 624.321C427.132 623.907 427.174 623.477 427.336 623.087C427.498 622.697 427.772 622.363 428.124 622.129C428.475 621.894 428.888 621.769 429.311 621.769C429.877 621.772 430.419 621.998 430.819 622.398C431.219 622.798 431.446 623.339 431.449 623.904Z" fill="white"/>
<path d="M431.449 640.926C431.449 641.348 431.324 641.761 431.089 642.113C430.854 642.464 430.52 642.738 430.129 642.899C429.739 643.061 429.309 643.103 428.894 643.021C428.479 642.938 428.099 642.735 427.8 642.436C427.501 642.138 427.297 641.757 427.214 641.343C427.132 640.928 427.174 640.499 427.336 640.109C427.498 639.718 427.772 639.385 428.124 639.15C428.475 638.915 428.888 638.79 429.311 638.79C429.877 638.793 430.419 639.02 430.819 639.419C431.219 639.819 431.446 640.361 431.449 640.926Z" fill="white"/>
<path d="M431.449 658.066C431.449 658.489 431.324 658.901 431.089 659.253C430.854 659.604 430.52 659.878 430.129 660.039C429.739 660.201 429.309 660.243 428.894 660.161C428.479 660.079 428.099 659.875 427.8 659.576C427.501 659.278 427.297 658.897 427.214 658.483C427.132 658.068 427.174 657.639 427.336 657.249C427.498 656.858 427.772 656.525 428.124 656.29C428.475 656.055 428.888 655.93 429.311 655.93C429.878 655.93 430.422 656.155 430.823 656.556C431.224 656.956 431.449 657.5 431.449 658.066Z" fill="white"/>
<path d="M431.449 675.035C431.449 675.457 431.324 675.87 431.089 676.222C430.854 676.573 430.52 676.847 430.129 677.008C429.739 677.17 429.309 677.212 428.894 677.13C428.479 677.047 428.099 676.844 427.8 676.545C427.501 676.246 427.297 675.866 427.214 675.452C427.132 675.037 427.174 674.608 427.336 674.217C427.498 673.827 427.772 673.494 428.124 673.259C428.475 673.024 428.888 672.899 429.311 672.899C429.878 672.899 430.422 673.124 430.823 673.525C431.224 673.925 431.449 674.468 431.449 675.035Z" fill="white"/>
<path d="M449.173 589.809C449.173 590.232 449.047 590.645 448.812 590.997C448.576 591.348 448.241 591.622 447.85 591.783C447.459 591.945 447.028 591.986 446.613 591.903C446.198 591.819 445.817 591.615 445.519 591.314C445.22 591.014 445.017 590.633 444.936 590.217C444.855 589.802 444.9 589.372 445.064 588.982C445.227 588.592 445.503 588.26 445.857 588.026C446.21 587.793 446.625 587.67 447.048 587.673C447.328 587.673 447.606 587.728 447.864 587.836C448.123 587.943 448.358 588.101 448.555 588.299C448.753 588.498 448.909 588.733 449.015 588.992C449.121 589.252 449.175 589.529 449.173 589.809Z" fill="white"/>
<path d="M449.173 606.857C449.173 607.28 449.047 607.693 448.812 608.045C448.576 608.396 448.241 608.67 447.85 608.831C447.459 608.993 447.028 609.034 446.613 608.951C446.198 608.867 445.817 608.662 445.519 608.362C445.22 608.062 445.017 607.68 444.936 607.265C444.855 606.85 444.9 606.42 445.064 606.03C445.227 605.64 445.503 605.307 445.857 605.074C446.21 604.841 446.625 604.718 447.048 604.721C447.328 604.721 447.606 604.776 447.864 604.884C448.123 604.991 448.358 605.149 448.555 605.347C448.753 605.546 448.909 605.781 449.015 606.04C449.121 606.299 449.175 606.577 449.173 606.857Z" fill="white"/>
<path d="M449.173 623.905C449.173 624.328 449.047 624.741 448.812 625.093C448.576 625.444 448.241 625.718 447.85 625.879C447.459 626.04 447.028 626.082 446.613 625.998C446.198 625.915 445.817 625.71 445.519 625.41C445.22 625.11 445.017 624.728 444.936 624.313C444.855 623.898 444.9 623.468 445.064 623.078C445.227 622.688 445.503 622.355 445.857 622.122C446.21 621.889 446.625 621.766 447.048 621.769C447.613 621.772 448.153 621.999 448.551 622.399C448.949 622.799 449.173 623.34 449.173 623.905Z" fill="white"/>
<path d="M449.173 640.926C449.173 641.349 449.047 641.763 448.812 642.114C448.576 642.466 448.241 642.739 447.85 642.901C447.459 643.062 447.028 643.103 446.613 643.02C446.198 642.936 445.817 642.732 445.519 642.432C445.22 642.132 445.017 641.75 444.936 641.335C444.855 640.919 444.9 640.489 445.064 640.099C445.227 639.709 445.503 639.377 445.857 639.144C446.21 638.91 446.625 638.787 447.048 638.79C447.613 638.794 448.153 639.02 448.551 639.42C448.949 639.82 449.173 640.362 449.173 640.926Z" fill="white"/>
<path d="M449.173 658.066C449.173 658.489 449.047 658.903 448.812 659.254C448.576 659.606 448.241 659.879 447.85 660.041C447.459 660.202 447.028 660.243 446.613 660.16C446.198 660.076 445.817 659.872 445.519 659.572C445.22 659.272 445.017 658.89 444.936 658.475C444.855 658.059 444.9 657.63 445.064 657.24C445.227 656.849 445.503 656.517 445.857 656.284C446.21 656.051 446.625 655.928 447.048 655.93C447.328 655.93 447.606 655.986 447.864 656.093C448.123 656.201 448.358 656.358 448.555 656.557C448.753 656.755 448.909 656.991 449.015 657.25C449.121 657.509 449.175 657.786 449.173 658.066Z" fill="white"/>
<path d="M449.173 675.035C449.173 675.458 449.047 675.871 448.812 676.223C448.576 676.574 448.241 676.848 447.85 677.01C447.459 677.171 447.028 677.212 446.613 677.129C446.198 677.045 445.817 676.841 445.519 676.541C445.22 676.241 445.017 675.859 444.936 675.443C444.855 675.028 444.9 674.598 445.064 674.208C445.227 673.818 445.503 673.486 445.857 673.253C446.21 673.019 446.625 672.896 447.048 672.899C447.328 672.899 447.606 672.954 447.864 673.062C448.123 673.169 448.358 673.327 448.555 673.525C448.753 673.724 448.909 673.959 449.015 674.219C449.121 674.478 449.175 674.755 449.173 675.035Z" fill="white"/>
<path d="M466.91 589.809C466.91 590.231 466.784 590.644 466.549 590.996C466.314 591.347 465.981 591.621 465.59 591.782C465.199 591.944 464.769 591.986 464.355 591.904C463.94 591.821 463.559 591.618 463.26 591.319C462.961 591.02 462.757 590.64 462.675 590.226C462.592 589.811 462.635 589.382 462.797 588.991C462.958 588.601 463.232 588.268 463.584 588.033C463.936 587.798 464.349 587.673 464.772 587.673C465.053 587.671 465.332 587.725 465.592 587.832C465.852 587.939 466.088 588.096 466.287 588.295C466.486 588.493 466.644 588.729 466.75 588.989C466.857 589.249 466.911 589.528 466.91 589.809Z" fill="white"/>
<path d="M466.91 606.857C466.91 607.279 466.784 607.692 466.549 608.043C466.314 608.395 465.981 608.668 465.59 608.83C465.199 608.992 464.769 609.034 464.355 608.952C463.94 608.869 463.559 608.666 463.26 608.367C462.961 608.068 462.757 607.688 462.675 607.273C462.592 606.859 462.635 606.43 462.797 606.039C462.958 605.649 463.232 605.315 463.584 605.081C463.936 604.846 464.349 604.721 464.772 604.721C465.053 604.719 465.332 604.773 465.592 604.88C465.852 604.986 466.088 605.144 466.287 605.342C466.486 605.541 466.644 605.777 466.75 606.037C466.857 606.297 466.911 606.576 466.91 606.857Z" fill="white"/>
<path d="M464.772 626.04C465.952 626.04 466.91 625.084 466.91 623.904C466.91 622.725 465.952 621.769 464.772 621.769C463.591 621.769 462.634 622.725 462.634 623.904C462.634 625.084 463.591 626.04 464.772 626.04Z" fill="white"/>
<path d="M466.91 640.926C466.91 641.348 466.784 641.761 466.549 642.113C466.314 642.464 465.981 642.738 465.59 642.899C465.199 643.061 464.769 643.103 464.355 643.021C463.94 642.938 463.559 642.735 463.26 642.436C462.961 642.138 462.757 641.757 462.675 641.343C462.592 640.928 462.635 640.499 462.797 640.109C462.958 639.718 463.232 639.385 463.584 639.15C463.936 638.915 464.349 638.79 464.772 638.79C465.339 638.79 465.883 639.015 466.283 639.416C466.684 639.816 466.91 640.359 466.91 640.926Z" fill="white"/>
<path d="M464.772 660.136C465.952 660.136 466.91 659.18 466.91 658C466.91 656.821 465.952 655.864 464.772 655.864C463.591 655.864 462.634 656.821 462.634 658C462.634 659.18 463.591 660.136 464.772 660.136Z" fill="white"/>
<path d="M466.91 675.035C466.91 675.457 466.784 675.87 466.549 676.222C466.314 676.573 465.981 676.847 465.59 677.008C465.199 677.17 464.769 677.212 464.355 677.13C463.94 677.047 463.559 676.844 463.26 676.545C462.961 676.247 462.757 675.866 462.675 675.452C462.592 675.037 462.635 674.608 462.797 674.218C462.958 673.827 463.232 673.494 463.584 673.259C463.936 673.024 464.349 672.899 464.772 672.899C465.053 672.897 465.332 672.951 465.592 673.058C465.852 673.165 466.088 673.322 466.287 673.521C466.486 673.719 466.644 673.956 466.75 674.215C466.857 674.475 466.911 674.754 466.91 675.035Z" fill="white"/>
<path d="M484.647 589.809C484.647 590.231 484.522 590.644 484.287 590.995C484.052 591.347 483.718 591.621 483.327 591.782C482.936 591.944 482.507 591.986 482.092 591.904C481.677 591.821 481.296 591.618 480.997 591.319C480.698 591.02 480.495 590.64 480.412 590.226C480.33 589.811 480.372 589.382 480.534 588.991C480.696 588.601 480.97 588.268 481.321 588.033C481.673 587.798 482.086 587.673 482.509 587.673C482.79 587.673 483.068 587.728 483.327 587.835C483.587 587.943 483.822 588.1 484.021 588.298C484.219 588.497 484.377 588.732 484.484 588.991C484.592 589.251 484.647 589.528 484.647 589.809Z" fill="white"/>
<path d="M484.647 606.857C484.647 607.279 484.522 607.692 484.287 608.043C484.052 608.395 483.718 608.668 483.327 608.83C482.936 608.992 482.507 609.034 482.092 608.951C481.677 608.869 481.296 608.666 480.997 608.367C480.698 608.068 480.495 607.688 480.412 607.273C480.33 606.859 480.372 606.429 480.534 606.039C480.696 605.649 480.97 605.315 481.321 605.081C481.673 604.846 482.086 604.721 482.509 604.721C482.79 604.721 483.068 604.776 483.327 604.883C483.587 604.991 483.822 605.148 484.021 605.346C484.219 605.545 484.377 605.78 484.484 606.039C484.592 606.298 484.647 606.576 484.647 606.857Z" fill="white"/>
<path d="M482.509 626.04C483.69 626.04 484.647 625.084 484.647 623.904C484.647 622.725 483.69 621.769 482.509 621.769C481.328 621.769 480.371 622.725 480.371 623.904C480.371 625.084 481.328 626.04 482.509 626.04Z" fill="white"/>
<path d="M484.647 640.926C484.647 641.348 484.522 641.761 484.287 642.113C484.052 642.464 483.718 642.738 483.327 642.899C482.936 643.061 482.507 643.103 482.092 643.021C481.677 642.938 481.296 642.735 480.997 642.436C480.698 642.138 480.495 641.757 480.412 641.343C480.33 640.928 480.372 640.499 480.534 640.109C480.696 639.718 480.97 639.385 481.321 639.15C481.673 638.915 482.086 638.79 482.509 638.79C483.075 638.793 483.617 639.02 484.017 639.419C484.417 639.819 484.643 640.361 484.647 640.926Z" fill="white"/>
<path d="M482.509 660.136C483.69 660.136 484.647 659.18 484.647 658C484.647 656.821 483.69 655.864 482.509 655.864C481.328 655.864 480.371 656.821 480.371 658C480.371 659.18 481.328 660.136 482.509 660.136Z" fill="white"/>
<path d="M484.647 675.035C484.647 675.457 484.522 675.87 484.287 676.222C484.052 676.573 483.718 676.847 483.327 677.008C482.936 677.17 482.507 677.212 482.092 677.13C481.677 677.047 481.296 676.844 480.997 676.545C480.698 676.246 480.495 675.866 480.412 675.452C480.33 675.037 480.372 674.608 480.534 674.217C480.696 673.827 480.97 673.494 481.321 673.259C481.673 673.024 482.086 672.899 482.509 672.899C482.79 672.899 483.068 672.954 483.327 673.062C483.587 673.169 483.822 673.326 484.021 673.525C484.219 673.723 484.377 673.958 484.484 674.217C484.592 674.477 484.647 674.754 484.647 675.035Z" fill="white"/>
<path d="M502.37 589.809C502.37 590.231 502.245 590.644 502.01 590.996C501.775 591.347 501.441 591.621 501.05 591.782C500.66 591.944 500.23 591.986 499.815 591.904C499.4 591.821 499.019 591.618 498.72 591.319C498.421 591.02 498.218 590.64 498.135 590.226C498.053 589.811 498.095 589.382 498.257 588.991C498.419 588.601 498.693 588.268 499.044 588.033C499.396 587.798 499.809 587.673 500.232 587.673C500.513 587.671 500.792 587.725 501.052 587.832C501.313 587.939 501.549 588.096 501.748 588.295C501.947 588.493 502.104 588.729 502.211 588.989C502.318 589.249 502.372 589.528 502.37 589.809Z" fill="white"/>
<path d="M502.37 606.857C502.37 607.279 502.245 607.692 502.01 608.043C501.775 608.395 501.441 608.668 501.05 608.83C500.66 608.992 500.23 609.034 499.815 608.952C499.4 608.869 499.019 608.666 498.72 608.367C498.421 608.068 498.218 607.688 498.135 607.273C498.053 606.859 498.095 606.43 498.257 606.039C498.419 605.649 498.693 605.315 499.044 605.081C499.396 604.846 499.809 604.721 500.232 604.721C500.513 604.719 500.792 604.773 501.052 604.88C501.313 604.986 501.549 605.144 501.748 605.342C501.947 605.541 502.104 605.777 502.211 606.037C502.318 606.297 502.372 606.576 502.37 606.857Z" fill="white"/>
<path d="M500.232 626.04C501.413 626.04 502.37 625.084 502.37 623.904C502.37 622.725 501.413 621.769 500.232 621.769C499.051 621.769 498.094 622.725 498.094 623.904C498.094 625.084 499.051 626.04 500.232 626.04Z" fill="white"/>
<path d="M502.37 640.926C502.37 641.348 502.245 641.761 502.01 642.113C501.775 642.464 501.441 642.738 501.05 642.899C500.66 643.061 500.23 643.103 499.815 643.021C499.4 642.938 499.019 642.735 498.72 642.436C498.421 642.138 498.218 641.757 498.135 641.343C498.053 640.928 498.095 640.499 498.257 640.109C498.419 639.718 498.693 639.385 499.044 639.15C499.396 638.915 499.809 638.79 500.232 638.79C500.513 638.79 500.791 638.845 501.05 638.953C501.31 639.06 501.545 639.217 501.744 639.416C501.942 639.614 502.1 639.849 502.207 640.109C502.315 640.368 502.37 640.645 502.37 640.926Z" fill="white"/>
<path d="M500.232 660.136C501.413 660.136 502.37 659.18 502.37 658C502.37 656.821 501.413 655.864 500.232 655.864C499.051 655.864 498.094 656.821 498.094 658C498.094 659.18 499.051 660.136 500.232 660.136Z" fill="white"/>
<path d="M502.37 675.035C502.37 675.457 502.245 675.87 502.01 676.222C501.775 676.573 501.441 676.847 501.05 677.008C500.66 677.17 500.23 677.212 499.815 677.13C499.4 677.047 499.019 676.844 498.72 676.545C498.421 676.247 498.218 675.866 498.135 675.452C498.053 675.037 498.095 674.608 498.257 674.218C498.419 673.827 498.693 673.494 499.044 673.259C499.396 673.024 499.809 672.899 500.232 672.899C500.513 672.897 500.792 672.951 501.052 673.058C501.313 673.165 501.549 673.322 501.748 673.521C501.947 673.719 502.104 673.956 502.211 674.215C502.318 674.475 502.372 674.754 502.37 675.035Z" fill="white"/>
<path d="M520.107 589.809C520.107 590.231 519.982 590.644 519.747 590.995C519.512 591.347 519.178 591.621 518.787 591.782C518.396 591.944 517.967 591.986 517.552 591.904C517.137 591.821 516.756 591.618 516.457 591.319C516.158 591.02 515.955 590.64 515.872 590.226C515.79 589.811 515.832 589.382 515.994 588.991C516.156 588.601 516.43 588.268 516.781 588.033C517.133 587.798 517.546 587.673 517.969 587.673C518.536 587.673 519.08 587.898 519.481 588.298C519.882 588.699 520.107 589.242 520.107 589.809Z" fill="white"/>
<path d="M520.107 606.857C520.107 607.279 519.982 607.692 519.747 608.043C519.512 608.395 519.178 608.668 518.787 608.83C518.396 608.992 517.967 609.034 517.552 608.951C517.137 608.869 516.756 608.666 516.457 608.367C516.158 608.068 515.955 607.688 515.872 607.273C515.79 606.859 515.832 606.429 515.994 606.039C516.156 605.649 516.43 605.315 516.781 605.081C517.133 604.846 517.546 604.721 517.969 604.721C518.536 604.721 519.08 604.946 519.481 605.346C519.882 605.747 520.107 606.29 520.107 606.857Z" fill="white"/>
<path d="M520.107 623.904C520.107 624.327 519.982 624.74 519.747 625.091C519.512 625.442 519.178 625.716 518.787 625.878C518.396 626.039 517.967 626.082 517.552 625.999C517.137 625.917 516.756 625.714 516.457 625.415C516.158 625.116 515.955 624.736 515.872 624.321C515.79 623.907 515.832 623.477 515.994 623.087C516.156 622.697 516.43 622.363 516.781 622.129C517.133 621.894 517.546 621.769 517.969 621.769C518.535 621.772 519.077 621.998 519.477 622.398C519.877 622.798 520.103 623.339 520.107 623.904Z" fill="white"/>
<path d="M520.107 640.926C520.107 641.348 519.982 641.761 519.747 642.113C519.512 642.464 519.178 642.738 518.787 642.899C518.396 643.061 517.967 643.103 517.552 643.021C517.137 642.938 516.756 642.735 516.457 642.436C516.158 642.138 515.955 641.757 515.872 641.343C515.79 640.928 515.832 640.499 515.994 640.109C516.156 639.718 516.43 639.385 516.781 639.15C517.133 638.915 517.546 638.79 517.969 638.79C518.535 638.793 519.077 639.02 519.477 639.419C519.877 639.819 520.103 640.361 520.107 640.926Z" fill="white"/>
<path d="M520.107 658.066C520.107 658.489 519.982 658.901 519.747 659.253C519.512 659.604 519.178 659.878 518.787 660.039C518.396 660.201 517.967 660.243 517.552 660.161C517.137 660.079 516.756 659.875 516.457 659.576C516.158 659.278 515.955 658.897 515.872 658.483C515.79 658.068 515.832 657.639 515.994 657.249C516.156 656.858 516.43 656.525 516.781 656.29C517.133 656.055 517.546 655.93 517.969 655.93C518.536 655.93 519.08 656.155 519.481 656.556C519.882 656.956 520.107 657.5 520.107 658.066Z" fill="white"/>
<path d="M520.107 675.035C520.107 675.457 519.982 675.87 519.747 676.222C519.512 676.573 519.178 676.847 518.787 677.008C518.396 677.17 517.967 677.212 517.552 677.13C517.137 677.047 516.756 676.844 516.457 676.545C516.158 676.246 515.955 675.866 515.872 675.452C515.79 675.037 515.832 674.608 515.994 674.217C516.156 673.827 516.43 673.494 516.781 673.259C517.133 673.024 517.546 672.899 517.969 672.899C518.536 672.899 519.08 673.124 519.481 673.525C519.882 673.925 520.107 674.468 520.107 675.035Z" fill="white"/>
</svg>
