<svg width="1920" height="2857" viewBox="0 0 1920 2857" fill="none" xmlns="http://www.w3.org/2000/svg">
<path d="M2394.99 2540.46C2393.65 2521.43 2374.48 2489.33 2366.21 2478.16C2247.43 2317.58 2381.85 2106.53 2275.54 2002.02C2161.83 1890.23 2035.95 2026.77 1823.94 1895.89C1694.06 1815.71 1648.63 1741.3 1648.63 1614.38" stroke="#6B813D" stroke-opacity="0.35" stroke-width="2" stroke-dasharray="4 7"/>
<path d="M-4.21606 1814.37C433.371 1919.12 694.995 1720.1 1920 1814.37V2799.53C1085.4 2716.07 655.249 2707.2 -4.21606 2799.53V1814.37Z" fill="#F1F9F7"/>
<path d="M-515.444 2571.12C-466.389 2626.93 -300.756 2750.95 -30.6649 2800.55C306.949 2862.56 575.308 2626.93 1133.67 2630.03C1580.36 2632.51 2052.73 2781.95 2233.08 2856.36" stroke="#C8D3BA" stroke-dasharray="4 7"/>
<path d="M-0.203125 2349.64C34.9347 2405.45 153.576 2529.46 347.041 2579.07C588.871 2641.08 781.095 2405.45 1181.05 2408.55C1501.01 2411.03 1839.36 2560.47 1968.55 2634.88" stroke="#C8D3BA" stroke-dasharray="4 7"/>
<path d="M-131.117 268.884C-119.045 287.46 -84.2526 309.082 -70.7854 315.694C122.769 410.728 129.24 702.349 279.966 747.566C441.179 795.929 470.201 584.935 726.271 596.304C883.129 603.269 995.694 740.509 1035.74 779.558" stroke="#6B813D" stroke-opacity="0.35" stroke-width="2" stroke-dasharray="4 7"/>
<path d="M1648.91 1606.28C1650.08 1587.23 1635.27 1552.9 1628.54 1540.74C1531.81 1366 1692.71 1174.36 1601 1056.83C1502.91 931.112 1360.24 1049.99 1167.19 892.468C1048.93 795.974 1039.32 641.548 1030.34 592.904" stroke="#6B813D" stroke-opacity="0.35" stroke-width="2" stroke-dasharray="4 7"/>
<path d="M123.403 2481.69C172.784 2432.35 172.784 2352.37 123.403 2303.03C74.022 2253.7 -6.04064 2253.7 -55.4218 2303.03C-104.803 2352.37 -104.803 2432.35 -55.4218 2481.69C-6.04063 2531.02 74.022 2531.02 123.403 2481.69Z" fill="#E6F0ED"/>
<path d="M202.665 2529.4C227.458 2529.4 247.557 2509.32 247.557 2484.55C247.557 2459.78 227.458 2439.7 202.665 2439.7C177.872 2439.7 157.773 2459.78 157.773 2484.55C157.773 2509.32 177.872 2529.4 202.665 2529.4Z" fill="#E6F0ED"/>
<path d="M105.395 2248.05C105.395 2225.51 87.1068 2207.23 64.5468 2207.23C41.9869 2207.23 23.6985 2225.51 23.6985 2248.05V2421.5C23.6985 2444.04 41.9869 2462.32 64.5468 2462.32C87.1068 2462.32 105.395 2444.04 105.395 2421.5V2248.05Z" fill="#5B9E8B"/>
<path d="M105.696 1900.94C83.5411 1900.94 65.5806 1918.89 65.5806 1941.02C65.5806 1963.16 83.5411 1981.1 105.696 1981.1H276.174C298.329 1981.1 316.29 1963.16 316.29 1941.02C316.29 1918.89 298.329 1900.94 276.174 1900.94H105.696Z" fill="#E6F0ED"/>
<path d="M23.6986 2593.28C23.6986 2615.83 41.987 2634.1 64.5469 2634.1C87.1068 2634.1 105.395 2615.83 105.395 2593.28L105.395 2555.91C105.395 2533.37 87.1068 2515.09 64.5469 2515.09C41.987 2515.09 23.6986 2533.37 23.6986 2555.91L23.6986 2593.28Z" fill="#5B9E8B"/>
<path d="M1725.19 1888.86C1725.19 1889.28 1725.07 1889.69 1724.83 1890.05C1724.6 1890.4 1724.26 1890.67 1723.87 1890.83C1723.48 1890.99 1723.05 1891.04 1722.64 1890.95C1722.22 1890.87 1721.84 1890.67 1721.54 1890.37C1721.24 1890.07 1721.04 1889.69 1720.96 1889.28C1720.88 1888.86 1720.92 1888.43 1721.08 1888.04C1721.24 1887.65 1721.52 1887.32 1721.87 1887.08C1722.22 1886.85 1722.63 1886.72 1723.06 1886.72C1723.62 1886.72 1724.17 1886.95 1724.57 1887.35C1724.97 1887.75 1725.19 1888.29 1725.19 1888.86Z" fill="#393E46"/>
<path d="M1725.19 1905.91C1725.19 1906.33 1725.07 1906.74 1724.83 1907.09C1724.6 1907.44 1724.26 1907.72 1723.87 1907.88C1723.48 1908.04 1723.05 1908.08 1722.64 1908C1722.22 1907.92 1721.84 1907.72 1721.54 1907.42C1721.24 1907.12 1721.04 1906.74 1720.96 1906.32C1720.88 1905.91 1720.92 1905.48 1721.08 1905.09C1721.24 1904.7 1721.52 1904.37 1721.87 1904.13C1722.22 1903.9 1722.63 1903.77 1723.06 1903.77C1723.62 1903.77 1724.17 1904 1724.57 1904.4C1724.97 1904.8 1725.19 1905.34 1725.19 1905.91Z" fill="#393E46"/>
<path d="M1722.99 1925.09C1724.17 1925.09 1725.13 1924.13 1725.13 1922.95C1725.13 1921.77 1724.17 1920.82 1722.99 1920.82C1721.81 1920.82 1720.85 1921.77 1720.85 1922.95C1720.85 1924.13 1721.81 1925.09 1722.99 1925.09Z" fill="#393E46"/>
<path d="M1725.19 1939.98C1725.19 1940.4 1725.07 1940.81 1724.83 1941.16C1724.6 1941.51 1724.26 1941.79 1723.87 1941.95C1723.48 1942.11 1723.05 1942.15 1722.64 1942.07C1722.22 1941.99 1721.84 1941.78 1721.54 1941.49C1721.24 1941.19 1721.04 1940.81 1720.96 1940.39C1720.88 1939.98 1720.92 1939.55 1721.08 1939.16C1721.24 1938.77 1721.52 1938.43 1721.87 1938.2C1722.22 1937.96 1722.63 1937.84 1723.06 1937.84C1723.62 1937.84 1724.16 1938.07 1724.56 1938.47C1724.96 1938.87 1725.19 1939.41 1725.19 1939.98Z" fill="#393E46"/>
<path d="M1722.99 1959.19C1724.17 1959.19 1725.13 1958.23 1725.13 1957.05C1725.13 1955.87 1724.17 1954.91 1722.99 1954.91C1721.81 1954.91 1720.85 1955.87 1720.85 1957.05C1720.85 1958.23 1721.81 1959.19 1722.99 1959.19Z" fill="#5B9E8B"/>
<path d="M1725.19 1974.08C1725.19 1974.51 1725.07 1974.92 1724.83 1975.27C1724.6 1975.62 1724.26 1975.9 1723.87 1976.06C1723.48 1976.22 1723.05 1976.26 1722.64 1976.18C1722.22 1976.1 1721.84 1975.89 1721.54 1975.59C1721.24 1975.3 1721.04 1974.92 1720.96 1974.5C1720.88 1974.09 1720.92 1973.66 1721.08 1973.27C1721.24 1972.88 1721.52 1972.54 1721.87 1972.31C1722.22 1972.07 1722.63 1971.95 1723.06 1971.95C1723.62 1971.95 1724.17 1972.17 1724.57 1972.57C1724.97 1972.97 1725.19 1973.52 1725.19 1974.08Z" fill="#393E46"/>
<path d="M1742.85 1888.86C1742.85 1889.28 1742.73 1889.69 1742.49 1890.05C1742.26 1890.4 1741.92 1890.67 1741.53 1890.83C1741.14 1890.99 1740.71 1891.04 1740.3 1890.95C1739.88 1890.87 1739.5 1890.67 1739.2 1890.37C1738.9 1890.07 1738.7 1889.69 1738.62 1889.28C1738.53 1888.86 1738.58 1888.43 1738.74 1888.04C1738.9 1887.65 1739.17 1887.32 1739.53 1887.08C1739.88 1886.85 1740.29 1886.72 1740.71 1886.72C1740.99 1886.72 1741.27 1886.77 1741.53 1886.88C1741.79 1886.99 1742.03 1887.15 1742.23 1887.34C1742.43 1887.54 1742.59 1887.78 1742.69 1888.04C1742.8 1888.3 1742.85 1888.58 1742.85 1888.86Z" fill="#393E46"/>
<path d="M1742.85 1905.91C1742.85 1906.33 1742.73 1906.74 1742.49 1907.09C1742.26 1907.44 1741.92 1907.72 1741.53 1907.88C1741.14 1908.04 1740.71 1908.08 1740.3 1908C1739.88 1907.92 1739.5 1907.72 1739.2 1907.42C1738.9 1907.12 1738.7 1906.74 1738.62 1906.32C1738.53 1905.91 1738.58 1905.48 1738.74 1905.09C1738.9 1904.7 1739.17 1904.37 1739.53 1904.13C1739.88 1903.9 1740.29 1903.77 1740.71 1903.77C1740.99 1903.77 1741.27 1903.82 1741.53 1903.93C1741.79 1904.04 1742.03 1904.19 1742.23 1904.39C1742.43 1904.59 1742.59 1904.83 1742.69 1905.09C1742.8 1905.35 1742.85 1905.63 1742.85 1905.91Z" fill="#393E46"/>
<path d="M1740.71 1925.09C1741.89 1925.09 1742.85 1924.13 1742.85 1922.95C1742.85 1921.77 1741.89 1920.82 1740.71 1920.82C1739.53 1920.82 1738.58 1921.77 1738.58 1922.95C1738.58 1924.13 1739.53 1925.09 1740.71 1925.09Z" fill="#5B9E8B"/>
<path d="M1742.85 1939.98C1742.85 1940.4 1742.73 1940.81 1742.49 1941.16C1742.26 1941.51 1741.92 1941.79 1741.53 1941.95C1741.14 1942.11 1740.71 1942.15 1740.3 1942.07C1739.88 1941.99 1739.5 1941.78 1739.2 1941.49C1738.9 1941.19 1738.7 1940.81 1738.62 1940.39C1738.53 1939.98 1738.58 1939.55 1738.74 1939.16C1738.9 1938.77 1739.17 1938.43 1739.53 1938.2C1739.88 1937.96 1740.29 1937.84 1740.71 1937.84C1741.28 1937.84 1741.82 1938.06 1742.23 1938.47C1742.63 1938.87 1742.85 1939.41 1742.85 1939.98Z" fill="#5B9E8B"/>
<path d="M1740.71 1959.19C1741.89 1959.19 1742.85 1958.23 1742.85 1957.05C1742.85 1955.87 1741.89 1954.91 1740.71 1954.91C1739.53 1954.91 1738.58 1955.87 1738.58 1957.05C1738.58 1958.23 1739.53 1959.19 1740.71 1959.19Z" fill="#5B9E8B"/>
<path d="M1742.85 1974.08C1742.85 1974.51 1742.73 1974.92 1742.49 1975.27C1742.26 1975.62 1741.92 1975.9 1741.53 1976.06C1741.14 1976.22 1740.71 1976.26 1740.3 1976.18C1739.88 1976.1 1739.5 1975.89 1739.2 1975.59C1738.9 1975.3 1738.7 1974.92 1738.62 1974.5C1738.53 1974.09 1738.58 1973.66 1738.74 1973.27C1738.9 1972.88 1739.17 1972.54 1739.53 1972.31C1739.88 1972.07 1740.29 1971.95 1740.71 1971.95C1740.99 1971.95 1741.27 1972 1741.53 1972.11C1741.79 1972.21 1742.03 1972.37 1742.23 1972.57C1742.43 1972.77 1742.59 1973.01 1742.69 1973.27C1742.8 1973.52 1742.85 1973.8 1742.85 1974.08Z" fill="#393E46"/>
<path d="M1760.59 1888.86C1760.59 1889.28 1760.46 1889.69 1760.23 1890.05C1759.99 1890.4 1759.66 1890.67 1759.27 1890.83C1758.88 1890.99 1758.45 1891.04 1758.03 1890.95C1757.62 1890.87 1757.24 1890.67 1756.94 1890.37C1756.64 1890.07 1756.44 1889.69 1756.35 1889.28C1756.27 1888.86 1756.31 1888.43 1756.48 1888.04C1756.64 1887.65 1756.91 1887.32 1757.26 1887.08C1757.61 1886.85 1758.03 1886.72 1758.45 1886.72C1759.02 1886.72 1759.56 1886.95 1759.96 1887.35C1760.36 1887.75 1760.59 1888.29 1760.59 1888.86Z" fill="#393E46"/>
<path d="M1760.59 1905.91C1760.59 1906.33 1760.46 1906.74 1760.23 1907.09C1759.99 1907.44 1759.66 1907.72 1759.27 1907.88C1758.88 1908.04 1758.45 1908.08 1758.03 1908C1757.62 1907.92 1757.24 1907.72 1756.94 1907.42C1756.64 1907.12 1756.44 1906.74 1756.35 1906.32C1756.27 1905.91 1756.31 1905.48 1756.48 1905.09C1756.64 1904.7 1756.91 1904.37 1757.26 1904.13C1757.61 1903.9 1758.03 1903.77 1758.45 1903.77C1759.02 1903.77 1759.56 1904 1759.96 1904.4C1760.36 1904.8 1760.59 1905.34 1760.59 1905.91Z" fill="#393E46"/>
<path d="M1760.59 1922.95C1760.59 1923.38 1760.46 1923.79 1760.23 1924.14C1759.99 1924.49 1759.66 1924.77 1759.27 1924.93C1758.88 1925.09 1758.45 1925.13 1758.03 1925.05C1757.62 1924.97 1757.24 1924.76 1756.94 1924.46C1756.64 1924.17 1756.44 1923.79 1756.35 1923.37C1756.27 1922.96 1756.31 1922.53 1756.48 1922.14C1756.64 1921.75 1756.91 1921.41 1757.26 1921.18C1757.61 1920.94 1758.03 1920.82 1758.45 1920.82C1759.02 1920.82 1759.56 1921.05 1759.96 1921.45C1760.36 1921.85 1760.58 1922.39 1760.59 1922.95Z" fill="#393E46"/>
<path d="M1760.59 1939.98C1760.59 1940.4 1760.46 1940.81 1760.23 1941.16C1759.99 1941.51 1759.66 1941.79 1759.27 1941.95C1758.88 1942.11 1758.45 1942.15 1758.03 1942.07C1757.62 1941.99 1757.24 1941.78 1756.94 1941.49C1756.64 1941.19 1756.44 1940.81 1756.35 1940.39C1756.27 1939.98 1756.31 1939.55 1756.48 1939.16C1756.64 1938.77 1756.91 1938.43 1757.26 1938.2C1757.61 1937.96 1758.03 1937.84 1758.45 1937.84C1759.02 1937.84 1759.56 1938.07 1759.96 1938.47C1760.36 1938.87 1760.58 1939.41 1760.59 1939.98Z" fill="#5B9E8B"/>
<path d="M1760.59 1957.12C1760.59 1957.54 1760.46 1957.95 1760.23 1958.3C1759.99 1958.65 1759.66 1958.93 1759.27 1959.09C1758.88 1959.25 1758.45 1959.29 1758.03 1959.21C1757.62 1959.13 1757.24 1958.92 1756.94 1958.63C1756.64 1958.33 1756.44 1957.95 1756.35 1957.53C1756.27 1957.12 1756.31 1956.69 1756.48 1956.3C1756.64 1955.91 1756.91 1955.57 1757.26 1955.34C1757.61 1955.1 1758.03 1954.98 1758.45 1954.98C1759.02 1954.98 1759.56 1955.2 1759.96 1955.61C1760.36 1956.01 1760.59 1956.55 1760.59 1957.12Z" fill="#393E46"/>
<path d="M1760.59 1974.08C1760.59 1974.51 1760.46 1974.92 1760.23 1975.27C1759.99 1975.62 1759.66 1975.9 1759.27 1976.06C1758.88 1976.22 1758.45 1976.26 1758.03 1976.18C1757.62 1976.1 1757.24 1975.89 1756.94 1975.59C1756.64 1975.3 1756.44 1974.92 1756.35 1974.5C1756.27 1974.09 1756.31 1973.66 1756.48 1973.27C1756.64 1972.88 1756.91 1972.54 1757.26 1972.31C1757.61 1972.07 1758.03 1971.95 1758.45 1971.95C1759.02 1971.95 1759.56 1972.17 1759.96 1972.57C1760.36 1972.97 1760.59 1973.52 1760.59 1974.08Z" fill="#393E46"/>
<path d="M1778.31 1888.86C1778.31 1889.28 1778.19 1889.69 1777.95 1890.05C1777.72 1890.4 1777.38 1890.67 1776.99 1890.83C1776.6 1890.99 1776.17 1891.04 1775.75 1890.95C1775.34 1890.87 1774.96 1890.66 1774.66 1890.36C1774.36 1890.06 1774.16 1889.68 1774.08 1889.27C1773.99 1888.85 1774.04 1888.42 1774.2 1888.03C1774.37 1887.64 1774.64 1887.31 1775 1887.08C1775.35 1886.84 1775.76 1886.72 1776.19 1886.72C1776.47 1886.72 1776.74 1886.78 1777 1886.89C1777.26 1886.99 1777.5 1887.15 1777.69 1887.35C1777.89 1887.55 1778.05 1887.78 1778.15 1888.04C1778.26 1888.3 1778.31 1888.58 1778.31 1888.86Z" fill="#393E46"/>
<path d="M1778.31 1905.91C1778.31 1906.33 1778.19 1906.74 1777.95 1907.09C1777.72 1907.45 1777.38 1907.72 1776.99 1907.88C1776.6 1908.04 1776.17 1908.08 1775.75 1908C1775.34 1907.92 1774.96 1907.71 1774.66 1907.41C1774.36 1907.11 1774.16 1906.73 1774.08 1906.32C1773.99 1905.9 1774.04 1905.47 1774.2 1905.08C1774.37 1904.69 1774.64 1904.36 1775 1904.12C1775.35 1903.89 1775.76 1903.77 1776.19 1903.77C1776.47 1903.77 1776.74 1903.83 1777 1903.93C1777.26 1904.04 1777.5 1904.2 1777.69 1904.4C1777.89 1904.6 1778.05 1904.83 1778.15 1905.09C1778.26 1905.35 1778.31 1905.63 1778.31 1905.91Z" fill="#393E46"/>
<path d="M1778.31 1922.95C1778.31 1923.38 1778.19 1923.79 1777.95 1924.14C1777.72 1924.49 1777.38 1924.77 1776.99 1924.93C1776.6 1925.09 1776.17 1925.13 1775.75 1925.05C1775.34 1924.96 1774.96 1924.76 1774.66 1924.46C1774.36 1924.16 1774.16 1923.78 1774.08 1923.36C1773.99 1922.95 1774.04 1922.52 1774.2 1922.13C1774.37 1921.74 1774.64 1921.4 1775 1921.17C1775.35 1920.94 1775.76 1920.82 1776.19 1920.82C1776.75 1920.82 1777.29 1921.05 1777.69 1921.45C1778.09 1921.85 1778.31 1922.39 1778.31 1922.95Z" fill="#393E46"/>
<path d="M1778.31 1939.98C1778.31 1940.4 1778.19 1940.81 1777.95 1941.16C1777.72 1941.52 1777.38 1941.79 1776.99 1941.95C1776.6 1942.11 1776.17 1942.15 1775.75 1942.07C1775.34 1941.99 1774.96 1941.78 1774.66 1941.48C1774.36 1941.18 1774.16 1940.8 1774.08 1940.38C1773.99 1939.97 1774.04 1939.54 1774.2 1939.15C1774.37 1938.76 1774.64 1938.43 1775 1938.19C1775.35 1937.96 1775.76 1937.84 1776.19 1937.84C1776.75 1937.84 1777.29 1938.07 1777.69 1938.47C1778.09 1938.87 1778.31 1939.41 1778.31 1939.98Z" fill="#5B9E8B"/>
<path d="M1778.31 1957.12C1778.31 1957.54 1778.19 1957.95 1777.95 1958.3C1777.72 1958.66 1777.38 1958.93 1776.99 1959.09C1776.6 1959.25 1776.17 1959.29 1775.75 1959.21C1775.34 1959.13 1774.96 1958.92 1774.66 1958.62C1774.36 1958.32 1774.16 1957.94 1774.08 1957.52C1773.99 1957.11 1774.04 1956.68 1774.2 1956.29C1774.37 1955.9 1774.64 1955.57 1775 1955.33C1775.35 1955.1 1775.76 1954.98 1776.19 1954.98C1776.47 1954.98 1776.74 1955.04 1777 1955.14C1777.26 1955.25 1777.5 1955.41 1777.69 1955.61C1777.89 1955.8 1778.05 1956.04 1778.15 1956.3C1778.26 1956.56 1778.31 1956.84 1778.31 1957.12Z" fill="#5B9E8B"/>
<path d="M1778.31 1974.08C1778.31 1974.51 1778.19 1974.92 1777.95 1975.27C1777.72 1975.62 1777.38 1975.9 1776.99 1976.06C1776.6 1976.22 1776.17 1976.26 1775.75 1976.18C1775.34 1976.09 1774.96 1975.89 1774.66 1975.59C1774.36 1975.29 1774.16 1974.91 1774.08 1974.49C1773.99 1974.08 1774.04 1973.65 1774.2 1973.26C1774.37 1972.87 1774.64 1972.54 1775 1972.3C1775.35 1972.07 1775.76 1971.95 1776.19 1971.95C1776.47 1971.95 1776.74 1972 1777 1972.11C1777.26 1972.22 1777.5 1972.38 1777.69 1972.57C1777.89 1972.77 1778.05 1973.01 1778.15 1973.27C1778.26 1973.53 1778.31 1973.8 1778.31 1974.08Z" fill="#393E46"/>
<path d="M1796.05 1888.86C1796.05 1889.28 1795.92 1889.69 1795.69 1890.05C1795.45 1890.4 1795.12 1890.67 1794.73 1890.83C1794.34 1890.99 1793.91 1891.04 1793.49 1890.95C1793.08 1890.87 1792.7 1890.67 1792.4 1890.37C1792.1 1890.07 1791.9 1889.69 1791.81 1889.28C1791.73 1888.86 1791.77 1888.43 1791.94 1888.04C1792.1 1887.65 1792.37 1887.32 1792.72 1887.08C1793.07 1886.85 1793.49 1886.72 1793.91 1886.72C1794.19 1886.72 1794.47 1886.77 1794.73 1886.88C1794.99 1886.99 1795.23 1887.15 1795.43 1887.34C1795.63 1887.54 1795.78 1887.78 1795.89 1888.04C1796 1888.3 1796.05 1888.58 1796.05 1888.86Z" fill="#5B9E8B"/>
<path d="M1796.05 1905.91C1796.05 1906.33 1795.92 1906.74 1795.69 1907.09C1795.45 1907.44 1795.12 1907.72 1794.73 1907.88C1794.34 1908.04 1793.91 1908.08 1793.49 1908C1793.08 1907.92 1792.7 1907.72 1792.4 1907.42C1792.1 1907.12 1791.9 1906.74 1791.81 1906.32C1791.73 1905.91 1791.77 1905.48 1791.94 1905.09C1792.1 1904.7 1792.37 1904.37 1792.72 1904.13C1793.07 1903.9 1793.49 1903.77 1793.91 1903.77C1794.19 1903.77 1794.47 1903.82 1794.73 1903.93C1794.99 1904.04 1795.23 1904.19 1795.43 1904.39C1795.63 1904.59 1795.78 1904.83 1795.89 1905.09C1796 1905.35 1796.05 1905.63 1796.05 1905.91Z" fill="#5B9E8B"/>
<path d="M1793.91 1925.09C1795.09 1925.09 1796.05 1924.13 1796.05 1922.95C1796.05 1921.77 1795.09 1920.82 1793.91 1920.82C1792.73 1920.82 1791.77 1921.77 1791.77 1922.95C1791.77 1924.13 1792.73 1925.09 1793.91 1925.09Z" fill="#393E46"/>
<path d="M1796.05 1939.98C1796.05 1940.4 1795.92 1940.81 1795.69 1941.16C1795.45 1941.51 1795.12 1941.79 1794.73 1941.95C1794.34 1942.11 1793.91 1942.15 1793.49 1942.07C1793.08 1941.99 1792.7 1941.78 1792.4 1941.49C1792.1 1941.19 1791.9 1940.81 1791.81 1940.39C1791.73 1939.98 1791.77 1939.55 1791.94 1939.16C1792.1 1938.77 1792.37 1938.43 1792.72 1938.2C1793.07 1937.96 1793.49 1937.84 1793.91 1937.84C1794.48 1937.84 1795.02 1938.06 1795.42 1938.47C1795.82 1938.87 1796.05 1939.41 1796.05 1939.98Z" fill="#393E46"/>
<path d="M1793.91 1959.19C1795.09 1959.19 1796.05 1958.23 1796.05 1957.05C1796.05 1955.87 1795.09 1954.91 1793.91 1954.91C1792.73 1954.91 1791.77 1955.87 1791.77 1957.05C1791.77 1958.23 1792.73 1959.19 1793.91 1959.19Z" fill="#393E46"/>
<path d="M1796.05 1974.08C1796.05 1974.51 1795.92 1974.92 1795.69 1975.27C1795.45 1975.62 1795.12 1975.9 1794.73 1976.06C1794.34 1976.22 1793.91 1976.26 1793.49 1976.18C1793.08 1976.1 1792.7 1975.89 1792.4 1975.59C1792.1 1975.3 1791.9 1974.92 1791.81 1974.5C1791.73 1974.09 1791.77 1973.66 1791.94 1973.27C1792.1 1972.88 1792.37 1972.54 1792.72 1972.31C1793.07 1972.07 1793.49 1971.95 1793.91 1971.95C1794.19 1971.95 1794.47 1972 1794.73 1972.11C1794.99 1972.21 1795.23 1972.37 1795.43 1972.57C1795.63 1972.77 1795.78 1973.01 1795.89 1973.27C1796 1973.52 1796.05 1973.8 1796.05 1974.08Z" fill="#393E46"/>
<path d="M1813.79 1888.86C1813.79 1889.28 1813.66 1889.69 1813.43 1890.05C1813.19 1890.4 1812.86 1890.67 1812.47 1890.83C1812.08 1890.99 1811.65 1891.04 1811.23 1890.95C1810.82 1890.87 1810.43 1890.67 1810.14 1890.37C1809.84 1890.07 1809.63 1889.69 1809.55 1889.28C1809.47 1888.86 1809.51 1888.43 1809.67 1888.04C1809.83 1887.65 1810.11 1887.32 1810.46 1887.08C1810.81 1886.85 1811.22 1886.72 1811.65 1886.72C1811.93 1886.72 1812.21 1886.78 1812.47 1886.89C1812.73 1886.99 1812.96 1887.15 1813.16 1887.35C1813.36 1887.55 1813.52 1887.78 1813.62 1888.04C1813.73 1888.3 1813.79 1888.58 1813.79 1888.86Z" fill="#393E46"/>
<path d="M1813.79 1905.91C1813.79 1906.33 1813.66 1906.74 1813.43 1907.09C1813.19 1907.44 1812.86 1907.72 1812.47 1907.88C1812.08 1908.04 1811.65 1908.08 1811.23 1908C1810.82 1907.92 1810.43 1907.72 1810.14 1907.42C1809.84 1907.12 1809.63 1906.74 1809.55 1906.32C1809.47 1905.91 1809.51 1905.48 1809.67 1905.09C1809.83 1904.7 1810.11 1904.37 1810.46 1904.13C1810.81 1903.9 1811.22 1903.77 1811.65 1903.77C1811.93 1903.77 1812.21 1903.83 1812.47 1903.93C1812.73 1904.04 1812.96 1904.2 1813.16 1904.4C1813.36 1904.59 1813.52 1904.83 1813.62 1905.09C1813.73 1905.35 1813.79 1905.63 1813.79 1905.91Z" fill="#393E46"/>
<path d="M1811.65 1925.09C1812.83 1925.09 1813.79 1924.13 1813.79 1922.95C1813.79 1921.77 1812.83 1920.82 1811.65 1920.82C1810.47 1920.82 1809.51 1921.77 1809.51 1922.95C1809.51 1924.13 1810.47 1925.09 1811.65 1925.09Z" fill="#393E46"/>
<path d="M1813.79 1939.98C1813.79 1940.4 1813.66 1940.81 1813.43 1941.16C1813.19 1941.51 1812.86 1941.79 1812.47 1941.95C1812.08 1942.11 1811.65 1942.15 1811.23 1942.07C1810.82 1941.99 1810.43 1941.78 1810.14 1941.49C1809.84 1941.19 1809.63 1940.81 1809.55 1940.39C1809.47 1939.98 1809.51 1939.55 1809.67 1939.16C1809.83 1938.77 1810.11 1938.43 1810.46 1938.2C1810.81 1937.96 1811.22 1937.84 1811.65 1937.84C1812.21 1937.84 1812.76 1938.07 1813.16 1938.47C1813.56 1938.87 1813.78 1939.41 1813.79 1939.98Z" fill="#5B9E8B"/>
<path d="M1811.65 1959.19C1812.83 1959.19 1813.79 1958.23 1813.79 1957.05C1813.79 1955.87 1812.83 1954.91 1811.65 1954.91C1810.47 1954.91 1809.51 1955.87 1809.51 1957.05C1809.51 1958.23 1810.47 1959.19 1811.65 1959.19Z" fill="#5B9E8B"/>
<path d="M1813.79 1974.08C1813.79 1974.51 1813.66 1974.92 1813.43 1975.27C1813.19 1975.62 1812.86 1975.9 1812.47 1976.06C1812.08 1976.22 1811.65 1976.26 1811.23 1976.18C1810.82 1976.1 1810.43 1975.89 1810.14 1975.59C1809.84 1975.3 1809.63 1974.92 1809.55 1974.5C1809.47 1974.09 1809.51 1973.66 1809.67 1973.27C1809.83 1972.88 1810.11 1972.54 1810.46 1972.31C1810.81 1972.07 1811.22 1971.95 1811.65 1971.95C1811.93 1971.95 1812.21 1972 1812.47 1972.11C1812.73 1972.22 1812.96 1972.38 1813.16 1972.57C1813.36 1972.77 1813.52 1973.01 1813.62 1973.27C1813.73 1973.53 1813.79 1973.8 1813.79 1974.08Z" fill="#5B9E8B"/>
<path d="M1831.51 1888.86C1831.51 1889.28 1831.38 1889.69 1831.15 1890.05C1830.91 1890.4 1830.58 1890.67 1830.19 1890.83C1829.8 1890.99 1829.37 1891.04 1828.95 1890.95C1828.54 1890.87 1828.16 1890.67 1827.86 1890.37C1827.56 1890.07 1827.36 1889.69 1827.27 1889.28C1827.19 1888.86 1827.23 1888.43 1827.4 1888.04C1827.56 1887.65 1827.83 1887.32 1828.18 1887.08C1828.54 1886.85 1828.95 1886.72 1829.37 1886.72C1829.65 1886.72 1829.93 1886.77 1830.19 1886.88C1830.45 1886.99 1830.69 1887.15 1830.89 1887.34C1831.09 1887.54 1831.24 1887.78 1831.35 1888.04C1831.46 1888.3 1831.51 1888.58 1831.51 1888.86Z" fill="#393E46"/>
<path d="M1831.51 1905.91C1831.51 1906.33 1831.38 1906.74 1831.15 1907.09C1830.91 1907.44 1830.58 1907.72 1830.19 1907.88C1829.8 1908.04 1829.37 1908.08 1828.95 1908C1828.54 1907.92 1828.16 1907.72 1827.86 1907.42C1827.56 1907.12 1827.36 1906.74 1827.27 1906.32C1827.19 1905.91 1827.23 1905.48 1827.4 1905.09C1827.56 1904.7 1827.83 1904.37 1828.18 1904.13C1828.54 1903.9 1828.95 1903.77 1829.37 1903.77C1829.65 1903.77 1829.93 1903.82 1830.19 1903.93C1830.45 1904.04 1830.69 1904.19 1830.89 1904.39C1831.09 1904.59 1831.24 1904.83 1831.35 1905.09C1831.46 1905.35 1831.51 1905.63 1831.51 1905.91Z" fill="#393E46"/>
<path d="M1829.37 1925.09C1830.55 1925.09 1831.51 1924.13 1831.51 1922.95C1831.51 1921.77 1830.55 1920.82 1829.37 1920.82C1828.19 1920.82 1827.23 1921.77 1827.23 1922.95C1827.23 1924.13 1828.19 1925.09 1829.37 1925.09Z" fill="#393E46"/>
<path d="M1831.51 1939.98C1831.51 1940.4 1831.38 1940.81 1831.15 1941.16C1830.91 1941.51 1830.58 1941.79 1830.19 1941.95C1829.8 1942.11 1829.37 1942.15 1828.95 1942.07C1828.54 1941.99 1828.16 1941.78 1827.86 1941.49C1827.56 1941.19 1827.36 1940.81 1827.27 1940.39C1827.19 1939.98 1827.23 1939.55 1827.4 1939.16C1827.56 1938.77 1827.83 1938.43 1828.18 1938.2C1828.54 1937.96 1828.95 1937.84 1829.37 1937.84C1829.65 1937.84 1829.93 1937.89 1830.19 1938C1830.45 1938.11 1830.68 1938.27 1830.88 1938.47C1831.08 1938.66 1831.24 1938.9 1831.35 1939.16C1831.45 1939.42 1831.51 1939.7 1831.51 1939.98Z" fill="#5B9E8B"/>
<path d="M1829.37 1959.19C1830.55 1959.19 1831.51 1958.23 1831.51 1957.05C1831.51 1955.87 1830.55 1954.91 1829.37 1954.91C1828.19 1954.91 1827.23 1955.87 1827.23 1957.05C1827.23 1958.23 1828.19 1959.19 1829.37 1959.19Z" fill="#393E46"/>
<path d="M1831.51 1974.08C1831.51 1974.51 1831.38 1974.92 1831.15 1975.27C1830.91 1975.62 1830.58 1975.9 1830.19 1976.06C1829.8 1976.22 1829.37 1976.26 1828.95 1976.18C1828.54 1976.1 1828.16 1975.89 1827.86 1975.59C1827.56 1975.3 1827.36 1974.92 1827.27 1974.5C1827.19 1974.09 1827.23 1973.66 1827.4 1973.27C1827.56 1972.88 1827.83 1972.54 1828.18 1972.31C1828.54 1972.07 1828.95 1971.95 1829.37 1971.95C1829.65 1971.95 1829.93 1972 1830.19 1972.11C1830.45 1972.21 1830.69 1972.37 1830.89 1972.57C1831.09 1972.77 1831.24 1973.01 1831.35 1973.27C1831.46 1973.52 1831.51 1973.8 1831.51 1974.08Z" fill="#393E46"/>
<path d="M1849.25 1888.86C1849.25 1889.28 1849.12 1889.69 1848.89 1890.05C1848.65 1890.4 1848.32 1890.67 1847.93 1890.83C1847.54 1890.99 1847.11 1891.04 1846.69 1890.95C1846.28 1890.87 1845.9 1890.67 1845.6 1890.37C1845.3 1890.07 1845.09 1889.69 1845.01 1889.28C1844.93 1888.86 1844.97 1888.43 1845.13 1888.04C1845.3 1887.65 1845.57 1887.32 1845.92 1887.08C1846.27 1886.85 1846.69 1886.72 1847.11 1886.72C1847.68 1886.72 1848.22 1886.95 1848.62 1887.35C1849.02 1887.75 1849.25 1888.29 1849.25 1888.86Z" fill="#5B9E8B"/>
<path d="M1849.25 1905.91C1849.25 1906.33 1849.12 1906.74 1848.89 1907.09C1848.65 1907.44 1848.32 1907.72 1847.93 1907.88C1847.54 1908.04 1847.11 1908.08 1846.69 1908C1846.28 1907.92 1845.9 1907.72 1845.6 1907.42C1845.3 1907.12 1845.09 1906.74 1845.01 1906.32C1844.93 1905.91 1844.97 1905.48 1845.13 1905.09C1845.3 1904.7 1845.57 1904.37 1845.92 1904.13C1846.27 1903.9 1846.69 1903.77 1847.11 1903.77C1847.68 1903.77 1848.22 1904 1848.62 1904.4C1849.02 1904.8 1849.25 1905.34 1849.25 1905.91Z" fill="#5B9E8B"/>
<path d="M1849.25 1922.95C1849.25 1923.38 1849.12 1923.79 1848.89 1924.14C1848.65 1924.49 1848.32 1924.77 1847.93 1924.93C1847.54 1925.09 1847.11 1925.13 1846.69 1925.05C1846.28 1924.97 1845.9 1924.76 1845.6 1924.46C1845.3 1924.17 1845.09 1923.79 1845.01 1923.37C1844.93 1922.96 1844.97 1922.53 1845.13 1922.14C1845.3 1921.75 1845.57 1921.41 1845.92 1921.18C1846.27 1920.94 1846.69 1920.82 1847.11 1920.82C1847.67 1920.82 1848.22 1921.05 1848.62 1921.45C1849.02 1921.85 1849.24 1922.39 1849.25 1922.95Z" fill="#393E46"/>
<path d="M1849.25 1939.98C1849.25 1940.4 1849.12 1940.81 1848.89 1941.16C1848.65 1941.51 1848.32 1941.79 1847.93 1941.95C1847.54 1942.11 1847.11 1942.15 1846.69 1942.07C1846.28 1941.99 1845.9 1941.78 1845.6 1941.49C1845.3 1941.19 1845.09 1940.81 1845.01 1940.39C1844.93 1939.98 1844.97 1939.55 1845.13 1939.16C1845.3 1938.77 1845.57 1938.43 1845.92 1938.2C1846.27 1937.96 1846.69 1937.84 1847.11 1937.84C1847.67 1937.84 1848.22 1938.07 1848.62 1938.47C1849.02 1938.87 1849.24 1939.41 1849.25 1939.98Z" fill="#393E46"/>
<path d="M1849.25 1957.12C1849.25 1957.54 1849.12 1957.95 1848.89 1958.3C1848.65 1958.65 1848.32 1958.93 1847.93 1959.09C1847.54 1959.25 1847.11 1959.29 1846.69 1959.21C1846.28 1959.13 1845.9 1958.92 1845.6 1958.63C1845.3 1958.33 1845.09 1957.95 1845.01 1957.53C1844.93 1957.12 1844.97 1956.69 1845.13 1956.3C1845.3 1955.91 1845.57 1955.57 1845.92 1955.34C1846.27 1955.1 1846.69 1954.98 1847.11 1954.98C1847.68 1954.98 1848.22 1955.2 1848.62 1955.61C1849.02 1956.01 1849.25 1956.55 1849.25 1957.12Z" fill="#393E46"/>
<path d="M1849.25 1974.08C1849.25 1974.51 1849.12 1974.92 1848.89 1975.27C1848.65 1975.62 1848.32 1975.9 1847.93 1976.06C1847.54 1976.22 1847.11 1976.26 1846.69 1976.18C1846.28 1976.1 1845.9 1975.89 1845.6 1975.59C1845.3 1975.3 1845.09 1974.92 1845.01 1974.5C1844.93 1974.09 1844.97 1973.66 1845.13 1973.27C1845.3 1972.88 1845.57 1972.54 1845.92 1972.31C1846.27 1972.07 1846.69 1971.95 1847.11 1971.95C1847.68 1971.95 1848.22 1972.17 1848.62 1972.57C1849.02 1972.97 1849.25 1973.52 1849.25 1974.08Z" fill="#393E46"/>
<path d="M1667.23 2817.16C1667.65 2817.16 1668.06 2817.28 1668.41 2817.52C1668.76 2817.75 1669.04 2818.09 1669.2 2818.48C1669.36 2818.87 1669.4 2819.3 1669.32 2819.71C1669.24 2820.13 1669.03 2820.51 1668.74 2820.81C1668.44 2821.1 1668.06 2821.31 1667.64 2821.39C1667.23 2821.47 1666.8 2821.43 1666.41 2821.27C1666.02 2821.11 1665.68 2820.83 1665.45 2820.48C1665.22 2820.13 1665.09 2819.72 1665.09 2819.29C1665.09 2818.73 1665.31 2818.18 1665.72 2817.78C1666.12 2817.38 1666.66 2817.16 1667.23 2817.16Z" fill="#393E46"/>
<path d="M1684.27 2817.16C1684.7 2817.16 1685.11 2817.28 1685.46 2817.52C1685.81 2817.75 1686.09 2818.09 1686.25 2818.48C1686.41 2818.87 1686.45 2819.3 1686.37 2819.71C1686.29 2820.13 1686.08 2820.51 1685.78 2820.81C1685.49 2821.1 1685.1 2821.31 1684.69 2821.39C1684.28 2821.47 1683.85 2821.43 1683.46 2821.27C1683.07 2821.11 1682.73 2820.83 1682.5 2820.48C1682.26 2820.13 1682.14 2819.72 1682.14 2819.29C1682.14 2818.73 1682.36 2818.18 1682.76 2817.78C1683.16 2817.38 1683.71 2817.16 1684.27 2817.16Z" fill="#393E46"/>
<path d="M1703.46 2819.36C1703.46 2818.18 1702.5 2817.22 1701.32 2817.22C1700.14 2817.22 1699.19 2818.18 1699.19 2819.36C1699.19 2820.54 1700.14 2821.5 1701.32 2821.5C1702.5 2821.5 1703.46 2820.54 1703.46 2819.36Z" fill="#393E46"/>
<path d="M1718.34 2817.16C1718.77 2817.16 1719.18 2817.28 1719.53 2817.52C1719.88 2817.75 1720.15 2818.09 1720.32 2818.48C1720.48 2818.87 1720.52 2819.3 1720.44 2819.71C1720.36 2820.13 1720.15 2820.51 1719.85 2820.81C1719.55 2821.1 1719.17 2821.31 1718.76 2821.39C1718.35 2821.47 1717.92 2821.43 1717.53 2821.27C1717.14 2821.11 1716.8 2820.83 1716.57 2820.48C1716.33 2820.13 1716.21 2819.72 1716.21 2819.29C1716.21 2818.73 1716.44 2818.19 1716.84 2817.79C1717.24 2817.39 1717.78 2817.16 1718.34 2817.16Z" fill="#393E46"/>
<path d="M1737.55 2819.36C1737.55 2818.18 1736.6 2817.22 1735.42 2817.22C1734.24 2817.22 1733.28 2818.18 1733.28 2819.36C1733.28 2820.54 1734.24 2821.5 1735.42 2821.5C1736.6 2821.5 1737.55 2820.54 1737.55 2819.36Z" fill="#5B9E8B"/>
<path d="M1752.45 2817.16C1752.87 2817.16 1753.29 2817.28 1753.64 2817.52C1753.99 2817.75 1754.26 2818.09 1754.43 2818.48C1754.59 2818.87 1754.63 2819.3 1754.55 2819.71C1754.46 2820.13 1754.26 2820.51 1753.96 2820.81C1753.66 2821.1 1753.28 2821.31 1752.87 2821.39C1752.45 2821.47 1752.02 2821.43 1751.63 2821.27C1751.24 2821.11 1750.91 2820.83 1750.68 2820.48C1750.44 2820.13 1750.32 2819.72 1750.32 2819.29C1750.32 2818.73 1750.54 2818.18 1750.94 2817.78C1751.34 2817.38 1751.89 2817.16 1752.45 2817.16Z" fill="#393E46"/>
<path d="M1667.23 2799.5C1667.65 2799.5 1668.06 2799.62 1668.41 2799.86C1668.76 2800.09 1669.04 2800.43 1669.2 2800.82C1669.36 2801.21 1669.4 2801.64 1669.32 2802.05C1669.24 2802.47 1669.03 2802.85 1668.74 2803.15C1668.44 2803.45 1668.06 2803.65 1667.64 2803.73C1667.23 2803.82 1666.8 2803.77 1666.41 2803.61C1666.02 2803.45 1665.68 2803.18 1665.45 2802.82C1665.22 2802.47 1665.09 2802.06 1665.09 2801.64C1665.09 2801.35 1665.14 2801.08 1665.25 2800.82C1665.36 2800.56 1665.51 2800.32 1665.71 2800.12C1665.91 2799.92 1666.15 2799.76 1666.41 2799.66C1666.67 2799.55 1666.94 2799.5 1667.23 2799.5Z" fill="#393E46"/>
<path d="M1684.27 2799.5C1684.7 2799.5 1685.11 2799.62 1685.46 2799.86C1685.81 2800.09 1686.09 2800.43 1686.25 2800.82C1686.41 2801.21 1686.45 2801.64 1686.37 2802.05C1686.29 2802.47 1686.08 2802.85 1685.78 2803.15C1685.49 2803.45 1685.1 2803.65 1684.69 2803.73C1684.28 2803.82 1683.85 2803.77 1683.46 2803.61C1683.07 2803.45 1682.73 2803.18 1682.5 2802.82C1682.26 2802.47 1682.14 2802.06 1682.14 2801.64C1682.14 2801.35 1682.19 2801.08 1682.3 2800.82C1682.4 2800.56 1682.56 2800.32 1682.76 2800.12C1682.96 2799.92 1683.19 2799.76 1683.45 2799.66C1683.71 2799.55 1683.99 2799.5 1684.27 2799.5Z" fill="#393E46"/>
<path d="M1703.46 2801.64C1703.46 2800.46 1702.5 2799.5 1701.32 2799.5C1700.14 2799.5 1699.19 2800.46 1699.19 2801.64C1699.19 2802.82 1700.14 2803.77 1701.32 2803.77C1702.5 2803.77 1703.46 2802.82 1703.46 2801.64Z" fill="#5B9E8B"/>
<path d="M1718.34 2799.5C1718.77 2799.5 1719.18 2799.62 1719.53 2799.86C1719.88 2800.09 1720.15 2800.43 1720.32 2800.82C1720.48 2801.21 1720.52 2801.64 1720.44 2802.05C1720.36 2802.47 1720.15 2802.85 1719.85 2803.15C1719.55 2803.45 1719.17 2803.65 1718.76 2803.73C1718.35 2803.82 1717.92 2803.77 1717.53 2803.61C1717.14 2803.45 1716.8 2803.18 1716.57 2802.82C1716.33 2802.47 1716.21 2802.06 1716.21 2801.64C1716.21 2801.07 1716.43 2800.52 1716.83 2800.12C1717.23 2799.72 1717.78 2799.5 1718.34 2799.5Z" fill="#5B9E8B"/>
<path d="M1737.55 2801.64C1737.55 2800.46 1736.6 2799.5 1735.42 2799.5C1734.24 2799.5 1733.28 2800.46 1733.28 2801.64C1733.28 2802.82 1734.24 2803.77 1735.42 2803.77C1736.6 2803.77 1737.55 2802.82 1737.55 2801.64Z" fill="#5B9E8B"/>
<path d="M1752.45 2799.5C1752.87 2799.5 1753.29 2799.62 1753.64 2799.86C1753.99 2800.09 1754.26 2800.43 1754.43 2800.82C1754.59 2801.21 1754.63 2801.64 1754.55 2802.05C1754.46 2802.47 1754.26 2802.85 1753.96 2803.15C1753.66 2803.45 1753.28 2803.65 1752.87 2803.73C1752.45 2803.82 1752.02 2803.77 1751.63 2803.61C1751.24 2803.45 1750.91 2803.18 1750.68 2802.82C1750.44 2802.47 1750.32 2802.06 1750.32 2801.64C1750.31 2801.35 1750.37 2801.08 1750.47 2800.82C1750.58 2800.56 1750.74 2800.32 1750.94 2800.12C1751.14 2799.92 1751.37 2799.76 1751.63 2799.66C1751.89 2799.55 1752.17 2799.5 1752.45 2799.5Z" fill="#393E46"/>
<path d="M1667.23 2781.76C1667.65 2781.76 1668.06 2781.89 1668.41 2782.12C1668.76 2782.36 1669.04 2782.69 1669.2 2783.08C1669.36 2783.47 1669.4 2783.9 1669.32 2784.32C1669.24 2784.73 1669.03 2785.11 1668.74 2785.41C1668.44 2785.71 1668.06 2785.91 1667.64 2786C1667.23 2786.08 1666.8 2786.04 1666.41 2785.87C1666.02 2785.71 1665.68 2785.44 1665.45 2785.09C1665.22 2784.74 1665.09 2784.32 1665.09 2783.9C1665.09 2783.33 1665.31 2782.79 1665.72 2782.39C1666.12 2781.99 1666.66 2781.76 1667.23 2781.76Z" fill="#393E46"/>
<path d="M1684.27 2781.76C1684.7 2781.76 1685.11 2781.89 1685.46 2782.12C1685.81 2782.36 1686.09 2782.69 1686.25 2783.08C1686.41 2783.47 1686.45 2783.9 1686.37 2784.32C1686.29 2784.73 1686.08 2785.11 1685.78 2785.41C1685.49 2785.71 1685.1 2785.91 1684.69 2786C1684.28 2786.08 1683.85 2786.04 1683.46 2785.87C1683.07 2785.71 1682.73 2785.44 1682.5 2785.09C1682.26 2784.74 1682.14 2784.32 1682.14 2783.9C1682.14 2783.33 1682.36 2782.79 1682.76 2782.39C1683.16 2781.99 1683.71 2781.76 1684.27 2781.76Z" fill="#393E46"/>
<path d="M1701.32 2781.76C1701.74 2781.76 1702.16 2781.89 1702.51 2782.12C1702.86 2782.36 1703.13 2782.69 1703.29 2783.08C1703.46 2783.47 1703.5 2783.9 1703.42 2784.32C1703.33 2784.73 1703.13 2785.11 1702.83 2785.41C1702.53 2785.71 1702.15 2785.91 1701.74 2786C1701.32 2786.08 1700.89 2786.04 1700.5 2785.87C1700.11 2785.71 1699.78 2785.44 1699.55 2785.09C1699.31 2784.74 1699.19 2784.32 1699.19 2783.9C1699.19 2783.33 1699.42 2782.79 1699.81 2782.39C1700.21 2781.99 1700.76 2781.76 1701.32 2781.76Z" fill="#393E46"/>
<path d="M1718.34 2781.76C1718.77 2781.76 1719.18 2781.89 1719.53 2782.12C1719.88 2782.36 1720.15 2782.69 1720.32 2783.08C1720.48 2783.47 1720.52 2783.9 1720.44 2784.32C1720.36 2784.73 1720.15 2785.11 1719.85 2785.41C1719.55 2785.71 1719.17 2785.91 1718.76 2786C1718.35 2786.08 1717.92 2786.04 1717.53 2785.87C1717.14 2785.71 1716.8 2785.44 1716.57 2785.09C1716.33 2784.74 1716.21 2784.32 1716.21 2783.9C1716.21 2783.33 1716.44 2782.79 1716.84 2782.39C1717.24 2781.99 1717.78 2781.76 1718.34 2781.76Z" fill="#5B9E8B"/>
<path d="M1735.48 2781.76C1735.91 2781.76 1736.32 2781.89 1736.67 2782.12C1737.02 2782.36 1737.29 2782.69 1737.46 2783.08C1737.62 2783.47 1737.66 2783.9 1737.58 2784.32C1737.5 2784.73 1737.29 2785.11 1736.99 2785.41C1736.69 2785.71 1736.31 2785.91 1735.9 2786C1735.49 2786.08 1735.06 2786.04 1734.67 2785.87C1734.28 2785.71 1733.94 2785.44 1733.71 2785.09C1733.47 2784.74 1733.35 2784.32 1733.35 2783.9C1733.35 2783.33 1733.57 2782.79 1733.97 2782.39C1734.37 2781.99 1734.92 2781.76 1735.48 2781.76Z" fill="#393E46"/>
<path d="M1752.45 2781.76C1752.87 2781.76 1753.29 2781.89 1753.64 2782.12C1753.99 2782.36 1754.26 2782.69 1754.43 2783.08C1754.59 2783.47 1754.63 2783.9 1754.55 2784.32C1754.46 2784.73 1754.26 2785.11 1753.96 2785.41C1753.66 2785.71 1753.28 2785.91 1752.87 2786C1752.45 2786.08 1752.02 2786.04 1751.63 2785.87C1751.24 2785.71 1750.91 2785.44 1750.68 2785.09C1750.44 2784.74 1750.32 2784.32 1750.32 2783.9C1750.32 2783.33 1750.54 2782.79 1750.94 2782.39C1751.34 2781.99 1751.89 2781.76 1752.45 2781.76Z" fill="#393E46"/>
<path d="M1667.23 2764.04C1667.65 2764.04 1668.06 2764.16 1668.41 2764.4C1668.77 2764.63 1669.04 2764.97 1669.2 2765.36C1669.36 2765.75 1669.4 2766.18 1669.32 2766.6C1669.24 2767.01 1669.03 2767.39 1668.73 2767.69C1668.43 2767.99 1668.05 2768.19 1667.63 2768.27C1667.22 2768.35 1666.79 2768.31 1666.4 2768.15C1666.01 2767.98 1665.68 2767.71 1665.44 2767.35C1665.21 2767 1665.09 2766.59 1665.09 2766.16C1665.09 2765.88 1665.15 2765.6 1665.25 2765.35C1665.36 2765.09 1665.52 2764.85 1665.72 2764.66C1665.91 2764.46 1666.15 2764.3 1666.41 2764.2C1666.67 2764.09 1666.95 2764.04 1667.23 2764.04Z" fill="#393E46"/>
<path d="M1684.27 2764.04C1684.7 2764.04 1685.11 2764.16 1685.46 2764.4C1685.81 2764.63 1686.09 2764.97 1686.25 2765.36C1686.41 2765.75 1686.45 2766.18 1686.37 2766.6C1686.28 2767.01 1686.08 2767.39 1685.78 2767.69C1685.48 2767.99 1685.1 2768.19 1684.68 2768.27C1684.27 2768.35 1683.84 2768.31 1683.45 2768.15C1683.06 2767.98 1682.72 2767.71 1682.49 2767.35C1682.26 2767 1682.14 2766.59 1682.14 2766.16C1682.14 2765.88 1682.19 2765.6 1682.3 2765.35C1682.41 2765.09 1682.57 2764.85 1682.76 2764.66C1682.96 2764.46 1683.2 2764.3 1683.46 2764.2C1683.72 2764.09 1683.99 2764.04 1684.27 2764.04Z" fill="#393E46"/>
<path d="M1701.32 2764.04C1701.74 2764.04 1702.16 2764.16 1702.51 2764.4C1702.86 2764.63 1703.13 2764.97 1703.3 2765.36C1703.46 2765.75 1703.5 2766.18 1703.42 2766.6C1703.33 2767.01 1703.13 2767.39 1702.83 2767.69C1702.53 2767.99 1702.15 2768.19 1701.73 2768.27C1701.31 2768.35 1700.89 2768.31 1700.49 2768.15C1700.1 2767.98 1699.77 2767.71 1699.54 2767.35C1699.31 2767 1699.18 2766.59 1699.19 2766.16C1699.19 2765.6 1699.42 2765.06 1699.82 2764.66C1700.22 2764.26 1700.76 2764.04 1701.32 2764.04Z" fill="#393E46"/>
<path d="M1718.34 2764.04C1718.77 2764.04 1719.18 2764.16 1719.53 2764.4C1719.88 2764.63 1720.16 2764.97 1720.32 2765.36C1720.48 2765.75 1720.52 2766.18 1720.44 2766.6C1720.35 2767.01 1720.15 2767.39 1719.85 2767.69C1719.55 2767.99 1719.17 2768.19 1718.75 2768.27C1718.34 2768.35 1717.91 2768.31 1717.52 2768.15C1717.13 2767.98 1716.79 2767.71 1716.56 2767.35C1716.33 2767 1716.2 2766.59 1716.21 2766.16C1716.21 2765.6 1716.44 2765.06 1716.84 2764.66C1717.24 2764.26 1717.78 2764.04 1718.34 2764.04Z" fill="#5B9E8B"/>
<path d="M1735.48 2764.04C1735.91 2764.04 1736.32 2764.16 1736.67 2764.4C1737.02 2764.63 1737.3 2764.97 1737.46 2765.36C1737.62 2765.75 1737.66 2766.18 1737.58 2766.6C1737.49 2767.01 1737.29 2767.39 1736.99 2767.69C1736.69 2767.99 1736.31 2768.19 1735.89 2768.27C1735.48 2768.35 1735.05 2768.31 1734.66 2768.15C1734.27 2767.98 1733.93 2767.71 1733.7 2767.35C1733.47 2767 1733.34 2766.59 1733.35 2766.16C1733.35 2765.88 1733.4 2765.6 1733.51 2765.35C1733.62 2765.09 1733.78 2764.85 1733.97 2764.66C1734.17 2764.46 1734.41 2764.3 1734.67 2764.2C1734.93 2764.09 1735.2 2764.04 1735.48 2764.04Z" fill="#5B9E8B"/>
<path d="M1752.45 2764.04C1752.87 2764.04 1753.29 2764.16 1753.64 2764.4C1753.99 2764.63 1754.27 2764.97 1754.43 2765.36C1754.59 2765.75 1754.63 2766.18 1754.55 2766.6C1754.46 2767.01 1754.26 2767.39 1753.96 2767.69C1753.66 2767.99 1753.28 2768.19 1752.86 2768.27C1752.45 2768.35 1752.02 2768.31 1751.63 2768.15C1751.24 2767.98 1750.9 2767.71 1750.67 2767.35C1750.44 2767 1750.31 2766.59 1750.32 2766.16C1750.32 2765.88 1750.37 2765.6 1750.48 2765.35C1750.59 2765.09 1750.74 2764.85 1750.94 2764.66C1751.14 2764.46 1751.38 2764.3 1751.64 2764.2C1751.89 2764.09 1752.17 2764.04 1752.45 2764.04Z" fill="#393E46"/>
<path d="M1667.23 2746.3C1667.65 2746.3 1668.06 2746.43 1668.41 2746.66C1668.76 2746.9 1669.04 2747.23 1669.2 2747.62C1669.36 2748.01 1669.4 2748.44 1669.32 2748.86C1669.24 2749.27 1669.03 2749.65 1668.74 2749.95C1668.44 2750.25 1668.06 2750.45 1667.64 2750.54C1667.23 2750.62 1666.8 2750.58 1666.41 2750.41C1666.02 2750.25 1665.68 2749.98 1665.45 2749.63C1665.22 2749.27 1665.09 2748.86 1665.09 2748.44C1665.09 2748.16 1665.14 2747.88 1665.25 2747.62C1665.36 2747.36 1665.51 2747.12 1665.71 2746.92C1665.91 2746.72 1666.15 2746.57 1666.41 2746.46C1666.67 2746.35 1666.94 2746.3 1667.23 2746.3Z" fill="#5B9E8B"/>
<path d="M1684.27 2746.3C1684.7 2746.3 1685.11 2746.43 1685.46 2746.66C1685.81 2746.9 1686.09 2747.23 1686.25 2747.62C1686.41 2748.01 1686.45 2748.44 1686.37 2748.86C1686.29 2749.27 1686.08 2749.65 1685.78 2749.95C1685.49 2750.25 1685.1 2750.45 1684.69 2750.54C1684.28 2750.62 1683.85 2750.58 1683.46 2750.41C1683.07 2750.25 1682.73 2749.98 1682.5 2749.63C1682.26 2749.27 1682.14 2748.86 1682.14 2748.44C1682.14 2748.16 1682.19 2747.88 1682.3 2747.62C1682.4 2747.36 1682.56 2747.12 1682.76 2746.92C1682.96 2746.72 1683.19 2746.57 1683.45 2746.46C1683.71 2746.35 1683.99 2746.3 1684.27 2746.3Z" fill="#5B9E8B"/>
<path d="M1703.46 2748.44C1703.46 2747.26 1702.5 2746.3 1701.32 2746.3C1700.14 2746.3 1699.19 2747.26 1699.19 2748.44C1699.19 2749.62 1700.14 2750.58 1701.32 2750.58C1702.5 2750.58 1703.46 2749.62 1703.46 2748.44Z" fill="#393E46"/>
<path d="M1718.34 2746.3C1718.77 2746.3 1719.18 2746.43 1719.53 2746.66C1719.88 2746.9 1720.15 2747.23 1720.32 2747.62C1720.48 2748.01 1720.52 2748.44 1720.44 2748.86C1720.36 2749.27 1720.15 2749.65 1719.85 2749.95C1719.55 2750.25 1719.17 2750.45 1718.76 2750.54C1718.35 2750.62 1717.92 2750.58 1717.53 2750.41C1717.14 2750.25 1716.8 2749.98 1716.57 2749.63C1716.33 2749.27 1716.21 2748.86 1716.21 2748.44C1716.21 2747.87 1716.43 2747.33 1716.83 2746.93C1717.23 2746.53 1717.78 2746.3 1718.34 2746.3Z" fill="#393E46"/>
<path d="M1737.55 2748.44C1737.55 2747.26 1736.6 2746.3 1735.42 2746.3C1734.24 2746.3 1733.28 2747.26 1733.28 2748.44C1733.28 2749.62 1734.24 2750.58 1735.42 2750.58C1736.6 2750.58 1737.55 2749.62 1737.55 2748.44Z" fill="#393E46"/>
<path d="M1752.45 2746.3C1752.87 2746.3 1753.29 2746.43 1753.64 2746.66C1753.99 2746.9 1754.26 2747.23 1754.43 2747.62C1754.59 2748.01 1754.63 2748.44 1754.55 2748.86C1754.46 2749.27 1754.26 2749.65 1753.96 2749.95C1753.66 2750.25 1753.28 2750.45 1752.87 2750.54C1752.45 2750.62 1752.02 2750.58 1751.63 2750.41C1751.24 2750.25 1750.91 2749.98 1750.68 2749.63C1750.44 2749.27 1750.32 2748.86 1750.32 2748.44C1750.31 2748.16 1750.37 2747.88 1750.47 2747.62C1750.58 2747.36 1750.74 2747.12 1750.94 2746.92C1751.14 2746.72 1751.37 2746.57 1751.63 2746.46C1751.89 2746.35 1752.17 2746.3 1752.45 2746.3Z" fill="#393E46"/>
<path d="M1667.23 2728.56C1667.65 2728.56 1668.06 2728.69 1668.41 2728.92C1668.76 2729.16 1669.04 2729.49 1669.2 2729.88C1669.36 2730.27 1669.4 2730.7 1669.32 2731.12C1669.24 2731.53 1669.03 2731.91 1668.74 2732.21C1668.44 2732.51 1668.06 2732.72 1667.64 2732.8C1667.23 2732.88 1666.8 2732.84 1666.41 2732.68C1666.02 2732.51 1665.68 2732.24 1665.45 2731.89C1665.22 2731.54 1665.09 2731.12 1665.09 2730.7C1665.09 2730.42 1665.15 2730.14 1665.25 2729.88C1665.36 2729.62 1665.52 2729.39 1665.72 2729.19C1665.91 2728.99 1666.15 2728.83 1666.41 2728.73C1666.67 2728.62 1666.95 2728.56 1667.23 2728.56Z" fill="#393E46"/>
<path d="M1684.27 2728.56C1684.7 2728.56 1685.11 2728.69 1685.46 2728.92C1685.81 2729.16 1686.09 2729.49 1686.25 2729.88C1686.41 2730.27 1686.45 2730.7 1686.37 2731.12C1686.29 2731.53 1686.08 2731.91 1685.78 2732.21C1685.49 2732.51 1685.1 2732.72 1684.69 2732.8C1684.28 2732.88 1683.85 2732.84 1683.46 2732.68C1683.07 2732.51 1682.73 2732.24 1682.5 2731.89C1682.26 2731.54 1682.14 2731.12 1682.14 2730.7C1682.14 2730.42 1682.19 2730.14 1682.3 2729.88C1682.41 2729.62 1682.56 2729.39 1682.76 2729.19C1682.96 2728.99 1683.2 2728.83 1683.46 2728.73C1683.72 2728.62 1683.99 2728.56 1684.27 2728.56Z" fill="#393E46"/>
<path d="M1703.46 2730.7C1703.46 2729.52 1702.5 2728.56 1701.32 2728.56C1700.14 2728.56 1699.19 2729.52 1699.19 2730.7C1699.19 2731.88 1700.14 2732.84 1701.32 2732.84C1702.5 2732.84 1703.46 2731.88 1703.46 2730.7Z" fill="#393E46"/>
<path d="M1718.34 2728.56C1718.77 2728.56 1719.18 2728.69 1719.53 2728.92C1719.88 2729.16 1720.15 2729.49 1720.32 2729.88C1720.48 2730.27 1720.52 2730.7 1720.44 2731.12C1720.36 2731.53 1720.15 2731.91 1719.85 2732.21C1719.55 2732.51 1719.17 2732.72 1718.76 2732.8C1718.35 2732.88 1717.92 2732.84 1717.53 2732.68C1717.14 2732.51 1716.8 2732.24 1716.57 2731.89C1716.33 2731.54 1716.21 2731.12 1716.21 2730.7C1716.21 2730.14 1716.44 2729.59 1716.84 2729.19C1717.24 2728.79 1717.78 2728.57 1718.34 2728.56Z" fill="#5B9E8B"/>
<path d="M1737.55 2730.7C1737.55 2729.52 1736.6 2728.56 1735.42 2728.56C1734.24 2728.56 1733.28 2729.52 1733.28 2730.7C1733.28 2731.88 1734.24 2732.84 1735.42 2732.84C1736.6 2732.84 1737.55 2731.88 1737.55 2730.7Z" fill="#5B9E8B"/>
<path d="M1752.45 2728.56C1752.87 2728.56 1753.29 2728.69 1753.64 2728.92C1753.99 2729.16 1754.26 2729.49 1754.43 2729.88C1754.59 2730.27 1754.63 2730.7 1754.55 2731.12C1754.46 2731.53 1754.26 2731.91 1753.96 2732.21C1753.66 2732.51 1753.28 2732.72 1752.87 2732.8C1752.45 2732.88 1752.02 2732.84 1751.63 2732.68C1751.24 2732.51 1750.91 2732.24 1750.68 2731.89C1750.44 2731.54 1750.32 2731.12 1750.32 2730.7C1750.32 2730.42 1750.37 2730.14 1750.48 2729.88C1750.59 2729.62 1750.74 2729.39 1750.94 2729.19C1751.14 2728.99 1751.38 2728.83 1751.63 2728.73C1751.89 2728.62 1752.17 2728.56 1752.45 2728.56Z" fill="#5B9E8B"/>
<path d="M1667.23 2710.84C1667.65 2710.84 1668.06 2710.97 1668.41 2711.2C1668.76 2711.44 1669.04 2711.77 1669.2 2712.16C1669.36 2712.55 1669.4 2712.98 1669.32 2713.4C1669.24 2713.81 1669.03 2714.19 1668.74 2714.49C1668.44 2714.79 1668.06 2714.99 1667.64 2715.07C1667.23 2715.16 1666.8 2715.12 1666.41 2714.95C1666.02 2714.79 1665.68 2714.52 1665.45 2714.17C1665.22 2713.81 1665.09 2713.4 1665.09 2712.98C1665.09 2712.7 1665.14 2712.42 1665.25 2712.16C1665.36 2711.9 1665.51 2711.66 1665.71 2711.46C1665.91 2711.26 1666.15 2711.11 1666.41 2711C1666.67 2710.89 1666.94 2710.84 1667.23 2710.84Z" fill="#393E46"/>
<path d="M1684.27 2710.84C1684.7 2710.84 1685.11 2710.97 1685.46 2711.2C1685.81 2711.44 1686.09 2711.77 1686.25 2712.16C1686.41 2712.55 1686.45 2712.98 1686.37 2713.4C1686.29 2713.81 1686.08 2714.19 1685.78 2714.49C1685.49 2714.79 1685.1 2714.99 1684.69 2715.07C1684.28 2715.16 1683.85 2715.12 1683.46 2714.95C1683.07 2714.79 1682.73 2714.52 1682.5 2714.17C1682.26 2713.81 1682.14 2713.4 1682.14 2712.98C1682.14 2712.7 1682.19 2712.42 1682.3 2712.16C1682.4 2711.9 1682.56 2711.66 1682.76 2711.46C1682.96 2711.26 1683.19 2711.11 1683.45 2711C1683.71 2710.89 1683.99 2710.84 1684.27 2710.84Z" fill="#393E46"/>
<path d="M1703.46 2712.98C1703.46 2711.8 1702.5 2710.84 1701.32 2710.84C1700.14 2710.84 1699.19 2711.8 1699.19 2712.98C1699.19 2714.16 1700.14 2715.12 1701.32 2715.12C1702.5 2715.12 1703.46 2714.16 1703.46 2712.98Z" fill="#393E46"/>
<path d="M1718.34 2710.84C1718.77 2710.84 1719.18 2710.97 1719.53 2711.2C1719.88 2711.44 1720.15 2711.77 1720.32 2712.16C1720.48 2712.55 1720.52 2712.98 1720.44 2713.4C1720.36 2713.81 1720.15 2714.19 1719.85 2714.49C1719.55 2714.79 1719.17 2714.99 1718.76 2715.07C1718.35 2715.16 1717.92 2715.12 1717.53 2714.95C1717.14 2714.79 1716.8 2714.52 1716.57 2714.17C1716.33 2713.81 1716.21 2713.4 1716.21 2712.98C1716.21 2712.7 1716.26 2712.42 1716.37 2712.16C1716.48 2711.9 1716.63 2711.66 1716.83 2711.47C1717.03 2711.27 1717.27 2711.11 1717.53 2711C1717.78 2710.9 1718.06 2710.84 1718.34 2710.84Z" fill="#5B9E8B"/>
<path d="M1737.55 2712.98C1737.55 2711.8 1736.6 2710.84 1735.42 2710.84C1734.24 2710.84 1733.28 2711.8 1733.28 2712.98C1733.28 2714.16 1734.24 2715.12 1735.42 2715.12C1736.6 2715.12 1737.55 2714.16 1737.55 2712.98Z" fill="#393E46"/>
<path d="M1752.45 2710.84C1752.87 2710.84 1753.29 2710.97 1753.64 2711.2C1753.99 2711.44 1754.26 2711.77 1754.43 2712.16C1754.59 2712.55 1754.63 2712.98 1754.55 2713.4C1754.46 2713.81 1754.26 2714.19 1753.96 2714.49C1753.66 2714.79 1753.28 2714.99 1752.87 2715.07C1752.45 2715.16 1752.02 2715.12 1751.63 2714.95C1751.24 2714.79 1750.91 2714.52 1750.68 2714.17C1750.44 2713.81 1750.32 2713.4 1750.32 2712.98C1750.31 2712.7 1750.37 2712.42 1750.47 2712.16C1750.58 2711.9 1750.74 2711.66 1750.94 2711.46C1751.14 2711.26 1751.37 2711.11 1751.63 2711C1751.89 2710.89 1752.17 2710.84 1752.45 2710.84Z" fill="#393E46"/>
<path d="M1667.23 2693.1C1667.65 2693.1 1668.06 2693.23 1668.41 2693.46C1668.76 2693.7 1669.04 2694.03 1669.2 2694.42C1669.36 2694.81 1669.4 2695.24 1669.32 2695.66C1669.24 2696.07 1669.03 2696.45 1668.74 2696.75C1668.44 2697.05 1668.06 2697.26 1667.64 2697.34C1667.23 2697.42 1666.8 2697.38 1666.41 2697.22C1666.02 2697.05 1665.68 2696.78 1665.45 2696.43C1665.22 2696.08 1665.09 2695.66 1665.09 2695.24C1665.09 2694.67 1665.31 2694.13 1665.72 2693.73C1666.12 2693.33 1666.66 2693.1 1667.23 2693.1Z" fill="#5B9E8B"/>
<path d="M1684.27 2693.1C1684.7 2693.1 1685.11 2693.23 1685.46 2693.46C1685.81 2693.7 1686.09 2694.03 1686.25 2694.42C1686.41 2694.81 1686.45 2695.24 1686.37 2695.66C1686.29 2696.07 1686.08 2696.45 1685.78 2696.75C1685.49 2697.05 1685.1 2697.26 1684.69 2697.34C1684.28 2697.42 1683.85 2697.38 1683.46 2697.22C1683.07 2697.05 1682.73 2696.78 1682.5 2696.43C1682.26 2696.08 1682.14 2695.66 1682.14 2695.24C1682.14 2694.67 1682.36 2694.13 1682.76 2693.73C1683.16 2693.33 1683.71 2693.1 1684.27 2693.1Z" fill="#5B9E8B"/>
<path d="M1701.32 2693.1C1701.74 2693.1 1702.16 2693.23 1702.51 2693.46C1702.86 2693.7 1703.13 2694.03 1703.29 2694.42C1703.46 2694.81 1703.5 2695.24 1703.42 2695.66C1703.33 2696.07 1703.13 2696.45 1702.83 2696.75C1702.53 2697.05 1702.15 2697.26 1701.74 2697.34C1701.32 2697.42 1700.89 2697.38 1700.5 2697.22C1700.11 2697.05 1699.78 2696.78 1699.55 2696.43C1699.31 2696.08 1699.19 2695.66 1699.19 2695.24C1699.19 2694.68 1699.42 2694.13 1699.81 2693.73C1700.21 2693.33 1700.76 2693.11 1701.32 2693.1Z" fill="#393E46"/>
<path d="M1718.34 2693.1C1718.77 2693.1 1719.18 2693.23 1719.53 2693.46C1719.88 2693.7 1720.15 2694.03 1720.32 2694.42C1720.48 2694.81 1720.52 2695.24 1720.44 2695.66C1720.36 2696.07 1720.15 2696.45 1719.85 2696.75C1719.55 2697.05 1719.17 2697.26 1718.76 2697.34C1718.35 2697.42 1717.92 2697.38 1717.53 2697.22C1717.14 2697.05 1716.8 2696.78 1716.57 2696.43C1716.33 2696.08 1716.21 2695.66 1716.21 2695.24C1716.21 2694.68 1716.44 2694.13 1716.84 2693.73C1717.24 2693.33 1717.78 2693.11 1718.34 2693.1Z" fill="#393E46"/>
<path d="M1735.48 2693.1C1735.91 2693.1 1736.32 2693.23 1736.67 2693.46C1737.02 2693.7 1737.29 2694.03 1737.46 2694.42C1737.62 2694.81 1737.66 2695.24 1737.58 2695.66C1737.5 2696.07 1737.29 2696.45 1736.99 2696.75C1736.69 2697.05 1736.31 2697.26 1735.9 2697.34C1735.49 2697.42 1735.06 2697.38 1734.67 2697.22C1734.28 2697.05 1733.94 2696.78 1733.71 2696.43C1733.47 2696.08 1733.35 2695.66 1733.35 2695.24C1733.35 2694.67 1733.57 2694.13 1733.97 2693.73C1734.37 2693.33 1734.92 2693.1 1735.48 2693.1Z" fill="#393E46"/>
<path d="M1752.45 2693.1C1752.87 2693.1 1753.29 2693.23 1753.64 2693.46C1753.99 2693.7 1754.26 2694.03 1754.43 2694.42C1754.59 2694.81 1754.63 2695.24 1754.55 2695.66C1754.46 2696.07 1754.26 2696.45 1753.96 2696.75C1753.66 2697.05 1753.28 2697.26 1752.87 2697.34C1752.45 2697.42 1752.02 2697.38 1751.63 2697.22C1751.24 2697.05 1750.91 2696.78 1750.68 2696.43C1750.44 2696.08 1750.32 2695.66 1750.32 2695.24C1750.32 2694.67 1750.54 2694.13 1750.94 2693.73C1751.34 2693.33 1751.89 2693.1 1752.45 2693.1Z" fill="#393E46"/>
<path d="M194.397 2057.12C193.962 2057.12 193.537 2056.99 193.176 2056.75C192.815 2056.51 192.533 2056.17 192.367 2055.77C192.201 2055.37 192.157 2054.92 192.242 2054.5C192.327 2054.07 192.536 2053.68 192.843 2053.38C193.15 2053.07 193.542 2052.86 193.968 2052.77C194.394 2052.69 194.836 2052.73 195.237 2052.9C195.639 2053.07 195.982 2053.35 196.223 2053.71C196.464 2054.07 196.593 2054.49 196.593 2054.93C196.593 2055.51 196.362 2056.07 195.95 2056.48C195.538 2056.89 194.979 2057.12 194.397 2057.12Z" fill="#393E46"/>
<path d="M176.863 2057.12C176.428 2057.12 176.004 2056.99 175.642 2056.75C175.281 2056.51 175 2056.17 174.833 2055.77C174.667 2055.37 174.623 2054.92 174.708 2054.5C174.793 2054.07 175.002 2053.68 175.309 2053.38C175.617 2053.07 176.008 2052.86 176.434 2052.77C176.86 2052.69 177.302 2052.73 177.704 2052.9C178.105 2053.07 178.448 2053.35 178.689 2053.71C178.931 2054.07 179.06 2054.49 179.06 2054.93C179.06 2055.51 178.828 2056.07 178.416 2056.48C178.004 2056.89 177.445 2057.12 176.863 2057.12Z" fill="#393E46"/>
<path d="M159.329 2057.12C158.894 2057.12 158.469 2056.99 158.108 2056.75C157.747 2056.51 157.465 2056.17 157.299 2055.77C157.133 2055.37 157.089 2054.92 157.174 2054.5C157.259 2054.07 157.468 2053.68 157.775 2053.38C158.083 2053.07 158.474 2052.86 158.9 2052.77C159.326 2052.69 159.768 2052.73 160.169 2052.9C160.571 2053.07 160.914 2053.35 161.155 2053.71C161.397 2054.07 161.525 2054.49 161.525 2054.93C161.522 2055.51 161.289 2056.06 160.878 2056.48C160.467 2056.89 159.91 2057.12 159.329 2057.12Z" fill="#5B9E8B"/>
<path d="M141.795 2057.12C141.36 2057.12 140.936 2056.99 140.574 2056.75C140.213 2056.51 139.932 2056.17 139.765 2055.77C139.599 2055.37 139.556 2054.92 139.64 2054.5C139.725 2054.07 139.934 2053.68 140.242 2053.38C140.549 2053.07 140.94 2052.86 141.366 2052.77C141.793 2052.69 142.234 2052.73 142.636 2052.9C143.037 2053.07 143.38 2053.35 143.622 2053.71C143.863 2054.07 143.992 2054.49 143.992 2054.93C143.988 2055.51 143.756 2056.06 143.344 2056.48C142.933 2056.89 142.377 2057.12 141.795 2057.12Z" fill="#393E46"/>
<path d="M194.397 2075.32C195.61 2075.32 196.593 2074.33 196.593 2073.12C196.593 2071.91 195.61 2070.93 194.397 2070.93C193.183 2070.93 192.2 2071.91 192.2 2073.12C192.2 2074.33 193.183 2075.32 194.397 2075.32Z" fill="#5B9E8B"/>
<path d="M176.863 2075.32C178.076 2075.32 179.06 2074.33 179.06 2073.12C179.06 2071.91 178.076 2070.93 176.863 2070.93C175.65 2070.93 174.666 2071.91 174.666 2073.12C174.666 2074.33 175.65 2075.32 176.863 2075.32Z" fill="#5B9E8B"/>
<path d="M159.329 2075.32C158.894 2075.32 158.469 2075.19 158.108 2074.95C157.747 2074.71 157.465 2074.36 157.299 2073.96C157.133 2073.56 157.089 2073.12 157.174 2072.69C157.259 2072.27 157.468 2071.88 157.775 2071.57C158.083 2071.26 158.474 2071.05 158.9 2070.97C159.326 2070.88 159.768 2070.93 160.169 2071.09C160.571 2071.26 160.914 2071.54 161.155 2071.9C161.397 2072.26 161.525 2072.69 161.525 2073.12C161.525 2073.7 161.294 2074.26 160.882 2074.67C160.47 2075.09 159.911 2075.32 159.329 2075.32Z" fill="#5B9E8B"/>
<path d="M141.795 2075.32C143.008 2075.32 143.992 2074.33 143.992 2073.12C143.992 2071.91 143.008 2070.93 141.795 2070.93C140.582 2070.93 139.598 2071.91 139.598 2073.12C139.598 2074.33 140.582 2075.32 141.795 2075.32Z" fill="#393E46"/>
<path d="M194.397 2093.53C193.962 2093.53 193.537 2093.4 193.176 2093.16C192.815 2092.91 192.533 2092.57 192.367 2092.17C192.201 2091.77 192.157 2091.33 192.242 2090.9C192.327 2090.48 192.536 2090.09 192.843 2089.78C193.15 2089.47 193.542 2089.26 193.968 2089.18C194.394 2089.09 194.836 2089.14 195.237 2089.3C195.639 2089.47 195.982 2089.75 196.223 2090.11C196.464 2090.47 196.593 2090.9 196.593 2091.33C196.593 2091.91 196.362 2092.47 195.95 2092.88C195.538 2093.29 194.979 2093.53 194.397 2093.53Z" fill="#393E46"/>
<path d="M176.863 2093.53C176.428 2093.53 176.004 2093.4 175.642 2093.16C175.281 2092.91 175 2092.57 174.833 2092.17C174.667 2091.77 174.623 2091.33 174.708 2090.9C174.793 2090.48 175.002 2090.09 175.309 2089.78C175.617 2089.47 176.008 2089.26 176.434 2089.18C176.86 2089.09 177.302 2089.14 177.704 2089.3C178.105 2089.47 178.448 2089.75 178.689 2090.11C178.931 2090.47 179.06 2090.9 179.06 2091.33C179.06 2091.91 178.828 2092.47 178.416 2092.88C178.004 2093.29 177.445 2093.53 176.863 2093.53Z" fill="#5B9E8B"/>
<path d="M159.329 2093.53C158.894 2093.53 158.469 2093.4 158.108 2093.16C157.747 2092.91 157.465 2092.57 157.299 2092.17C157.133 2091.77 157.089 2091.33 157.174 2090.9C157.259 2090.48 157.468 2090.09 157.775 2089.78C158.083 2089.47 158.474 2089.26 158.9 2089.18C159.326 2089.09 159.768 2089.14 160.169 2089.3C160.571 2089.47 160.914 2089.75 161.155 2090.11C161.397 2090.47 161.525 2090.9 161.525 2091.33C161.522 2091.91 161.289 2092.47 160.878 2092.88C160.467 2093.29 159.91 2093.52 159.329 2093.53Z" fill="#393E46"/>
<path d="M141.795 2093.53C141.36 2093.53 140.936 2093.4 140.574 2093.16C140.213 2092.91 139.932 2092.57 139.765 2092.17C139.599 2091.77 139.556 2091.33 139.64 2090.9C139.725 2090.48 139.934 2090.09 140.242 2089.78C140.549 2089.47 140.94 2089.26 141.366 2089.18C141.793 2089.09 142.234 2089.14 142.636 2089.3C143.037 2089.47 143.38 2089.75 143.622 2090.11C143.863 2090.47 143.992 2090.9 143.992 2091.33C143.988 2091.91 143.756 2092.47 143.344 2092.88C142.933 2093.29 142.377 2093.52 141.795 2093.53Z" fill="#393E46"/>
<path d="M194.397 2111.72C195.61 2111.72 196.593 2110.74 196.593 2109.53C196.593 2108.31 195.61 2107.33 194.397 2107.33C193.183 2107.33 192.2 2108.31 192.2 2109.53C192.2 2110.74 193.183 2111.72 194.397 2111.72Z" fill="#393E46"/>
<path d="M176.863 2111.72C178.076 2111.72 179.06 2110.74 179.06 2109.53C179.06 2108.31 178.076 2107.33 176.863 2107.33C175.65 2107.33 174.666 2108.31 174.666 2109.53C174.666 2110.74 175.65 2111.72 176.863 2111.72Z" fill="#5B9E8B"/>
<path d="M159.329 2111.72C158.894 2111.72 158.469 2111.59 158.108 2111.35C157.747 2111.11 157.465 2110.77 157.299 2110.37C157.133 2109.96 157.089 2109.52 157.174 2109.1C157.259 2108.67 157.468 2108.28 157.775 2107.97C158.083 2107.67 158.474 2107.46 158.9 2107.37C159.326 2107.29 159.768 2107.33 160.169 2107.5C160.571 2107.66 160.914 2107.95 161.155 2108.31C161.397 2108.67 161.525 2109.09 161.525 2109.53C161.525 2110.11 161.294 2110.67 160.882 2111.08C160.47 2111.49 159.911 2111.72 159.329 2111.72Z" fill="#5B9E8B"/>
<path d="M141.795 2111.72C143.008 2111.72 143.992 2110.74 143.992 2109.53C143.992 2108.31 143.008 2107.33 141.795 2107.33C140.582 2107.33 139.598 2108.31 139.598 2109.53C139.598 2110.74 140.582 2111.72 141.795 2111.72Z" fill="#393E46"/>
<path d="M194.397 2129.93C193.962 2129.93 193.537 2129.8 193.176 2129.56C192.815 2129.32 192.533 2128.97 192.367 2128.57C192.201 2128.17 192.157 2127.73 192.242 2127.31C192.327 2126.88 192.536 2126.49 192.843 2126.18C193.15 2125.87 193.542 2125.67 193.968 2125.58C194.394 2125.5 194.836 2125.54 195.237 2125.71C195.639 2125.87 195.982 2126.15 196.223 2126.51C196.465 2126.88 196.593 2127.3 196.593 2127.73C196.595 2128.02 196.54 2128.31 196.43 2128.58C196.32 2128.84 196.158 2129.09 195.954 2129.29C195.75 2129.49 195.507 2129.66 195.239 2129.76C194.972 2129.87 194.686 2129.93 194.397 2129.93Z" fill="#393E46"/>
<path d="M176.863 2129.93C176.428 2129.93 176.004 2129.8 175.642 2129.56C175.281 2129.32 175 2128.97 174.833 2128.57C174.667 2128.17 174.623 2127.73 174.708 2127.31C174.793 2126.88 175.002 2126.49 175.309 2126.18C175.617 2125.87 176.008 2125.67 176.434 2125.58C176.86 2125.5 177.302 2125.54 177.704 2125.71C178.105 2125.87 178.448 2126.15 178.689 2126.51C178.931 2126.88 179.06 2127.3 179.06 2127.73C179.061 2128.02 179.006 2128.31 178.896 2128.58C178.786 2128.84 178.625 2129.09 178.42 2129.29C178.216 2129.49 177.973 2129.66 177.706 2129.76C177.438 2129.87 177.152 2129.93 176.863 2129.93Z" fill="#393E46"/>
<path d="M159.329 2129.93C158.894 2129.93 158.469 2129.8 158.108 2129.56C157.747 2129.32 157.465 2128.97 157.299 2128.57C157.133 2128.17 157.089 2127.73 157.174 2127.31C157.259 2126.88 157.468 2126.49 157.775 2126.18C158.083 2125.87 158.474 2125.67 158.9 2125.58C159.326 2125.5 159.768 2125.54 160.169 2125.71C160.571 2125.87 160.914 2126.15 161.155 2126.51C161.397 2126.88 161.525 2127.3 161.525 2127.73C161.525 2128.02 161.469 2128.31 161.358 2128.57C161.248 2128.84 161.086 2129.08 160.882 2129.29C160.678 2129.49 160.436 2129.65 160.169 2129.76C159.903 2129.87 159.617 2129.93 159.329 2129.93Z" fill="#393E46"/>
<path d="M141.795 2129.93C141.36 2129.93 140.936 2129.8 140.574 2129.56C140.213 2129.32 139.932 2128.97 139.765 2128.57C139.599 2128.17 139.556 2127.73 139.64 2127.31C139.725 2126.88 139.934 2126.49 140.242 2126.18C140.549 2125.87 140.94 2125.67 141.366 2125.58C141.793 2125.5 142.234 2125.54 142.636 2125.71C143.037 2125.87 143.38 2126.15 143.622 2126.51C143.863 2126.88 143.992 2127.3 143.992 2127.73C143.992 2128.02 143.935 2128.31 143.825 2128.57C143.714 2128.84 143.552 2129.08 143.348 2129.29C143.144 2129.49 142.902 2129.65 142.636 2129.76C142.369 2129.87 142.083 2129.93 141.795 2129.93Z" fill="#393E46"/>
<path d="M194.397 2148.14C195.61 2148.14 196.593 2147.15 196.593 2145.94C196.593 2144.73 195.61 2143.75 194.397 2143.75C193.183 2143.75 192.2 2144.73 192.2 2145.94C192.2 2147.15 193.183 2148.14 194.397 2148.14Z" fill="#393E46"/>
<path d="M176.863 2148.14C178.076 2148.14 179.06 2147.15 179.06 2145.94C179.06 2144.73 178.076 2143.75 176.863 2143.75C175.65 2143.75 174.666 2144.73 174.666 2145.94C174.666 2147.15 175.65 2148.14 176.863 2148.14Z" fill="#5B9E8B"/>
<path d="M159.329 2148.14C158.894 2148.14 158.469 2148.01 158.108 2147.77C157.747 2147.53 157.465 2147.18 157.299 2146.78C157.133 2146.38 157.089 2145.94 157.174 2145.51C157.259 2145.09 157.468 2144.7 157.775 2144.39C158.083 2144.08 158.474 2143.87 158.9 2143.79C159.326 2143.7 159.768 2143.75 160.169 2143.91C160.571 2144.08 160.914 2144.36 161.155 2144.72C161.397 2145.08 161.525 2145.51 161.525 2145.94C161.522 2146.52 161.289 2147.08 160.878 2147.49C160.467 2147.9 159.91 2148.13 159.329 2148.14Z" fill="#5B9E8B"/>
<path d="M141.795 2148.14C143.008 2148.14 143.992 2147.15 143.992 2145.94C143.992 2144.73 143.008 2143.75 141.795 2143.75C140.582 2143.75 139.598 2144.73 139.598 2145.94C139.598 2147.15 140.582 2148.14 141.795 2148.14Z" fill="#5B9E8B"/>
<path d="M0 144.233C373.27 113.551 583.201 108.623 960 144.233C1339.85 167.143 1550.71 170.234 1920 144.233V1022.89C1920 1022.89 1574.83 1079.17 960 1022.89C345.169 966.599 0 1022.89 0 1022.89V144.233Z" fill="#F1F9F7"/>
</svg>
