<svg width="1920" height="1969" viewBox="0 0 1920 1969" fill="none" xmlns="http://www.w3.org/2000/svg">
<rect x="-0.203125" y="0.0405273" width="1920" height="1968.77" fill="#23735C"/>
<path d="M213.759 724.573C213.759 724.995 213.633 725.408 213.398 725.76C213.164 726.111 212.83 726.385 212.439 726.546C212.048 726.708 211.618 726.75 211.204 726.668C210.789 726.585 210.408 726.382 210.109 726.083C209.81 725.785 209.606 725.404 209.524 724.99C209.441 724.575 209.484 724.146 209.646 723.756C209.807 723.365 210.082 723.032 210.433 722.797C210.785 722.562 211.198 722.437 211.621 722.437C212.188 722.437 212.732 722.662 213.133 723.063C213.534 723.463 213.759 724.007 213.759 724.573Z" fill="white"/>
<path d="M213.759 741.621C213.759 742.044 213.633 742.457 213.398 742.808C213.164 743.159 212.83 743.433 212.439 743.595C212.048 743.756 211.618 743.799 211.204 743.716C210.789 743.634 210.408 743.43 210.109 743.132C209.81 742.833 209.606 742.452 209.524 742.038C209.441 741.624 209.484 741.194 209.646 740.804C209.807 740.414 210.082 740.08 210.433 739.845C210.785 739.611 211.198 739.485 211.621 739.485C212.188 739.485 212.732 739.71 213.133 740.111C213.534 740.512 213.759 741.055 213.759 741.621Z" fill="white"/>
<path d="M211.555 760.805C212.736 760.805 213.693 759.848 213.693 758.669C213.693 757.489 212.736 756.533 211.555 756.533C210.374 756.533 209.417 757.489 209.417 758.669C209.417 759.848 210.374 760.805 211.555 760.805Z" fill="white"/>
<path d="M213.759 775.69C213.759 776.113 213.633 776.526 213.398 776.877C213.164 777.228 212.83 777.502 212.439 777.663C212.048 777.825 211.618 777.867 211.204 777.785C210.789 777.703 210.408 777.499 210.109 777.2C209.81 776.902 209.606 776.521 209.524 776.107C209.441 775.692 209.484 775.263 209.646 774.873C209.807 774.482 210.082 774.149 210.433 773.914C210.785 773.679 211.198 773.554 211.621 773.554C212.187 773.558 212.729 773.784 213.129 774.184C213.529 774.583 213.755 775.125 213.759 775.69Z" fill="white"/>
<path d="M211.555 794.9C212.736 794.9 213.693 793.944 213.693 792.764C213.693 791.585 212.736 790.628 211.555 790.628C210.374 790.628 209.417 791.585 209.417 792.764C209.417 793.944 210.374 794.9 211.555 794.9Z" fill="white"/>
<path d="M213.759 809.799C213.759 810.221 213.633 810.634 213.398 810.986C213.164 811.337 212.83 811.611 212.439 811.772C212.048 811.934 211.618 811.976 211.204 811.894C210.789 811.811 210.408 811.608 210.109 811.309C209.81 811.011 209.606 810.63 209.524 810.216C209.441 809.801 209.484 809.372 209.646 808.982C209.807 808.591 210.082 808.258 210.433 808.023C210.785 807.788 211.198 807.663 211.621 807.663C212.188 807.663 212.732 807.888 213.133 808.289C213.534 808.689 213.759 809.233 213.759 809.799Z" fill="white"/>
<path d="M231.417 724.573C231.417 724.995 231.292 725.408 231.057 725.76C230.822 726.111 230.488 726.385 230.097 726.546C229.707 726.708 229.277 726.75 228.862 726.668C228.447 726.585 228.066 726.382 227.767 726.083C227.468 725.785 227.265 725.404 227.182 724.99C227.1 724.575 227.142 724.146 227.304 723.756C227.466 723.365 227.74 723.032 228.091 722.797C228.443 722.562 228.856 722.437 229.279 722.437C229.56 722.435 229.839 722.489 230.099 722.596C230.359 722.703 230.596 722.86 230.795 723.059C230.994 723.257 231.151 723.494 231.258 723.754C231.365 724.013 231.419 724.292 231.417 724.573Z" fill="white"/>
<path d="M231.417 741.621C231.417 742.044 231.292 742.457 231.057 742.808C230.822 743.159 230.488 743.433 230.097 743.595C229.707 743.756 229.277 743.799 228.862 743.716C228.447 743.634 228.066 743.43 227.767 743.132C227.468 742.833 227.265 742.452 227.182 742.038C227.1 741.624 227.142 741.194 227.304 740.804C227.466 740.414 227.74 740.08 228.091 739.845C228.443 739.611 228.856 739.485 229.279 739.485C229.56 739.484 229.839 739.538 230.099 739.644C230.359 739.751 230.596 739.908 230.795 740.107C230.994 740.306 231.151 740.542 231.258 740.802C231.365 741.062 231.419 741.34 231.417 741.621Z" fill="white"/>
<path d="M229.279 760.805C230.46 760.805 231.417 759.848 231.417 758.669C231.417 757.489 230.46 756.533 229.279 756.533C228.098 756.533 227.141 757.489 227.141 758.669C227.141 759.848 228.098 760.805 229.279 760.805Z" fill="white"/>
<path d="M231.417 775.69C231.417 776.113 231.292 776.526 231.057 776.877C230.822 777.228 230.488 777.502 230.097 777.663C229.707 777.825 229.277 777.867 228.862 777.785C228.447 777.703 228.066 777.499 227.767 777.2C227.468 776.902 227.265 776.521 227.182 776.107C227.1 775.692 227.142 775.263 227.304 774.873C227.466 774.482 227.74 774.149 228.091 773.914C228.443 773.679 228.856 773.554 229.279 773.554C229.846 773.554 230.39 773.779 230.791 774.18C231.192 774.58 231.417 775.124 231.417 775.69Z" fill="white"/>
<path d="M229.279 794.9C230.46 794.9 231.417 793.944 231.417 792.764C231.417 791.585 230.46 790.628 229.279 790.628C228.098 790.628 227.141 791.585 227.141 792.764C227.141 793.944 228.098 794.9 229.279 794.9Z" fill="white"/>
<path d="M231.417 809.799C231.417 810.222 231.292 810.635 231.057 810.986C230.822 811.337 230.488 811.611 230.097 811.772C229.707 811.934 229.277 811.976 228.862 811.894C228.447 811.812 228.066 811.608 227.767 811.309C227.468 811.011 227.265 810.63 227.182 810.216C227.1 809.801 227.142 809.372 227.304 808.982C227.466 808.591 227.74 808.258 228.091 808.023C228.443 807.788 228.856 807.663 229.279 807.663C229.56 807.661 229.839 807.715 230.099 807.822C230.359 807.929 230.596 808.086 230.795 808.285C230.994 808.484 231.151 808.72 231.258 808.98C231.365 809.24 231.419 809.518 231.417 809.799Z" fill="white"/>
<path d="M249.154 724.573C249.154 724.995 249.028 725.408 248.793 725.76C248.559 726.111 248.225 726.385 247.834 726.546C247.443 726.708 247.013 726.75 246.599 726.668C246.184 726.585 245.803 726.382 245.504 726.083C245.205 725.785 245.002 725.404 244.919 724.99C244.837 724.575 244.879 724.146 245.041 723.756C245.202 723.365 245.477 723.032 245.828 722.797C246.18 722.562 246.593 722.437 247.016 722.437C247.583 722.437 248.127 722.662 248.528 723.063C248.929 723.463 249.154 724.007 249.154 724.573Z" fill="white"/>
<path d="M249.154 741.621C249.154 742.044 249.028 742.457 248.793 742.808C248.559 743.159 248.225 743.433 247.834 743.595C247.443 743.756 247.013 743.799 246.599 743.716C246.184 743.634 245.803 743.43 245.504 743.132C245.205 742.833 245.002 742.452 244.919 742.038C244.837 741.624 244.879 741.194 245.041 740.804C245.202 740.414 245.477 740.08 245.828 739.845C246.18 739.611 246.593 739.485 247.016 739.485C247.583 739.485 248.127 739.71 248.528 740.111C248.929 740.512 249.154 741.055 249.154 741.621Z" fill="white"/>
<path d="M249.154 758.669C249.154 759.091 249.028 759.504 248.793 759.855C248.559 760.207 248.225 760.48 247.834 760.642C247.443 760.804 247.013 760.846 246.599 760.764C246.184 760.681 245.803 760.478 245.504 760.179C245.205 759.88 245.002 759.5 244.919 759.085C244.837 758.671 244.879 758.242 245.041 757.851C245.202 757.461 245.477 757.127 245.828 756.893C246.18 756.658 246.593 756.533 247.016 756.533C247.582 756.536 248.124 756.762 248.524 757.162C248.924 757.562 249.15 758.103 249.154 758.669Z" fill="white"/>
<path d="M249.154 775.69C249.154 776.113 249.028 776.526 248.793 776.877C248.559 777.228 248.225 777.502 247.834 777.663C247.443 777.825 247.013 777.867 246.599 777.785C246.184 777.703 245.803 777.499 245.504 777.2C245.205 776.902 245.002 776.521 244.919 776.107C244.837 775.692 244.879 775.263 245.041 774.873C245.202 774.482 245.477 774.149 245.828 773.914C246.18 773.679 246.593 773.554 247.016 773.554C247.582 773.558 248.124 773.784 248.524 774.184C248.924 774.583 249.15 775.125 249.154 775.69Z" fill="white"/>
<path d="M249.154 792.83C249.154 793.253 249.028 793.666 248.793 794.017C248.559 794.368 248.225 794.642 247.834 794.804C247.443 794.965 247.013 795.008 246.599 794.925C246.184 794.843 245.803 794.639 245.504 794.341C245.205 794.042 245.002 793.661 244.919 793.247C244.837 792.833 244.879 792.403 245.041 792.013C245.202 791.623 245.477 791.289 245.828 791.054C246.18 790.82 246.593 790.694 247.016 790.694C247.583 790.694 248.127 790.919 248.528 791.32C248.929 791.72 249.154 792.264 249.154 792.83Z" fill="white"/>
<path d="M249.154 809.799C249.154 810.221 249.028 810.634 248.793 810.986C248.559 811.337 248.225 811.611 247.834 811.772C247.443 811.934 247.013 811.976 246.599 811.894C246.184 811.811 245.803 811.608 245.504 811.309C245.205 811.011 245.002 810.63 244.919 810.216C244.837 809.801 244.879 809.372 245.041 808.982C245.202 808.591 245.477 808.258 245.828 808.023C246.18 807.788 246.593 807.663 247.016 807.663C247.583 807.663 248.127 807.888 248.528 808.289C248.929 808.689 249.154 809.233 249.154 809.799Z" fill="white"/>
<path d="M266.877 724.573C266.877 724.996 266.752 725.41 266.516 725.761C266.281 726.113 265.946 726.386 265.555 726.548C265.163 726.709 264.733 726.75 264.318 726.667C263.902 726.583 263.522 726.379 263.223 726.079C262.925 725.779 262.722 725.397 262.641 724.982C262.56 724.566 262.604 724.137 262.768 723.746C262.932 723.356 263.208 723.024 263.561 722.791C263.915 722.558 264.329 722.434 264.753 722.437C265.033 722.437 265.31 722.492 265.569 722.6C265.828 722.707 266.062 722.865 266.26 723.063C266.457 723.262 266.614 723.498 266.72 723.757C266.826 724.016 266.879 724.293 266.877 724.573Z" fill="white"/>
<path d="M266.877 741.621C266.877 742.044 266.752 742.458 266.516 742.809C266.281 743.161 265.946 743.435 265.555 743.596C265.163 743.757 264.733 743.799 264.318 743.715C263.902 743.632 263.522 743.427 263.223 743.127C262.925 742.827 262.722 742.445 262.641 742.03C262.56 741.615 262.604 741.185 262.768 740.795C262.932 740.405 263.208 740.072 263.561 739.839C263.915 739.606 264.329 739.483 264.753 739.485C265.033 739.485 265.31 739.541 265.569 739.648C265.828 739.756 266.062 739.913 266.26 740.112C266.457 740.31 266.614 740.546 266.72 740.805C266.826 741.064 266.879 741.341 266.877 741.621Z" fill="white"/>
<path d="M266.877 758.669C266.877 759.092 266.752 759.505 266.516 759.857C266.281 760.208 265.946 760.482 265.555 760.643C265.163 760.805 264.733 760.846 264.318 760.763C263.902 760.679 263.522 760.474 263.223 760.174C262.925 759.874 262.722 759.492 262.641 759.077C262.56 758.662 262.604 758.232 262.768 757.842C262.932 757.452 263.208 757.119 263.561 756.886C263.915 756.653 264.329 756.53 264.753 756.533C265.317 756.536 265.858 756.763 266.256 757.163C266.654 757.563 266.877 758.104 266.877 758.669Z" fill="white"/>
<path d="M266.877 775.69C266.877 776.113 266.752 776.527 266.516 776.878C266.281 777.23 265.946 777.503 265.555 777.665C265.163 777.826 264.733 777.868 264.318 777.784C263.902 777.701 263.522 777.496 263.223 777.196C262.925 776.896 262.722 776.514 262.641 776.099C262.56 775.684 262.604 775.254 262.768 774.864C262.932 774.474 263.208 774.141 263.561 773.908C263.915 773.675 264.329 773.552 264.753 773.554C265.317 773.558 265.858 773.784 266.256 774.184C266.654 774.585 266.877 775.126 266.877 775.69Z" fill="white"/>
<path d="M266.877 792.83C266.877 793.253 266.752 793.667 266.516 794.018C266.281 794.37 265.946 794.644 265.555 794.805C265.163 794.966 264.733 795.008 264.318 794.924C263.902 794.841 263.522 794.636 263.223 794.336C262.925 794.036 262.722 793.654 262.641 793.239C262.56 792.824 262.604 792.394 262.768 792.004C262.932 791.614 263.208 791.281 263.561 791.048C263.915 790.815 264.329 790.692 264.753 790.694C265.033 790.694 265.31 790.75 265.569 790.857C265.828 790.965 266.062 791.122 266.26 791.321C266.457 791.519 266.614 791.755 266.72 792.014C266.826 792.273 266.879 792.55 266.877 792.83Z" fill="white"/>
<path d="M266.877 809.799C266.877 810.222 266.752 810.636 266.516 810.987C266.281 811.339 265.946 811.612 265.555 811.774C265.163 811.935 264.733 811.976 264.318 811.893C263.902 811.809 263.522 811.605 263.223 811.305C262.925 811.005 262.722 810.623 262.641 810.208C262.56 809.792 262.604 809.363 262.768 808.973C262.932 808.582 263.208 808.25 263.561 808.017C263.915 807.784 264.329 807.661 264.753 807.663C265.033 807.663 265.31 807.718 265.569 807.826C265.828 807.933 266.062 808.091 266.26 808.29C266.457 808.488 266.614 808.724 266.72 808.983C266.826 809.242 266.879 809.519 266.877 809.799Z" fill="white"/>
<path d="M284.614 724.573C284.614 724.995 284.489 725.408 284.254 725.76C284.019 726.111 283.685 726.385 283.294 726.546C282.904 726.708 282.474 726.75 282.059 726.668C281.645 726.585 281.264 726.382 280.965 726.083C280.666 725.785 280.462 725.404 280.379 724.99C280.297 724.575 280.339 724.146 280.501 723.756C280.663 723.365 280.937 723.032 281.289 722.797C281.64 722.562 282.053 722.437 282.476 722.437C282.758 722.435 283.036 722.489 283.297 722.596C283.557 722.703 283.793 722.86 283.992 723.059C284.191 723.257 284.348 723.494 284.455 723.754C284.562 724.013 284.616 724.292 284.614 724.573Z" fill="white"/>
<path d="M284.614 741.621C284.614 742.044 284.489 742.457 284.254 742.808C284.019 743.159 283.685 743.433 283.294 743.595C282.904 743.756 282.474 743.799 282.059 743.716C281.645 743.634 281.264 743.43 280.965 743.132C280.666 742.833 280.462 742.452 280.379 742.038C280.297 741.624 280.339 741.194 280.501 740.804C280.663 740.414 280.937 740.08 281.289 739.845C281.64 739.611 282.053 739.485 282.476 739.485C282.758 739.484 283.036 739.538 283.297 739.644C283.557 739.751 283.793 739.908 283.992 740.107C284.191 740.306 284.348 740.542 284.455 740.802C284.562 741.062 284.616 741.34 284.614 741.621Z" fill="white"/>
<path d="M282.476 760.805C283.657 760.805 284.614 759.848 284.614 758.669C284.614 757.489 283.657 756.533 282.476 756.533C281.296 756.533 280.338 757.489 280.338 758.669C280.338 759.848 281.296 760.805 282.476 760.805Z" fill="white"/>
<path d="M284.614 775.69C284.614 776.113 284.489 776.526 284.254 776.877C284.019 777.228 283.685 777.502 283.294 777.663C282.904 777.825 282.474 777.867 282.059 777.785C281.645 777.703 281.264 777.499 280.965 777.2C280.666 776.902 280.462 776.521 280.379 776.107C280.297 775.692 280.339 775.263 280.501 774.873C280.663 774.482 280.937 774.149 281.289 773.914C281.64 773.679 282.053 773.554 282.476 773.554C283.043 773.554 283.587 773.779 283.988 774.18C284.389 774.58 284.614 775.124 284.614 775.69Z" fill="white"/>
<path d="M282.476 794.9C283.657 794.9 284.614 793.944 284.614 792.764C284.614 791.585 283.657 790.628 282.476 790.628C281.296 790.628 280.338 791.585 280.338 792.764C280.338 793.944 281.296 794.9 282.476 794.9Z" fill="white"/>
<path d="M284.614 809.799C284.614 810.222 284.489 810.635 284.254 810.986C284.019 811.337 283.685 811.611 283.294 811.772C282.904 811.934 282.474 811.976 282.059 811.894C281.645 811.812 281.264 811.608 280.965 811.309C280.666 811.011 280.462 810.63 280.379 810.216C280.297 809.801 280.339 809.372 280.501 808.982C280.663 808.591 280.937 808.258 281.289 808.023C281.64 807.788 282.053 807.663 282.476 807.663C282.758 807.661 283.036 807.715 283.297 807.822C283.557 807.929 283.793 808.086 283.992 808.285C284.191 808.484 284.348 808.72 284.455 808.98C284.562 809.24 284.616 809.518 284.614 809.799Z" fill="white"/>
<path d="M302.351 724.573C302.351 724.995 302.226 725.408 301.991 725.76C301.756 726.111 301.422 726.385 301.031 726.546C300.641 726.708 300.211 726.75 299.796 726.668C299.381 726.585 299 726.382 298.701 726.083C298.402 725.785 298.199 725.404 298.116 724.99C298.034 724.575 298.076 724.146 298.238 723.756C298.4 723.365 298.674 723.032 299.025 722.797C299.377 722.562 299.79 722.437 300.213 722.437C300.494 722.437 300.772 722.492 301.031 722.6C301.291 722.707 301.526 722.864 301.725 723.063C301.923 723.261 302.081 723.496 302.188 723.756C302.296 724.015 302.351 724.292 302.351 724.573Z" fill="white"/>
<path d="M302.351 741.621C302.351 742.044 302.226 742.457 301.991 742.808C301.756 743.159 301.422 743.433 301.031 743.595C300.641 743.756 300.211 743.799 299.796 743.716C299.381 743.634 299 743.43 298.701 743.132C298.402 742.833 298.199 742.452 298.116 742.038C298.034 741.624 298.076 741.194 298.238 740.804C298.4 740.414 298.674 740.08 299.025 739.845C299.377 739.611 299.79 739.485 300.213 739.485C300.494 739.485 300.772 739.541 301.031 739.648C301.291 739.755 301.526 739.913 301.725 740.111C301.923 740.309 302.081 740.545 302.188 740.804C302.296 741.063 302.351 741.341 302.351 741.621Z" fill="white"/>
<path d="M300.213 760.805C301.394 760.805 302.351 759.848 302.351 758.669C302.351 757.489 301.394 756.533 300.213 756.533C299.032 756.533 298.075 757.489 298.075 758.669C298.075 759.848 299.032 760.805 300.213 760.805Z" fill="white"/>
<path d="M302.351 775.69C302.351 776.113 302.226 776.526 301.991 776.877C301.756 777.228 301.422 777.502 301.031 777.663C300.641 777.825 300.211 777.867 299.796 777.785C299.381 777.703 299 777.499 298.701 777.2C298.402 776.902 298.199 776.521 298.116 776.107C298.034 775.692 298.076 775.263 298.238 774.873C298.4 774.482 298.674 774.149 299.025 773.914C299.377 773.679 299.79 773.554 300.213 773.554C300.779 773.558 301.321 773.784 301.721 774.184C302.121 774.583 302.348 775.125 302.351 775.69Z" fill="white"/>
<path d="M300.213 794.9C301.394 794.9 302.351 793.944 302.351 792.764C302.351 791.585 301.394 790.628 300.213 790.628C299.032 790.628 298.075 791.585 298.075 792.764C298.075 793.944 299.032 794.9 300.213 794.9Z" fill="white"/>
<path d="M302.351 809.799C302.351 810.221 302.226 810.634 301.991 810.986C301.756 811.337 301.422 811.611 301.031 811.772C300.641 811.934 300.211 811.976 299.796 811.894C299.381 811.811 299 811.608 298.701 811.309C298.402 811.011 298.199 810.63 298.116 810.216C298.034 809.801 298.076 809.372 298.238 808.982C298.4 808.591 298.674 808.258 299.025 808.023C299.377 807.788 299.79 807.663 300.213 807.663C300.494 807.663 300.772 807.718 301.031 807.826C301.291 807.933 301.526 808.09 301.725 808.289C301.923 808.487 302.081 808.722 302.188 808.982C302.296 809.241 302.351 809.519 302.351 809.799Z" fill="white"/>
<path d="M320.075 724.573C320.075 724.995 319.949 725.408 319.714 725.76C319.479 726.111 319.146 726.385 318.755 726.546C318.364 726.708 317.934 726.75 317.52 726.668C317.105 726.585 316.724 726.382 316.425 726.083C316.126 725.785 315.922 725.404 315.84 724.99C315.757 724.575 315.8 724.146 315.962 723.756C316.123 723.365 316.397 723.032 316.749 722.797C317.101 722.562 317.514 722.437 317.937 722.437C318.218 722.435 318.497 722.489 318.757 722.596C319.017 722.703 319.254 722.86 319.452 723.059C319.651 723.257 319.809 723.494 319.915 723.754C320.022 724.013 320.076 724.292 320.075 724.573Z" fill="white"/>
<path d="M320.075 741.621C320.075 742.044 319.949 742.457 319.714 742.808C319.479 743.159 319.146 743.433 318.755 743.595C318.364 743.756 317.934 743.799 317.52 743.716C317.105 743.634 316.724 743.43 316.425 743.132C316.126 742.833 315.922 742.452 315.84 742.038C315.757 741.624 315.8 741.194 315.962 740.804C316.123 740.414 316.397 740.08 316.749 739.845C317.101 739.611 317.514 739.485 317.937 739.485C318.218 739.484 318.497 739.538 318.757 739.644C319.017 739.751 319.254 739.908 319.452 740.107C319.651 740.306 319.809 740.542 319.915 740.802C320.022 741.062 320.076 741.34 320.075 741.621Z" fill="white"/>
<path d="M317.937 760.805C319.117 760.805 320.075 759.848 320.075 758.669C320.075 757.489 319.117 756.533 317.937 756.533C316.756 756.533 315.799 757.489 315.799 758.669C315.799 759.848 316.756 760.805 317.937 760.805Z" fill="white"/>
<path d="M320.075 775.69C320.075 776.113 319.949 776.526 319.714 776.877C319.479 777.228 319.146 777.502 318.755 777.663C318.364 777.825 317.934 777.867 317.52 777.785C317.105 777.703 316.724 777.499 316.425 777.2C316.126 776.902 315.922 776.521 315.84 776.107C315.757 775.692 315.8 775.263 315.962 774.873C316.123 774.482 316.397 774.149 316.749 773.914C317.101 773.679 317.514 773.554 317.937 773.554C318.218 773.554 318.495 773.609 318.755 773.717C319.014 773.824 319.25 773.981 319.448 774.18C319.647 774.378 319.804 774.614 319.912 774.873C320.019 775.132 320.075 775.41 320.075 775.69Z" fill="white"/>
<path d="M317.937 794.9C319.117 794.9 320.075 793.944 320.075 792.764C320.075 791.585 319.117 790.628 317.937 790.628C316.756 790.628 315.799 791.585 315.799 792.764C315.799 793.944 316.756 794.9 317.937 794.9Z" fill="white"/>
<path d="M320.075 809.799C320.075 810.222 319.949 810.635 319.714 810.986C319.479 811.337 319.146 811.611 318.755 811.772C318.364 811.934 317.934 811.976 317.52 811.894C317.105 811.812 316.724 811.608 316.425 811.309C316.126 811.011 315.922 810.63 315.84 810.216C315.757 809.801 315.8 809.372 315.962 808.982C316.123 808.591 316.397 808.258 316.749 808.023C317.101 807.788 317.514 807.663 317.937 807.663C318.218 807.661 318.497 807.715 318.757 807.822C319.017 807.929 319.254 808.086 319.452 808.285C319.651 808.484 319.809 808.72 319.915 808.98C320.022 809.24 320.076 809.518 320.075 809.799Z" fill="white"/>
<path d="M337.812 724.573C337.812 724.995 337.687 725.408 337.452 725.76C337.217 726.111 336.883 726.385 336.492 726.546C336.102 726.708 335.672 726.75 335.257 726.668C334.842 726.585 334.461 726.382 334.162 726.083C333.863 725.785 333.66 725.404 333.577 724.99C333.495 724.575 333.537 724.146 333.699 723.756C333.861 723.365 334.135 723.032 334.486 722.797C334.838 722.562 335.251 722.437 335.674 722.437C336.241 722.437 336.785 722.662 337.186 723.063C337.587 723.463 337.812 724.007 337.812 724.573Z" fill="white"/>
<path d="M337.812 741.621C337.812 742.044 337.687 742.457 337.452 742.808C337.217 743.159 336.883 743.433 336.492 743.595C336.102 743.756 335.672 743.799 335.257 743.716C334.842 743.634 334.461 743.43 334.162 743.132C333.863 742.833 333.66 742.452 333.577 742.038C333.495 741.624 333.537 741.194 333.699 740.804C333.861 740.414 334.135 740.08 334.486 739.845C334.838 739.611 335.251 739.485 335.674 739.485C336.241 739.485 336.785 739.71 337.186 740.111C337.587 740.512 337.812 741.055 337.812 741.621Z" fill="white"/>
<path d="M337.812 758.669C337.812 759.091 337.687 759.504 337.452 759.855C337.217 760.207 336.883 760.48 336.492 760.642C336.102 760.804 335.672 760.846 335.257 760.764C334.842 760.681 334.461 760.478 334.162 760.179C333.863 759.88 333.66 759.5 333.577 759.085C333.495 758.671 333.537 758.242 333.699 757.851C333.861 757.461 334.135 757.127 334.486 756.893C334.838 756.658 335.251 756.533 335.674 756.533C336.24 756.536 336.782 756.762 337.182 757.162C337.582 757.562 337.809 758.103 337.812 758.669Z" fill="white"/>
<path d="M337.812 775.69C337.812 776.113 337.687 776.526 337.452 776.877C337.217 777.228 336.883 777.502 336.492 777.663C336.102 777.825 335.672 777.867 335.257 777.785C334.842 777.703 334.461 777.499 334.162 777.2C333.863 776.902 333.66 776.521 333.577 776.107C333.495 775.692 333.537 775.263 333.699 774.873C333.861 774.482 334.135 774.149 334.486 773.914C334.838 773.679 335.251 773.554 335.674 773.554C336.24 773.558 336.782 773.784 337.182 774.184C337.582 774.583 337.809 775.125 337.812 775.69Z" fill="white"/>
<path d="M337.812 792.83C337.812 793.253 337.687 793.666 337.452 794.017C337.217 794.368 336.883 794.642 336.492 794.804C336.102 794.965 335.672 795.008 335.257 794.925C334.842 794.843 334.461 794.639 334.162 794.341C333.863 794.042 333.66 793.661 333.577 793.247C333.495 792.833 333.537 792.403 333.699 792.013C333.861 791.623 334.135 791.289 334.486 791.054C334.838 790.82 335.251 790.694 335.674 790.694C336.241 790.694 336.785 790.919 337.186 791.32C337.587 791.72 337.812 792.264 337.812 792.83Z" fill="white"/>
<path d="M337.812 809.799C337.812 810.221 337.687 810.634 337.452 810.986C337.217 811.337 336.883 811.611 336.492 811.772C336.102 811.934 335.672 811.976 335.257 811.894C334.842 811.811 334.461 811.608 334.162 811.309C333.863 811.011 333.66 810.63 333.577 810.216C333.495 809.801 333.537 809.372 333.699 808.982C333.861 808.591 334.135 808.258 334.486 808.023C334.838 807.788 335.251 807.663 335.674 807.663C336.241 807.663 336.785 807.888 337.186 808.289C337.587 808.689 337.812 809.233 337.812 809.799Z" fill="white"/>
</svg>
