<svg width="121" height="122" viewBox="0 0 121 122" fill="none" xmlns="http://www.w3.org/2000/svg">
<circle cx="60.4968" cy="60.9567" r="60.2853" fill="#F6F7FF"/>
<g clip-path="url(#clip0)">
<path d="M42.8374 52.9412C42.838 57.6273 44.6979 62.1216 48.0088 65.4378C51.3197 68.754 55.8111 70.6211 60.4971 70.6292V78.4845C60.1884 78.4845 59.8796 78.4845 59.5756 78.468C55.3132 78.3282 51.1556 77.1121 47.4898 74.9328C43.6868 72.6651 40.5368 69.45 38.3475 65.6013C36.1582 61.7526 35.0043 57.402 34.9986 52.9742C34.9727 38.9275 46.441 27.4568 60.4971 27.4568V35.3121C55.8201 35.3165 51.3355 37.1742 48.0254 40.4785C44.7154 43.7828 42.8499 48.2642 42.8374 52.9412Z" fill="#FFEA80"/>
<path d="M42.8369 52.9414C42.8375 57.6274 44.6974 62.1218 48.0083 65.438C51.3192 68.7542 55.8106 70.6213 60.4966 70.6294V35.3123C55.8196 35.3166 51.335 37.1744 48.025 40.4787C44.7149 43.7829 42.8494 48.2644 42.8369 52.9414ZM52.8534 41.6616C52.5588 42.4959 52.2454 43.3113 51.9838 44.1386C51.3434 46.2229 50.9573 48.3769 50.8336 50.5539C50.8124 50.8956 50.7205 51.0253 50.3623 51.0253C49.2616 51.004 48.1586 51.0253 47.0627 51.0253C46.6856 48.5694 50.3175 42.7268 52.8534 41.6616ZM46.9614 54.9352H48.663C49.2239 54.9352 49.7848 54.9494 50.3458 54.9352C50.6781 54.9352 50.8171 55.0083 50.8407 55.3807C50.9895 58.0145 51.5222 60.6125 52.4221 63.0922C52.5683 63.4858 52.7332 63.8723 52.8935 64.2706C49.5421 62.0269 47.6213 58.9277 46.9496 54.9352H46.9614ZM58.3684 40.2899L58.524 40.337V50.9805H54.6894C55.0759 47.0964 55.783 43.3703 58.3566 40.2899H58.3684ZM58.5475 56.816V65.6093L58.4085 65.6659C58.088 65.2605 57.7368 64.874 57.4658 64.4403C56.3604 62.7599 55.7241 60.8886 55.3045 58.9395C55.0901 57.9355 54.9534 56.915 54.7978 55.8968C54.753 55.6022 54.7601 55.3005 54.7389 54.9376C55.9833 54.9376 57.1452 54.9376 58.3095 54.9517C58.3943 54.9517 58.5452 55.1568 58.5452 55.2723C58.5499 55.7861 58.5358 56.3022 58.5358 56.816H58.5475Z" fill="#80AAFF"/>
<path d="M39.7873 74.8291L37.8193 76.7971L39.6765 74.9304C39.711 74.8941 39.748 74.8602 39.7873 74.8291Z" fill="black"/>
<path d="M90.1931 84.6266V84.6431C90.1978 84.9157 90.1429 85.186 90.0321 85.4352C89.9214 85.6843 89.7576 85.9062 89.5521 86.0855L89.4814 86.1444C89.2776 86.3104 89.0417 86.4324 88.7885 86.5026C88.6933 86.5302 88.5965 86.5514 88.4986 86.5662H88.4538H88.409H88.3171H88.2511H80.4476H78.1403C78.0038 86.5691 77.8704 86.6073 77.7531 86.6771C77.6358 86.7469 77.5386 86.846 77.471 86.9646C77.4317 87.0251 77.3963 87.0881 77.3649 87.1531C77.1009 87.6999 76.8323 88.2467 76.5636 88.8029L76.0922 89.7456L75.1495 91.6499L74.367 93.2125C74.148 93.7162 73.7401 94.114 73.231 94.3202C72.8495 94.483 72.4223 94.5039 72.0267 94.3791H72.0102C71.5413 94.2171 71.1349 93.9121 70.8483 93.5071L70.5867 93.1607L70.4947 93.0381C68.1379 89.9161 65.7905 86.7901 63.4525 83.6603C63.2616 83.4057 63.0731 83.1512 62.8822 82.899C62.8538 82.8606 62.8279 82.8204 62.8044 82.7788L62.6347 82.5431L60.4971 79.6984V78.487H60.5159C60.82 78.487 61.1216 78.487 61.4209 78.4705C67.5852 78.2467 73.459 75.7939 77.9518 71.5674L80.9638 74.5794L81.1995 74.8151L83.158 76.7736C84.481 78.0997 85.8055 79.4266 87.1316 80.7543C87.8999 81.5258 88.6683 82.2941 89.4366 83.0593C89.6538 83.2493 89.8308 83.4808 89.9571 83.7403C90.0834 83.9997 90.1564 84.2819 90.1719 84.57C90.1931 84.5983 90.1931 84.6124 90.1931 84.6266Z" fill="#E63A57"/>
<path d="M58.5127 40.3369V50.9804H54.6899C55.0765 47.0963 55.7835 43.3702 58.3572 40.2898L58.5127 40.3369Z" fill="#4D4DFF"/>
<path d="M58.5362 56.8159V65.6092L58.3971 65.6658C58.0766 65.2604 57.7254 64.8739 57.4544 64.4403C56.349 62.7598 55.7127 60.8885 55.2932 58.9394C55.0787 57.9354 54.942 56.9149 54.7865 55.8967C54.7417 55.6021 54.7488 55.3005 54.7275 54.9375C55.9719 54.9375 57.1339 54.9375 58.2981 54.9516C58.383 54.9516 58.5338 55.1567 58.5338 55.2722C58.5503 55.786 58.5362 56.3021 58.5362 56.8159Z" fill="#4D4DFF"/>
<path d="M52.8535 41.6614C52.5589 42.4957 52.2455 43.3112 51.9839 44.1384C51.3435 46.2227 50.9574 48.3768 50.8337 50.5537C50.8125 50.8955 50.7206 51.0251 50.3624 51.0251C49.2617 51.0039 48.1587 51.0251 47.0628 51.0251C46.6857 48.5693 50.3176 42.7267 52.8535 41.6614Z" fill="#4D4DFF"/>
<path d="M52.8795 64.254C49.5422 62.0268 47.6214 58.9275 46.9497 54.9351H48.6513C49.2123 54.9351 49.7732 54.9492 50.3341 54.9351C50.6664 54.9351 50.8055 55.0081 50.8291 55.3805C50.9778 58.0143 51.5106 60.6123 52.4105 63.092C52.5566 63.4786 52.7192 63.8651 52.8795 64.254Z" fill="#4D4DFF"/>
<path d="M60.5442 35.3123H60.4971V70.6294C65.1454 70.5822 69.5877 68.7042 72.8602 65.4028C76.1327 62.1013 77.9715 57.6427 77.9777 52.9941C77.9839 48.3456 76.157 43.882 72.8933 40.5718C69.6296 37.2617 65.1924 35.3718 60.5442 35.3123ZM62.4886 65.6376V54.9517H66.1982C66.738 57.3887 64.3269 64.3696 62.4886 65.6376ZM62.4886 50.9734V40.3276L62.6229 40.2899C65.2154 43.3538 65.9013 47.087 66.2996 50.9781L62.4886 50.9734ZM73.9593 50.9734H70.2025C69.988 47.7563 69.4059 44.6217 68.0625 41.6003C70.7281 42.8235 74.0701 48.1758 73.9593 50.9805V50.9734ZM68.1403 64.2989C69.3941 61.3223 69.988 58.2042 70.2001 54.9588H74.03C73.3607 58.9324 71.4446 62.0458 68.1403 64.306V64.2989Z" fill="#667FFF"/>
<path d="M62.4883 65.6375V54.9517H66.1979C66.7377 57.3886 64.3266 64.3696 62.4883 65.6375Z" fill="#4949F2"/>
<path d="M66.2993 50.978H62.4883V40.3275L62.6226 40.2898C65.2104 43.3584 65.901 47.0869 66.2993 50.978Z" fill="#4949F2"/>
<path d="M73.9593 50.9803H70.2025C69.988 47.7632 69.4059 44.6286 68.0625 41.6072C70.7281 42.8233 74.0701 48.1757 73.9593 50.9803Z" fill="#4949F2"/>
<path d="M74.0298 54.9658C73.3604 58.9324 71.4373 62.0363 68.1377 64.306C69.3915 61.3293 69.9855 58.2112 70.1976 54.9658H74.0298Z" fill="#4949F2"/>
<path d="M86.0051 52.9648C86.0064 59.5715 83.445 65.9212 78.8599 70.6778C74.2747 75.4344 68.0233 78.227 61.4209 78.468C61.1216 78.4798 60.82 78.4845 60.5159 78.4845H60.4971V77.3061V70.6363C65.1454 70.5892 69.5877 68.7111 72.8602 65.4097C76.1327 62.1082 77.9715 57.6496 77.9777 53.001C77.9839 48.3525 76.157 43.889 72.8933 40.5788C69.6296 37.2686 65.1924 35.3787 60.5442 35.3192H60.4971V27.4568C74.5461 27.4568 86.0003 38.9086 86.0051 52.9648Z" fill="#FFCC66"/>
<path opacity="0.54" d="M60.4969 78.4845V79.7007L58.3617 82.5453L57.9586 83.078L57.6947 83.4268L57.4331 83.785L57.0536 84.2918L56.6789 84.7938L56.3065 85.2887C54.2451 88.0383 52.1836 90.788 50.1222 93.5376C49.9563 93.793 49.7341 94.007 49.4726 94.1631C49.2111 94.3191 48.9173 94.4132 48.6138 94.4379C47.6711 94.4945 47.0347 94.042 46.6223 93.2171C45.59 91.1454 44.5436 89.0808 43.523 87.0021C43.4761 86.8705 43.3861 86.7586 43.2676 86.6846C43.1491 86.6106 43.0091 86.5788 42.8702 86.5944C39.5235 86.607 36.176 86.607 32.8277 86.5944C31.3712 86.5944 30.4261 85.2675 30.9423 83.9429C31.0794 83.6245 31.2789 83.3368 31.5291 83.0968C33.622 80.9898 35.7196 78.8883 37.8219 76.7923L43.0423 71.5696C46.4838 74.8155 50.7635 77.0358 55.3991 77.9802C56.7759 78.26 58.1736 78.424 59.5778 78.4704C59.8795 78.4798 60.1882 78.4845 60.4969 78.4845Z" fill="#D60033"/>
<path d="M72.01 94.3742C71.5433 94.2328 71.1396 93.9348 70.8669 93.5305L70.5864 93.1558L70.848 93.5022C71.1347 93.9072 71.541 94.2122 72.01 94.3742Z" fill="black"/>
</g>
<defs>
<clipPath id="clip0">
<rect width="59.3921" height="67" fill="white" transform="translate(30.8008 27.4568)"/>
</clipPath>
</defs>
</svg>
