<svg width="121" height="122" viewBox="0 0 121 122" fill="none" xmlns="http://www.w3.org/2000/svg">
<circle cx="60.4968" cy="61.2531" r="60.2853" fill="#F6F7FF"/>
<path d="M79.0501 87.8704V34.6226C79.0501 32.1263 77.4491 30.004 75.2156 29.218H41.7369C38.5949 29.218 36.0479 31.7579 36.0479 34.8911V87.6019C36.0479 90.7351 38.5949 93.275 41.7369 93.275H75.2158C77.4491 92.489 79.0501 90.3667 79.0501 87.8704Z" fill="#C8652E"/>
<path d="M81.1903 29.218H72.7432C75.8851 29.218 78.4322 31.7579 78.4322 34.8911V87.6019C78.4322 90.7351 75.8851 93.275 72.7432 93.275H81.1903C84.3323 93.275 86.8793 90.7351 86.8793 87.6019V34.8911C86.8793 31.7579 84.3323 29.218 81.1903 29.218V29.218Z" fill="#F7ECAD"/>
<path d="M79.0502 87.8704V34.6225C79.0502 34.5793 79.0479 34.5365 79.0469 34.4934H43.5946C43.5946 36.2211 42.19 37.6216 40.4575 37.6216V85.2977C42.0449 85.2977 43.3561 86.4736 43.5648 87.9994H79.0469C79.0479 87.9565 79.0502 87.9137 79.0502 87.8704Z" fill="#F7F4F7"/>
<path d="M81.1903 29.218H72.7432C75.8851 29.218 78.4322 31.7579 78.4322 34.8911V87.6019C78.4322 90.7351 75.8851 93.275 72.7432 93.275H81.1903C84.3323 93.275 86.8793 90.7351 86.8793 87.6019V34.8911C86.8793 31.7579 84.3323 29.218 81.1903 29.218V29.218Z" fill="#A45326"/>
<path d="M79.3327 34.4934H78.417C78.4261 34.6249 78.4325 34.7572 78.4325 34.8911V87.6019C78.4325 87.7358 78.4261 87.868 78.417 87.9996H79.3625C79.5713 86.4738 80.8824 85.2978 82.4698 85.2978V37.6217C80.7372 37.6217 79.3327 36.2211 79.3327 34.4934Z" fill="#E0DDE0"/>
<path d="M67.8982 44.9798H54.1572C53.6216 44.9798 53.1875 44.5469 53.1875 44.0128C53.1875 43.4787 53.6216 43.0459 54.1572 43.0459H67.8982C68.4337 43.0459 68.8679 43.4787 68.8679 44.0128C68.8679 44.5468 68.4336 44.9798 67.8982 44.9798Z" fill="#808080"/>
<path d="M77.2984 52.9871H45.6289C45.0933 52.9871 44.6592 52.5542 44.6592 52.0202C44.6592 51.4861 45.0933 51.0532 45.6289 51.0532H77.2984C77.834 51.0532 78.2681 51.4861 78.2681 52.0202C78.2681 52.5542 77.834 52.9871 77.2984 52.9871Z" fill="#808080"/>
<path d="M77.2984 59.2261H45.6289C45.0933 59.2261 44.6592 58.7933 44.6592 58.2592C44.6592 57.7251 45.0933 57.2922 45.6289 57.2922H77.2984C77.834 57.2922 78.2681 57.7251 78.2681 58.2592C78.2681 58.7933 77.834 59.2261 77.2984 59.2261Z" fill="#808080"/>
<path d="M77.2984 65.4651H45.6289C45.0933 65.4651 44.6592 65.0323 44.6592 64.4982C44.6592 63.9641 45.0933 63.5312 45.6289 63.5312H77.2984C77.834 63.5312 78.2681 63.9641 78.2681 64.4982C78.2681 65.0323 77.834 65.4651 77.2984 65.4651Z" fill="#808080"/>
<path d="M77.2984 71.7039H45.6289C45.0933 71.7039 44.6592 71.271 44.6592 70.737C44.6592 70.2029 45.0933 69.77 45.6289 69.77H77.2984C77.834 69.77 78.2681 70.2029 78.2681 70.737C78.2681 71.271 77.834 71.7039 77.2984 71.7039Z" fill="#808080"/>
<path d="M77.2984 77.9432H45.6289C45.0933 77.9432 44.6592 77.5103 44.6592 76.9762C44.6592 76.4421 45.0933 76.0093 45.6289 76.0093H77.2984C77.834 76.0093 78.2681 76.4421 78.2681 76.9762C78.2681 77.5103 77.834 77.9432 77.2984 77.9432Z" fill="#808080"/>
<path d="M77.5964 92.9358L76.3504 89.9636C76.242 89.7052 75.9625 89.5624 75.6888 89.626L72.5425 90.3563C72.0653 90.4671 71.6764 89.9706 71.8996 89.5357L78.7663 76.1577L85.5066 79.598L78.6399 92.9759C78.4167 93.4108 77.7854 93.3865 77.5964 92.9358Z" fill="#DB636E"/>
<path d="M88.2403 92.9357L89.4863 89.9635C89.5946 89.7051 89.8742 89.5623 90.1479 89.6259L93.2942 90.3562C93.7713 90.4669 94.1603 89.9705 93.937 89.5355L87.0704 76.1575L80.3301 79.5978L87.1967 92.9757C87.4201 93.4107 88.0513 93.3864 88.2403 92.9357Z" fill="#DB636E"/>
<path d="M84.9274 63.6621C85.5315 64.6526 86.7708 65.0542 87.8433 64.6069C89.4695 63.9289 91.2379 65.2102 91.0939 66.962C90.9989 68.1174 91.7648 69.1687 92.8961 69.4356C94.6114 69.8403 95.2869 71.9134 94.1377 73.2462C93.3798 74.1252 93.3798 75.4245 94.1377 76.3036C95.2869 77.6364 94.6114 79.7095 92.8961 80.1142C91.7649 80.3811 90.9989 81.4324 91.0939 82.5878C91.2381 84.3396 89.4695 85.6209 87.8433 84.9429C86.7708 84.4958 85.5315 84.8972 84.9274 85.8877C84.0114 87.3893 81.8255 87.3893 80.9095 85.8877C80.3053 84.8972 79.0661 84.4956 77.9935 84.9429C76.3673 85.6209 74.5989 84.3396 74.7429 82.5878C74.8379 81.4324 74.0721 80.3811 72.9407 80.1142C71.2254 79.7095 70.55 77.6364 71.6991 76.3036C72.4571 75.4245 72.4571 74.1252 71.6991 73.2462C70.55 71.9134 71.2254 69.8403 72.9407 69.4356C74.0719 69.1687 74.8379 68.1174 74.7429 66.962C74.5988 65.2102 76.3673 63.9289 77.9935 64.6069C79.0661 65.054 80.3053 64.6526 80.9095 63.6621C81.8255 62.1605 84.0114 62.1605 84.9274 63.6621Z" fill="#E49542"/>
<path d="M82.9184 80.379C86.0223 80.379 88.5384 77.8698 88.5384 74.7747C88.5384 71.6795 86.0223 69.1704 82.9184 69.1704C79.8145 69.1704 77.2983 71.6795 77.2983 74.7747C77.2983 77.8698 79.8145 80.379 82.9184 80.379Z" fill="#FCF7E0"/>
</svg>
