<svg width="92" height="93" viewBox="0 0 92 93" fill="none" xmlns="http://www.w3.org/2000/svg">
<rect x="1.58789" y="1.71045" width="89.3827" height="89.3827" rx="22" stroke="white" stroke-width="2"/>
<path d="M40.5011 73.0052C40.2227 72.9943 39.9502 72.9218 39.7036 72.7928C39.4569 72.6639 39.2423 72.4817 39.0752 72.2598C38.9082 72.0378 38.793 71.7815 38.738 71.5095C38.683 71.2376 38.6897 70.9569 38.7574 70.6879C39.4306 67.7326 40.0956 64.7774 40.7768 61.806C41.4581 58.8346 42.188 55.7501 42.8773 52.7141C43.4531 50.1868 44.0208 47.6595 44.5967 45.1322C45.1725 42.6049 45.7564 40.0857 46.3403 37.5584C46.9567 34.8615 47.5568 32.1566 48.1732 29.4839L49.925 21.8455C49.9898 21.5629 50.0304 21.2722 50.1196 20.9977C50.2729 20.5267 50.6035 20.1332 51.0421 19.8998C51.4807 19.6664 51.993 19.6113 52.4715 19.7461C52.9613 19.9023 53.3699 20.2435 53.6095 20.6965C53.8492 21.1495 53.9006 21.6781 53.7529 22.1685C53.0717 25.1076 52.4066 28.0467 51.7254 30.9858C51.1496 33.505 50.5575 36.0162 49.9817 38.5273C49.487 40.7074 49.0004 42.8794 48.5057 45.0596C48.011 47.2397 47.4919 49.3794 46.9972 51.5191C46.5025 53.6588 46.0159 55.8793 45.5212 58.0513C45.0265 60.2234 44.5074 62.3792 44.0127 64.5109L42.6502 70.5344C42.5773 70.8736 42.5043 71.2208 42.4151 71.5518C42.3073 71.9734 42.0596 72.3464 41.7121 72.6102C41.3647 72.874 40.9379 73.0132 40.5011 73.0052Z" fill="white"/>
<path d="M24.5079 48.9352C25.1972 49.4681 25.8298 49.9687 26.4624 50.4693L36.5594 58.3742C36.8702 58.5848 37.1094 58.8844 37.2456 59.2333C37.3817 59.5822 37.4082 59.964 37.3217 60.3282C37.2677 60.6827 37.1032 61.0114 36.8514 61.2678C36.5997 61.5243 36.2734 61.6955 35.9187 61.7574C35.6113 61.7926 35.2998 61.7641 35.004 61.6738C34.7081 61.5834 34.4342 61.4332 34.1994 61.2326C33.3884 60.627 32.5774 59.9972 31.7663 59.3755L20.3879 50.5097C20.1134 50.3333 19.8877 50.0913 19.7314 49.8056C19.5751 49.52 19.4932 49.1999 19.4932 48.8746C19.4932 48.5494 19.5751 48.2293 19.7314 47.9436C19.8877 47.658 20.1134 47.4159 20.3879 47.2396L33.8831 36.6217C34.2565 36.2606 34.7433 36.0382 35.2618 35.9918C35.6585 35.9694 36.0524 36.07 36.3894 36.2796C36.7263 36.4893 36.9897 36.7978 37.1433 37.1626C37.3037 37.532 37.3398 37.9431 37.2463 38.3345C37.1527 38.726 36.9345 39.0768 36.6243 39.3347C35.9674 39.8918 35.278 40.4166 34.5968 40.9496C31.2987 43.5603 28.0033 46.1549 24.7106 48.7333L24.5079 48.9352Z" fill="white"/>
<path d="M67.7589 46.3114L66.0071 44.9226L56.3967 37.4295C56.1066 37.2362 55.8768 36.9657 55.7334 36.6488C55.59 36.3319 55.5388 35.9813 55.5857 35.6369C55.6205 35.2813 55.7598 34.9438 55.9863 34.6666C56.2128 34.3894 56.5163 34.1849 56.859 34.0786C57.1735 33.9658 57.5125 33.9377 57.8415 33.9973C58.1705 34.0568 58.4778 34.2019 58.7324 34.4177L62.2602 37.2034L70.9461 44.0101C71.3111 44.2928 71.676 44.5754 72.0329 44.8741C72.271 45.049 72.4645 45.2771 72.5979 45.5401C72.7312 45.803 72.8007 46.0935 72.8007 46.3881C72.8007 46.6827 72.7312 46.9731 72.5979 47.2361C72.4645 47.499 72.271 47.7272 72.0329 47.902C70.8407 48.8629 69.5998 49.7834 68.4077 50.7281L58.7973 58.1727C58.531 58.3976 58.2332 58.5826 57.9133 58.7218C57.5112 58.8649 57.0713 58.8624 56.6708 58.7147C56.2704 58.5671 55.935 58.2837 55.7235 57.9144C55.4925 57.5423 55.4008 57.1009 55.4646 56.6681C55.5284 56.2353 55.7436 55.8388 56.0723 55.5485C56.713 54.9914 57.4023 54.4827 58.0755 53.9336L67.4831 46.5617C67.5642 46.5294 67.6291 46.4567 67.7589 46.3114Z" fill="white"/>
</svg>
