<svg width="121" height="121" viewBox="0 0 121 121" fill="none" xmlns="http://www.w3.org/2000/svg">
<circle cx="60.4333" cy="60.5341" r="60.2853" fill="#F6F7FF"/>
<path d="M81.0994 95.9258H40.3637C35.42 95.9258 31.4019 91.9076 31.4019 86.9639V36.4516C31.4019 31.5079 35.42 27.4897 40.3637 27.4897H81.0994C86.0431 27.4897 90.0613 31.5079 90.0613 36.4516V86.9639C90.0613 91.9076 86.0431 95.9258 81.0994 95.9258Z" fill="#ECEFF1"/>
<path d="M60.7313 82.9001C60.1904 82.9001 59.6494 82.7209 59.2029 82.3657C55.5106 79.4131 52.0367 78.8689 48.8756 80.746C47.647 81.4825 46.161 81.489 44.8933 80.7721C43.606 80.0388 42.8076 78.6701 42.8076 77.1971V54.2645C42.8076 52.5048 43.593 50.8493 44.9128 49.8423C49.7522 46.1272 55.3118 46.1044 60.7313 49.7249C66.1508 46.1076 71.7104 46.1272 76.5531 49.839C77.8696 50.8493 78.6583 52.5015 78.6583 54.2613V77.1939C78.6583 78.6669 77.8599 80.0356 76.5694 80.7688C75.3049 81.489 73.8189 81.4793 72.587 80.7428C69.4259 78.8591 65.952 79.4099 62.2597 82.3624C61.8133 82.7209 61.2723 82.9001 60.7313 82.9001Z" fill="#AF994C"/>
<path d="M44.4373 27.4897H40.3637C35.42 27.4897 31.4019 31.5079 31.4019 36.4516V86.9639C31.4019 91.9076 35.42 95.9258 40.3637 95.9258H60.7315V82.9001C60.1906 82.9001 59.6496 82.7209 59.2031 82.3656C56.9447 80.557 54.7646 79.6543 52.6919 79.6543C51.3754 79.6543 50.1044 80.0193 48.8758 80.746C48.2534 81.1175 47.5658 81.3033 46.8749 81.3033C46.2003 81.3033 45.5192 81.1273 44.8935 80.7721C43.6063 80.0388 42.8078 78.6701 42.8078 77.1971V54.2645C42.8078 52.5047 43.5932 50.8492 44.9131 49.8422C47.3572 47.9684 49.9806 47.0331 52.6822 47.0331C55.3316 47.0331 58.0495 47.9326 60.7348 49.7282V37.2663H50.1403C46.9955 37.2663 44.4373 34.7081 44.4373 31.5633V27.4897Z" fill="#D2D4D6"/>
<path d="M52.6787 47.0332C49.9804 47.0332 47.3537 47.9685 44.9096 49.8423C43.593 50.8493 42.8076 52.5048 42.8076 54.2646V77.1972C42.8076 78.6702 43.606 80.0389 44.8965 80.7721C45.5222 81.1274 46.2001 81.3033 46.8779 81.3033C47.5688 81.3033 48.2564 81.1176 48.8789 80.7461C50.1042 80.0161 51.3784 79.6543 52.695 79.6543C54.7709 79.6543 56.9478 80.5603 59.2062 82.3657C59.6527 82.7209 60.1936 82.9002 60.7346 82.9002V49.725C58.0461 47.9326 55.3282 47.0332 52.6787 47.0332Z" fill="#938040"/>
</svg>
