<svg width="93" height="92" viewBox="0 0 93 92" fill="none" xmlns="http://www.w3.org/2000/svg">
<rect x="1.68604" y="1.59033" width="89.3827" height="89.3827" rx="22" stroke="white" stroke-width="2"/>
<path d="M67.6514 23.9122H63.3371V19.7555C63.3371 19.3109 63.1612 18.8843 62.8478 18.5691C62.5344 18.2539 62.109 18.0756 61.6647 18.0732H56.692C56.2461 18.0732 55.8185 18.2505 55.5032 18.566C55.1879 18.8815 55.0108 19.3093 55.0108 19.7555V23.9122H38.1091V19.7555C38.1093 19.3169 37.9383 18.8957 37.6325 18.5814C37.3268 18.2672 36.9105 18.0848 36.4723 18.0732H31.5086C31.0673 18.0803 30.6465 18.2606 30.337 18.5753C30.0274 18.89 29.854 19.3139 29.854 19.7555V23.9122H25.4863C24.051 23.9122 22.6744 24.4821 21.6587 25.4967C20.643 26.5114 20.0712 27.8878 20.0688 29.3239V67.5977C20.0688 69.0353 20.6396 70.4141 21.6556 71.4307C22.6715 72.4472 24.0495 73.0183 25.4863 73.0183H67.6514C69.0882 73.0183 70.4662 72.4472 71.4821 71.4307C72.4981 70.4141 73.0688 69.0353 73.0688 67.5977V29.3239C73.0665 27.8878 72.4947 26.5114 71.479 25.4967C70.4633 24.4821 69.0867 23.9122 67.6514 23.9122ZM56.7899 19.8534H61.5579V28.5051H56.7899V19.8534ZM31.6331 19.8534H36.4012V28.5051H31.6331V19.8534ZM71.0229 67.5799C71.0229 68.4746 70.6677 69.3326 70.0354 69.9653C69.4031 70.5979 68.5456 70.9533 67.6514 70.9533H25.4863C24.5921 70.9533 23.7346 70.5979 23.1023 69.9653C22.47 69.3326 22.1148 68.4746 22.1148 67.5799V38.9013H71.0406L71.0229 67.5799ZM71.0229 36.7206H22.1148V29.3239C22.1172 28.4308 22.4734 27.575 23.1054 26.9443C23.7375 26.3136 24.5936 25.9594 25.4863 25.9594H29.854V28.6297C29.854 29.0758 30.0311 29.5037 30.3464 29.8192C30.6617 30.1347 31.0894 30.3119 31.5353 30.3119H36.499C36.9449 30.3119 37.3726 30.1347 37.6879 29.8192C38.0032 29.5037 38.1803 29.0758 38.1803 28.6297V25.9594H55.0819V28.6297C55.0819 29.0758 55.2591 29.5037 55.5744 29.8192C55.8897 30.1347 56.3173 30.3119 56.7632 30.3119H61.7358C62.1802 30.3096 62.6056 30.1313 62.9189 29.8161C63.2323 29.5008 63.4082 29.0743 63.4082 28.6297V25.9594H67.7226C68.6152 25.9594 69.4714 26.3136 70.1034 26.9443C70.7354 27.575 71.0917 28.4308 71.094 29.3239L71.0229 36.7206Z" fill="white"/>
<path d="M57.8395 51.6648C57.78 51.4834 57.671 51.3223 57.5248 51.1996C57.3786 51.0769 57.2011 50.9976 57.0122 50.9706L49.9669 49.947L46.8178 43.5561C46.7331 43.3855 46.6025 43.2418 46.4406 43.1414C46.2787 43.041 46.092 42.9878 45.9016 42.9878C45.7111 42.9878 45.5244 43.041 45.3626 43.1414C45.2007 43.2418 45.07 43.3855 44.9853 43.5561L41.8363 49.947L34.791 51.0062C34.5954 51.0294 34.4106 51.1087 34.259 51.2344C34.1073 51.3602 33.9951 51.5271 33.9359 51.7151C33.8768 51.9031 33.8731 52.1042 33.9253 52.2942C33.9776 52.4842 34.0836 52.6551 34.2305 52.7863L39.3188 57.753L38.1179 64.7758C38.0878 64.9636 38.11 65.156 38.1822 65.3319C38.2544 65.5078 38.3738 65.6604 38.5271 65.7727C38.6919 65.8813 38.8845 65.94 39.0818 65.9415C39.2791 65.9431 39.4726 65.8876 39.6391 65.7816L45.866 62.4705L52.1641 65.7816C52.3331 65.87 52.5235 65.9093 52.7137 65.8952C52.9039 65.881 53.0863 65.8139 53.2404 65.7015C53.397 65.592 53.5187 65.4399 53.5913 65.2632C53.6638 65.0864 53.6841 64.8925 53.6496 64.7046L52.4843 57.6818L57.5815 52.7151C57.7165 52.5805 57.8119 52.4113 57.8574 52.2261C57.9029 52.0409 57.8967 51.8468 57.8395 51.6648ZM50.6696 56.5959C50.554 56.7106 50.4671 56.851 50.4161 57.0057C50.3651 57.1604 50.3513 57.325 50.3761 57.486L51.319 62.9867L46.3819 60.3877C46.2356 60.309 46.0721 60.2678 45.906 60.2678C45.7399 60.2678 45.5764 60.309 45.4301 60.3877L40.5286 63.0045L41.4182 57.5038C41.4451 57.3427 41.4325 57.1775 41.3814 57.0225C41.3302 56.8674 41.2421 56.7271 41.1246 56.6137L37.1394 52.6973L42.6636 51.8963C42.8269 51.8715 42.9817 51.8076 43.1149 51.7099C43.2482 51.6123 43.3558 51.4838 43.4286 51.3355L45.866 46.3243L48.339 51.3355C48.413 51.4829 48.5209 51.6106 48.6539 51.7081C48.7869 51.8056 48.9412 51.8701 49.104 51.8963L54.6282 52.6973L50.6696 56.5959Z" fill="white"/>
</svg>
