<svg width="92" height="93" viewBox="0 0 92 93" fill="none" xmlns="http://www.w3.org/2000/svg">
<rect x="1.58789" y="1.65234" width="89.3827" height="89.3827" rx="22" stroke="white" stroke-width="2"/>
<path d="M18.4521 38.496L44.4403 27.2322C44.8174 27.0685 45.2252 26.9839 45.6376 26.9839C46.0499 26.9839 46.4577 27.0685 46.8348 27.2322L72.5075 38.496C72.9712 38.6751 73.3692 38.9871 73.6498 39.3914C73.9303 39.7957 74.0803 40.2736 74.0803 40.7629C74.0803 41.2521 73.9303 41.7301 73.6498 42.1344C73.3692 42.5387 72.9712 42.8507 72.5075 43.0297L46.842 54.0331C46.471 54.1916 46.0708 54.2735 45.6662 54.2735C45.2617 54.2735 44.8615 54.1916 44.4905 54.0331L18.4736 43.0368C18.0068 42.8611 17.605 42.551 17.3208 42.1471C17.0365 41.7433 16.8832 41.2645 16.8809 40.7736C16.8786 40.2827 17.0273 39.8026 17.3077 39.3962C17.5881 38.9897 17.987 38.676 18.4521 38.496V38.496Z" stroke="white" stroke-width="2.4" stroke-linecap="round" stroke-linejoin="round"/>
<path d="M24.6177 45.6417V52.9209C24.6283 53.4175 24.7886 53.8999 25.0782 54.3071C25.3679 54.7143 25.7739 55.0281 26.2451 55.2089L44.4977 62.7134C45.2304 63.0088 46.052 63.0088 46.7847 62.7134L64.9657 55.2089C65.436 55.0278 65.8411 54.7137 66.1295 54.3064C66.4179 53.8991 66.5768 53.4169 66.5859 52.9209V45.522" stroke="white" stroke-width="2.4" stroke-linecap="round" stroke-linejoin="round"/>
<path d="M72.9735 42.7759V55.673C72.9713 55.9929 72.903 56.309 72.7728 56.6023L70.3424 62.1497C70.2014 62.4682 70.1346 62.8137 70.147 63.1609C70.1594 63.508 70.2507 63.848 70.4141 64.1561V64.1561C70.6659 64.5942 71.0327 64.958 71.4762 65.2098C71.9197 65.4616 72.4238 65.5921 72.936 65.5878C73.4483 65.5835 73.95 65.4445 74.3891 65.1853C74.8281 64.9261 75.1884 64.5561 75.4325 64.1138V64.1138C75.5837 63.82 75.6696 63.4979 75.6844 63.169C75.6993 62.8401 75.6427 62.5119 75.5186 62.206L72.995 56.1799" stroke="white" stroke-width="2.4" stroke-linecap="round" stroke-linejoin="round"/>
</svg>
