<svg width="134" height="97" viewBox="0 0 134 97" fill="none" xmlns="http://www.w3.org/2000/svg">
<path d="M132.453 31.5671L67.7309 0.338062C67.5703 0.260813 67.3943 0.220703 67.216 0.220703C67.0378 0.220703 66.8618 0.260813 66.7011 0.338062L1.17137 31.684C0.967782 31.7802 0.795712 31.9322 0.675207 32.1224C0.554702 32.3126 0.490723 32.5332 0.490723 32.7583C0.490723 32.9835 0.554702 33.2041 0.675207 33.3943C0.795712 33.5845 0.967782 33.7365 1.17137 33.8327L23.6094 44.2893V63.3012C23.6097 63.5296 23.6758 63.753 23.7998 63.9447C23.9238 64.1365 24.1004 64.2885 24.3085 64.3825L66.713 83.5925C66.8676 83.6612 67.0349 83.697 67.2041 83.6974C67.3737 83.6976 67.5412 83.6612 67.6953 83.5905L109.967 64.3805C110.175 64.2862 110.351 64.1341 110.475 63.9424C110.598 63.7506 110.664 63.5274 110.664 63.2992V44.0239L121.16 39.0491V66.7095L115.043 82.0715C114.982 82.2235 114.953 82.3863 114.959 82.5499C114.964 82.7135 115.002 82.8742 115.073 83.0221L121.267 96.0334C121.364 96.2362 121.516 96.4075 121.706 96.5274C121.896 96.6472 122.116 96.7108 122.341 96.7107C122.567 96.7088 122.788 96.6424 122.978 96.5193C123.168 96.3962 123.318 96.2214 123.412 96.0156L129.353 83.0043C129.418 82.8609 129.454 82.706 129.459 82.5486C129.464 82.3912 129.437 82.2344 129.381 82.0874L123.527 66.7194V37.9242L132.421 33.7099C132.623 33.6131 132.793 33.4611 132.913 33.2715C133.032 33.082 133.095 32.8625 133.095 32.6385C133.095 32.4145 133.032 32.1951 132.913 32.0055C132.793 31.816 132.623 31.664 132.421 31.5671H132.453ZM108.292 62.5328L67.2141 81.2061L25.9958 62.5308V45.3983L66.713 64.3845C66.87 64.4572 67.041 64.495 67.2141 64.4954C67.3902 64.4958 67.5641 64.4566 67.723 64.3805L108.298 45.1587L108.292 62.5328ZM127.003 82.4696L122.331 92.7043L117.455 82.4617L122.339 70.2029L127.003 82.4696ZM121.895 36.0765L109.022 42.1762L108.919 42.2257L67.2101 61.9842L25.3522 42.4772L25.271 42.4396L4.47668 32.7356L67.2121 2.72643L129.181 32.6306L121.895 36.0765Z" fill="#737023"/>
</svg>
