<svg width="89" height="89" viewBox="0 0 89 89" fill="none" xmlns="http://www.w3.org/2000/svg">
<path d="M84.7158 88.131H4.19658C2.22886 88.131 0.633789 86.5359 0.633789 84.5682V82.0634C0.633789 81.479 1.10745 81.0054 1.69186 81.0054H87.2205C87.8049 81.0054 88.2786 81.479 88.2786 82.0634V84.5682C88.2786 86.5359 86.6835 88.131 84.7158 88.131Z" fill="#4A80AA"/>
<path d="M83.6468 81.0054V84.5682C83.6468 86.5359 82.0517 88.131 80.084 88.131H84.7156C86.6834 88.131 88.2784 86.5359 88.2784 84.5682V82.0634C88.2784 81.479 87.8048 81.0054 87.2204 81.0054H83.6468Z" fill="#407093"/>
<path d="M83.6471 81.0051H5.26562V29.3445C5.26562 27.3768 6.86069 25.7817 8.82842 25.7817H80.0843C82.052 25.7817 83.6471 27.3768 83.6471 29.3445V81.0051Z" fill="#4A80AA"/>
<path d="M5.26562 76.73H83.6471V81.0054H5.26562V76.73Z" fill="#407093"/>
<path d="M10.9658 73.5413V33.2459C10.9658 32.2719 11.7553 31.4824 12.7293 31.4824H76.1828C77.1568 31.4824 77.9463 32.2719 77.9463 33.2459V73.5413C77.9463 74.5153 77.1568 75.3048 76.1828 75.3048H12.7293C11.7553 75.3048 10.9658 74.5153 10.9658 73.5413Z" fill="#80B4FB"/>
<path d="M72.9585 11.531V75.3051H15.9538V11.531H72.9585Z" fill="#E4F6FF"/>
<path d="M68.8613 11.5308H72.9585V75.3048H68.8613V11.5308Z" fill="#B9E4EF"/>
<path d="M21.6543 42.545V18.9947C21.6543 18.0207 22.4438 17.2312 23.4178 17.2312H65.4947C66.4687 17.2312 67.2582 18.0207 67.2582 18.9947V42.545C67.2582 43.519 66.4687 44.3085 65.4947 44.3085H23.4178C22.4438 44.3085 21.6543 43.519 21.6543 42.545Z" fill="#80B4FB"/>
<path d="M50.1567 65.3468V50.4498C50.1567 49.4758 50.9462 48.6863 51.9202 48.6863H65.4947C66.4688 48.6863 67.2583 49.4758 67.2583 50.4498V65.3468C67.2583 66.3209 66.4688 67.1103 65.4947 67.1103H51.9202C50.9462 67.1103 50.1567 66.3209 50.1567 65.3468Z" fill="#E278B1"/>
<path d="M15.9536 11.5307V4.04888C15.9536 2.08115 17.5487 0.486084 19.5164 0.486084H69.3955C71.3632 0.486084 72.9583 2.08115 72.9583 4.04888V11.5307H15.9536Z" fill="#80B4FB"/>
<path d="M69.396 0.486084H65.2988C67.2666 0.486084 68.8616 2.08115 68.8616 4.04888V11.5307H72.9588V4.04888C72.9588 2.08115 71.3638 0.486084 69.396 0.486084V0.486084Z" fill="#61A2F9"/>
<path d="M66.7411 43.7918C66.4219 44.1111 65.9811 44.3084 65.4944 44.3084H32.3428L40.8921 35.7574L48.5524 28.0971C49.2411 27.4084 50.3577 27.4084 51.0464 28.0971L66.7411 43.7918Z" fill="#66B49D"/>
<path d="M49.4436 44.3084H23.4181C22.9314 44.3084 22.4905 44.1109 22.1714 43.7918L34.3021 31.661C34.9908 30.9724 36.1074 30.9724 36.7961 31.661L40.8924 35.7574L49.4436 44.3084Z" fill="#A2F4C1"/>
<path d="M44.4561 51.3314H22.9768C22.2464 51.3314 21.6543 50.7393 21.6543 50.0088C21.6543 49.2784 22.2464 48.6863 22.9768 48.6863H44.4561C45.1866 48.6863 45.7787 49.2784 45.7787 50.0088C45.7787 50.7393 45.1866 51.3314 44.4561 51.3314Z" fill="#93D8E4"/>
<path d="M44.4561 57.0318H22.9768C22.2464 57.0318 21.6543 56.4397 21.6543 55.7093C21.6543 54.9788 22.2464 54.3867 22.9768 54.3867H44.4561C45.1866 54.3867 45.7787 54.9788 45.7787 55.7093C45.7787 56.4397 45.1866 57.0318 44.4561 57.0318Z" fill="#93D8E4"/>
<path d="M44.4561 62.7325H22.9768C22.2464 62.7325 21.6543 62.1404 21.6543 61.41C21.6543 60.6795 22.2464 60.0874 22.9768 60.0874H44.4561C45.1866 60.0874 45.7787 60.6795 45.7787 61.41C45.7787 62.1404 45.1866 62.7325 44.4561 62.7325Z" fill="#93D8E4"/>
<path d="M31.9863 68.4332H22.9768C22.2464 68.4332 21.6543 67.8411 21.6543 67.1106C21.6543 66.3802 22.2464 65.7881 22.9768 65.7881H31.9863C32.7167 65.7881 33.3088 66.3802 33.3088 67.1106C33.309 67.8409 32.7169 68.4332 31.9863 68.4332Z" fill="#93D8E4"/>
<path d="M65.8333 7.43342C66.6203 7.43342 67.2584 6.79539 67.2584 6.00833C67.2584 5.22128 66.6203 4.58325 65.8333 4.58325C65.0462 4.58325 64.4082 5.22128 64.4082 6.00833C64.4082 6.79539 65.0462 7.43342 65.8333 7.43342Z" fill="#A2F4C1"/>
<path d="M60.1326 7.43342C60.9197 7.43342 61.5577 6.79539 61.5577 6.00833C61.5577 5.22128 60.9197 4.58325 60.1326 4.58325C59.3455 4.58325 58.7075 5.22128 58.7075 6.00833C58.7075 6.79539 59.3455 7.43342 60.1326 7.43342Z" fill="#FFE07D"/>
<path d="M54.4319 7.43342C55.219 7.43342 55.857 6.79539 55.857 6.00833C55.857 5.22128 55.219 4.58325 54.4319 4.58325C53.6449 4.58325 53.0068 5.22128 53.0068 6.00833C53.0068 6.79539 53.6449 7.43342 54.4319 7.43342Z" fill="#E278B1"/>
</svg>
