<svg width="273" height="38" viewBox="0 0 273 38" fill="none" xmlns="http://www.w3.org/2000/svg">
<path d="M18.3081 36.978H8.95511C7.77991 37.0456 6.60383 36.8628 5.49816 36.4408C4.40478 36.0184 3.40604 35.3654 2.56387 34.5225C1.73915 33.6889 1.09772 32.6776 0.684099 31.5587C0.264438 30.4566 0.0858518 29.2702 0.16143 28.0865V9.61291C0.0920127 8.42155 0.276812 7.22896 0.702438 6.12154C1.12692 4.9964 1.78095 3.98167 2.61889 3.14812C3.47165 2.30052 4.4833 1.6473 5.58985 1.22978C6.70719 0.803393 7.89611 0.620601 9.08348 0.692645H27.6703C28.8249 0.633245 29.9791 0.81923 31.0631 1.23937C32.1409 1.64479 33.1273 2.27823 33.9607 3.10016C34.7816 3.90742 35.4287 4.88836 35.8588 5.97766C36.28 7.03684 36.477 8.1788 36.4365 9.32516C36.4915 15.6557 36.4915 21.9862 36.4365 28.3167C36.51 29.4775 36.3346 30.6409 35.923 31.7217C35.5119 32.8051 34.887 33.7856 34.0891 34.5992C33.256 35.415 32.2749 36.0476 31.2038 36.4594C30.1328 36.8713 28.9936 37.0542 27.8537 36.9972L18.3081 36.978Z" fill="#24735C"/>
<path d="M26.7532 25.9866C28.1837 25.2255 27.5693 24.3911 27.2851 24.1527C27.2232 24.0876 27.1522 24.032 27.0742 23.9876L21.5265 20.7599L21.389 20.6224C21.0483 20.336 20.6302 20.1573 20.1878 20.1089C19.7426 20.0547 19.2915 20.1379 18.8949 20.3473C18.2713 20.6682 16.7216 21.4568 15.9147 21.8419C15.9147 21.8419 15.2453 22.1995 14.9978 21.7044C14.7502 21.2092 15.4012 20.7874 15.4012 20.7874L27.1659 13.8735C27.2994 13.7937 27.4124 13.6838 27.496 13.5526C27.5802 13.4194 27.6334 13.269 27.6518 13.1124C27.6698 12.955 27.65 12.7956 27.5942 12.6473C27.5384 12.4991 27.4482 12.3662 27.3309 12.2597L27.1659 12.1313C26.4323 11.7003 20.4995 8.27087 19.6284 7.7482C19.0507 7.39058 18.7115 7.41809 18.5739 7.47311C18.1796 7.69318 9.94529 12.4522 9.46847 12.6998C9.32541 12.7925 9.20355 12.9144 9.11085 13.0574C9.01952 13.2047 8.96306 13.3709 8.9458 13.5434V24.1802C8.98341 24.3959 9.08206 24.5964 9.23006 24.7579L9.35843 24.8496L17.9595 29.8378C18.1688 29.9843 18.3971 30.1016 18.6381 30.1863C18.8451 30.2636 19.073 30.2636 19.28 30.1863L19.5 30.0763L19.6559 29.9846L26.7532 25.9866Z" fill="#FBFCFC"/>
<path d="M46.026 29.8424V8.54238H54.966C55.926 8.54238 56.806 8.74238 57.606 9.14237C58.426 9.54238 59.126 10.0724 59.706 10.7324C60.286 11.3724 60.736 12.1124 61.056 12.9524C61.396 13.7724 61.566 14.6124 61.566 15.4724C61.566 16.3724 61.406 17.2424 61.086 18.0824C60.786 18.9024 60.356 19.6424 59.796 20.3024C59.236 20.9424 58.556 21.4624 57.756 21.8624C56.976 22.2424 56.106 22.4324 55.146 22.4324H49.386V29.8424H46.026ZM49.386 19.4624H54.936C55.416 19.4624 55.846 19.3624 56.226 19.1624C56.626 18.9624 56.966 18.6824 57.246 18.3224C57.526 17.9624 57.746 17.5424 57.906 17.0624C58.066 16.5824 58.146 16.0524 58.146 15.4724C58.146 14.8724 58.056 14.3324 57.876 13.8524C57.696 13.3724 57.446 12.9624 57.126 12.6224C56.806 12.2624 56.436 11.9924 56.016 11.8124C55.616 11.6124 55.196 11.5124 54.756 11.5124H49.386V19.4624ZM70.9079 30.1424C69.6679 30.1424 68.5479 29.9224 67.5479 29.4824C66.5679 29.0424 65.7279 28.4524 65.0279 27.7124C64.3279 26.9724 63.7879 26.1124 63.4079 25.1324C63.0279 24.1324 62.8379 23.0924 62.8379 22.0124C62.8379 20.9324 63.0279 19.9024 63.4079 18.9224C63.7879 17.9224 64.3279 17.0524 65.0279 16.3124C65.7479 15.5724 66.5979 14.9824 67.5779 14.5424C68.5779 14.1024 69.6879 13.8824 70.9079 13.8824C72.1279 13.8824 73.2279 14.1024 74.2079 14.5424C75.2079 14.9824 76.0579 15.5724 76.7579 16.3124C77.4779 17.0524 78.0279 17.9224 78.4079 18.9224C78.7879 19.9024 78.9779 20.9324 78.9779 22.0124C78.9779 23.0924 78.7879 24.1324 78.4079 25.1324C78.0279 26.1124 77.4779 26.9724 76.7579 27.7124C76.0579 28.4524 75.2079 29.0424 74.2079 29.4824C73.2279 29.9224 72.1279 30.1424 70.9079 30.1424ZM66.2279 22.0424C66.2279 22.8024 66.3479 23.5024 66.5879 24.1424C66.8279 24.7824 67.1579 25.3424 67.5779 25.8224C67.9979 26.2824 68.4879 26.6524 69.0479 26.9324C69.6279 27.1924 70.2479 27.3224 70.9079 27.3224C71.5679 27.3224 72.1779 27.1924 72.7379 26.9324C73.3179 26.6524 73.8179 26.2724 74.2379 25.7924C74.6579 25.3124 74.9879 24.7524 75.2279 24.1124C75.4679 23.4724 75.5879 22.7724 75.5879 22.0124C75.5879 21.2724 75.4679 20.5824 75.2279 19.9424C74.9879 19.2824 74.6579 18.7124 74.2379 18.2324C73.8179 17.7524 73.3179 17.3824 72.7379 17.1224C72.1779 16.8424 71.5679 16.7024 70.9079 16.7024C70.2679 16.7024 69.6579 16.8424 69.0779 17.1224C68.5179 17.4024 68.0279 17.7824 67.6079 18.2624C67.1879 18.7424 66.8479 19.3124 66.5879 19.9724C66.3479 20.6124 66.2279 21.3024 66.2279 22.0424ZM100.94 14.1524H104.09L97.4596 29.8424H94.7596L91.8196 22.5524L88.9096 29.8424H86.1796L79.5796 14.1524H82.6996L87.7696 26.6624L90.0496 20.8424L87.3196 14.1824H90.0196L91.8196 19.1024L93.6196 14.1824H96.3196L93.6196 20.8424L95.8996 26.6624L100.94 14.1524ZM113.419 30.1424C112.199 30.1424 111.089 29.9324 110.089 29.5124C109.089 29.0724 108.229 28.4824 107.509 27.7424C106.809 27.0024 106.259 26.1424 105.859 25.1624C105.479 24.1824 105.289 23.1424 105.289 22.0424C105.289 20.9424 105.479 19.9024 105.859 18.9224C106.259 17.9224 106.809 17.0524 107.509 16.3124C108.229 15.5524 109.089 14.9624 110.089 14.5424C111.089 14.1024 112.209 13.8824 113.449 13.8824C114.669 13.8824 115.769 14.1024 116.749 14.5424C117.749 14.9824 118.599 15.5724 119.299 16.3124C119.999 17.0324 120.529 17.8824 120.889 18.8624C121.269 19.8224 121.459 20.8324 121.459 21.8924C121.459 22.1324 121.449 22.3624 121.429 22.5824C121.409 22.7824 121.389 22.9524 121.369 23.0924H108.799C108.859 23.7924 109.019 24.4224 109.279 24.9824C109.559 25.5424 109.909 26.0324 110.329 26.4524C110.769 26.8524 111.259 27.1624 111.799 27.3824C112.359 27.6024 112.939 27.7124 113.539 27.7124C113.979 27.7124 114.409 27.6624 114.829 27.5624C115.269 27.4424 115.669 27.2824 116.029 27.0824C116.389 26.8624 116.709 26.6024 116.989 26.3024C117.269 26.0024 117.489 25.6724 117.649 25.3124L120.469 26.1224C119.929 27.3024 119.029 28.2724 117.769 29.0324C116.529 29.7724 115.079 30.1424 113.419 30.1424ZM118.189 20.8124C118.129 20.1524 117.959 19.5424 117.679 18.9824C117.419 18.4224 117.079 17.9524 116.659 17.5724C116.239 17.1724 115.749 16.8624 115.189 16.6424C114.629 16.4224 114.039 16.3124 113.419 16.3124C112.799 16.3124 112.209 16.4224 111.649 16.6424C111.109 16.8624 110.629 17.1724 110.209 17.5724C109.789 17.9524 109.449 18.4224 109.189 18.9824C108.929 19.5424 108.769 20.1524 108.709 20.8124H118.189ZM132.911 17.0024C131.631 17.0424 130.501 17.3424 129.521 17.9024C128.541 18.4424 127.831 19.2224 127.391 20.2424V29.8424H124.091V14.1524H127.151V17.6624C127.711 16.5824 128.421 15.7024 129.281 15.0224C130.161 14.3424 131.091 14.0024 132.071 14.0024C132.271 14.0024 132.431 14.0024 132.551 14.0024C132.691 14.0024 132.811 14.0124 132.911 14.0324V17.0024ZM142.482 30.1424C141.262 30.1424 140.152 29.9324 139.152 29.5124C138.152 29.0724 137.292 28.4824 136.572 27.7424C135.872 27.0024 135.322 26.1424 134.922 25.1624C134.542 24.1824 134.352 23.1424 134.352 22.0424C134.352 20.9424 134.542 19.9024 134.922 18.9224C135.322 17.9224 135.872 17.0524 136.572 16.3124C137.292 15.5524 138.152 14.9624 139.152 14.5424C140.152 14.1024 141.272 13.8824 142.512 13.8824C143.732 13.8824 144.832 14.1024 145.812 14.5424C146.812 14.9824 147.662 15.5724 148.362 16.3124C149.062 17.0324 149.592 17.8824 149.952 18.8624C150.332 19.8224 150.522 20.8324 150.522 21.8924C150.522 22.1324 150.512 22.3624 150.492 22.5824C150.472 22.7824 150.452 22.9524 150.432 23.0924H137.862C137.922 23.7924 138.082 24.4224 138.342 24.9824C138.622 25.5424 138.972 26.0324 139.392 26.4524C139.832 26.8524 140.322 27.1624 140.862 27.3824C141.422 27.6024 142.002 27.7124 142.602 27.7124C143.042 27.7124 143.472 27.6624 143.892 27.5624C144.332 27.4424 144.732 27.2824 145.092 27.0824C145.452 26.8624 145.772 26.6024 146.052 26.3024C146.332 26.0024 146.552 25.6724 146.712 25.3124L149.532 26.1224C148.992 27.3024 148.092 28.2724 146.832 29.0324C145.592 29.7724 144.142 30.1424 142.482 30.1424ZM147.252 20.8124C147.192 20.1524 147.022 19.5424 146.742 18.9824C146.482 18.4224 146.142 17.9524 145.722 17.5724C145.302 17.1724 144.812 16.8624 144.252 16.6424C143.692 16.4224 143.102 16.3124 142.482 16.3124C141.862 16.3124 141.272 16.4224 140.712 16.6424C140.172 16.8624 139.692 17.1724 139.272 17.5724C138.852 17.9524 138.512 18.4224 138.252 18.9824C137.992 19.5424 137.832 20.1524 137.772 20.8124H147.252ZM159.663 30.1424C158.583 30.1424 157.583 29.9324 156.663 29.5124C155.763 29.0724 154.983 28.4824 154.323 27.7424C153.663 27.0024 153.143 26.1424 152.763 25.1624C152.403 24.1824 152.223 23.1324 152.223 22.0124C152.223 20.8924 152.393 19.8424 152.733 18.8624C153.093 17.8624 153.583 17.0024 154.203 16.2824C154.823 15.5424 155.563 14.9624 156.423 14.5424C157.303 14.1024 158.253 13.8824 159.273 13.8824C160.493 13.8824 161.583 14.1824 162.543 14.7824C163.503 15.3824 164.253 16.1624 164.793 17.1224V7.94238H168.093V25.9424C168.093 26.6224 168.413 26.9824 169.053 27.0224V29.8424C168.713 29.9024 168.413 29.9424 168.153 29.9624C167.893 29.9824 167.653 29.9924 167.433 29.9924C166.193 29.8724 165.493 29.3024 165.333 28.2824L165.273 26.9924C164.673 28.0124 163.873 28.7924 162.873 29.3324C161.873 29.8724 160.803 30.1424 159.663 30.1424ZM160.503 27.3224C160.923 27.3224 161.363 27.2424 161.823 27.0824C162.283 26.9224 162.713 26.7024 163.113 26.4224C163.513 26.1424 163.863 25.8124 164.163 25.4324C164.463 25.0524 164.673 24.6424 164.793 24.2024V20.0924C164.613 19.6124 164.363 19.1724 164.043 18.7724C163.723 18.3524 163.353 17.9924 162.933 17.6924C162.533 17.3724 162.103 17.1324 161.643 16.9724C161.183 16.7924 160.723 16.7024 160.263 16.7024C159.563 16.7024 158.923 16.8524 158.343 17.1524C157.783 17.4524 157.293 17.8524 156.873 18.3524C156.473 18.8524 156.163 19.4324 155.943 20.0924C155.723 20.7324 155.613 21.3924 155.613 22.0724C155.613 22.7924 155.733 23.4724 155.973 24.1124C156.233 24.7524 156.573 25.3124 156.993 25.7924C157.433 26.2524 157.953 26.6224 158.553 26.9024C159.153 27.1824 159.803 27.3224 160.503 27.3224ZM185.576 30.1424C184.936 30.1424 184.286 30.0924 183.626 29.9924C182.986 29.8924 182.346 29.7524 181.706 29.5724C181.086 29.3724 180.486 29.1424 179.906 28.8824C179.346 28.6024 178.846 28.2924 178.406 27.9524L179.786 25.7324C181.706 27.0724 183.616 27.7424 185.516 27.7424C186.516 27.7424 187.306 27.5524 187.886 27.1724C188.466 26.7924 188.756 26.2524 188.756 25.5524C188.756 24.8924 188.426 24.4124 187.766 24.1124C187.126 23.7924 186.096 23.4624 184.676 23.1224C183.696 22.8824 182.856 22.6424 182.156 22.4024C181.456 22.1424 180.886 21.8624 180.446 21.5624C180.006 21.2424 179.686 20.8724 179.486 20.4524C179.286 20.0124 179.186 19.4924 179.186 18.8924C179.186 18.0924 179.346 17.3824 179.666 16.7624C179.986 16.1424 180.416 15.6224 180.956 15.2024C181.516 14.7624 182.166 14.4324 182.906 14.2124C183.666 13.9924 184.476 13.8824 185.336 13.8824C186.476 13.8824 187.576 14.0624 188.636 14.4224C189.696 14.7824 190.646 15.2724 191.486 15.8924L190.076 17.9024C188.576 16.7824 186.976 16.2224 185.276 16.2224C184.436 16.2224 183.726 16.4024 183.146 16.7624C182.566 17.1024 182.276 17.6524 182.276 18.4124C182.276 18.7324 182.336 19.0024 182.456 19.2224C182.576 19.4424 182.766 19.6324 183.026 19.7924C183.306 19.9524 183.666 20.1024 184.106 20.2424C184.546 20.3624 185.086 20.5024 185.726 20.6624C186.806 20.9224 187.736 21.1824 188.516 21.4424C189.296 21.7024 189.936 22.0124 190.436 22.3724C190.956 22.7124 191.336 23.1224 191.576 23.6024C191.816 24.0624 191.936 24.6224 191.936 25.2824C191.936 26.0224 191.786 26.6924 191.486 27.2924C191.186 27.8924 190.756 28.4024 190.196 28.8224C189.656 29.2424 188.986 29.5724 188.186 29.8124C187.406 30.0324 186.536 30.1424 185.576 30.1424ZM193.736 21.9824C193.736 20.8824 193.926 19.8424 194.306 18.8624C194.686 17.8824 195.226 17.0224 195.926 16.2824C196.646 15.5424 197.506 14.9624 198.506 14.5424C199.506 14.1024 200.626 13.8824 201.866 13.8824C203.486 13.8824 204.876 14.2424 206.036 14.9624C207.216 15.6624 208.096 16.6024 208.676 17.7824L205.466 18.8024C205.086 18.1424 204.576 17.6324 203.936 17.2724C203.296 16.8924 202.586 16.7024 201.806 16.7024C201.146 16.7024 200.526 16.8324 199.946 17.0924C199.386 17.3524 198.896 17.7224 198.476 18.2024C198.056 18.6624 197.726 19.2124 197.486 19.8524C197.246 20.4924 197.126 21.2024 197.126 21.9824C197.126 22.7424 197.246 23.4524 197.486 24.1124C197.746 24.7524 198.086 25.3124 198.506 25.7924C198.946 26.2724 199.446 26.6524 200.006 26.9324C200.586 27.1924 201.196 27.3224 201.836 27.3224C202.236 27.3224 202.636 27.2724 203.036 27.1724C203.436 27.0524 203.796 26.8924 204.116 26.6924C204.456 26.4924 204.746 26.2624 204.986 26.0024C205.246 25.7424 205.436 25.4624 205.556 25.1624L208.796 26.1224C208.276 27.3024 207.406 28.2724 206.186 29.0324C204.966 29.7724 203.526 30.1424 201.866 30.1424C200.646 30.1424 199.536 29.9224 198.536 29.4824C197.536 29.0424 196.676 28.4524 195.956 27.7124C195.256 26.9524 194.706 26.0824 194.306 25.1024C193.926 24.1224 193.736 23.0824 193.736 21.9824ZM225.554 29.8424H222.254V21.0524C222.254 19.6124 221.994 18.5524 221.474 17.8724C220.954 17.1724 220.214 16.8224 219.254 16.8224C218.814 16.8224 218.364 16.9124 217.904 17.0924C217.444 17.2724 217.004 17.5324 216.584 17.8724C216.184 18.1924 215.814 18.5824 215.474 19.0424C215.154 19.4824 214.914 19.9724 214.754 20.5124V29.8424H211.454V7.94238H214.754V17.3024C215.374 16.2224 216.194 15.3824 217.214 14.7824C218.254 14.1824 219.384 13.8824 220.604 13.8824C221.564 13.8824 222.364 14.0624 223.004 14.4224C223.644 14.7624 224.154 15.2224 224.534 15.8024C224.914 16.3824 225.174 17.0624 225.314 17.8424C225.474 18.6024 225.554 19.4124 225.554 20.2724V29.8424ZM236.377 30.1424C235.137 30.1424 234.017 29.9224 233.017 29.4824C232.037 29.0424 231.197 28.4524 230.497 27.7124C229.797 26.9724 229.257 26.1124 228.877 25.1324C228.497 24.1324 228.307 23.0924 228.307 22.0124C228.307 20.9324 228.497 19.9024 228.877 18.9224C229.257 17.9224 229.797 17.0524 230.497 16.3124C231.217 15.5724 232.067 14.9824 233.047 14.5424C234.047 14.1024 235.157 13.8824 236.377 13.8824C237.597 13.8824 238.697 14.1024 239.677 14.5424C240.677 14.9824 241.527 15.5724 242.227 16.3124C242.947 17.0524 243.497 17.9224 243.877 18.9224C244.257 19.9024 244.447 20.9324 244.447 22.0124C244.447 23.0924 244.257 24.1324 243.877 25.1324C243.497 26.1124 242.947 26.9724 242.227 27.7124C241.527 28.4524 240.677 29.0424 239.677 29.4824C238.697 29.9224 237.597 30.1424 236.377 30.1424ZM231.697 22.0424C231.697 22.8024 231.817 23.5024 232.057 24.1424C232.297 24.7824 232.627 25.3424 233.047 25.8224C233.467 26.2824 233.957 26.6524 234.517 26.9324C235.097 27.1924 235.717 27.3224 236.377 27.3224C237.037 27.3224 237.647 27.1924 238.207 26.9324C238.787 26.6524 239.287 26.2724 239.707 25.7924C240.127 25.3124 240.457 24.7524 240.697 24.1124C240.937 23.4724 241.057 22.7724 241.057 22.0124C241.057 21.2724 240.937 20.5824 240.697 19.9424C240.457 19.2824 240.127 18.7124 239.707 18.2324C239.287 17.7524 238.787 17.3824 238.207 17.1224C237.647 16.8424 237.037 16.7024 236.377 16.7024C235.737 16.7024 235.127 16.8424 234.547 17.1224C233.987 17.4024 233.497 17.7824 233.077 18.2624C232.657 18.7424 232.317 19.3124 232.057 19.9724C231.817 20.6124 231.697 21.3024 231.697 22.0424ZM254.394 30.1424C253.154 30.1424 252.034 29.9224 251.034 29.4824C250.054 29.0424 249.214 28.4524 248.514 27.7124C247.814 26.9724 247.274 26.1124 246.894 25.1324C246.514 24.1324 246.324 23.0924 246.324 22.0124C246.324 20.9324 246.514 19.9024 246.894 18.9224C247.274 17.9224 247.814 17.0524 248.514 16.3124C249.234 15.5724 250.084 14.9824 251.064 14.5424C252.064 14.1024 253.174 13.8824 254.394 13.8824C255.614 13.8824 256.714 14.1024 257.694 14.5424C258.694 14.9824 259.544 15.5724 260.244 16.3124C260.964 17.0524 261.514 17.9224 261.894 18.9224C262.274 19.9024 262.464 20.9324 262.464 22.0124C262.464 23.0924 262.274 24.1324 261.894 25.1324C261.514 26.1124 260.964 26.9724 260.244 27.7124C259.544 28.4524 258.694 29.0424 257.694 29.4824C256.714 29.9224 255.614 30.1424 254.394 30.1424ZM249.714 22.0424C249.714 22.8024 249.834 23.5024 250.074 24.1424C250.314 24.7824 250.644 25.3424 251.064 25.8224C251.484 26.2824 251.974 26.6524 252.534 26.9324C253.114 27.1924 253.734 27.3224 254.394 27.3224C255.054 27.3224 255.664 27.1924 256.224 26.9324C256.804 26.6524 257.304 26.2724 257.724 25.7924C258.144 25.3124 258.474 24.7524 258.714 24.1124C258.954 23.4724 259.074 22.7724 259.074 22.0124C259.074 21.2724 258.954 20.5824 258.714 19.9424C258.474 19.2824 258.144 18.7124 257.724 18.2324C257.304 17.7524 256.804 17.3824 256.224 17.1224C255.664 16.8424 255.054 16.7024 254.394 16.7024C253.754 16.7024 253.144 16.8424 252.564 17.1224C252.004 17.4024 251.514 17.7824 251.094 18.2624C250.674 18.7424 250.334 19.3124 250.074 19.9724C249.834 20.6124 249.714 21.3024 249.714 22.0424ZM265.332 7.94238H268.632V25.2224C268.632 25.8024 268.782 26.2624 269.082 26.6024C269.382 26.9224 269.802 27.0824 270.342 27.0824C270.562 27.0824 270.822 27.0524 271.122 26.9924C271.422 26.9124 271.702 26.8124 271.962 26.6924L272.442 29.3624C271.962 29.5824 271.392 29.7524 270.732 29.8724C270.072 30.0124 269.482 30.0824 268.962 30.0824C267.822 30.0824 266.932 29.7724 266.292 29.1524C265.652 28.5324 265.332 27.6524 265.332 26.5124V7.94238Z" fill="#24735C"/>
</svg>
