<svg width="88" height="89" viewBox="0 0 88 89" fill="none" xmlns="http://www.w3.org/2000/svg">
<path d="M62.2441 76.9606V40.6567L70.622 33.6751V14.1269H62.2441L74.9854 0.163818L87.3776 14.1269H80.3961V39.2604L72.0183 46.2419V76.9606H62.2441Z" fill="#F4B651"/>
<path d="M70.622 14.1269V33.6751L62.2441 40.6567V76.9606H66.9567V43.4493L74.9854 35.9441V0.163818L62.2441 14.1269H70.622Z" fill="#F2A536"/>
<path d="M27.3364 76.9607V40.6568L18.9586 33.6753V14.127H27.3364L14.5952 0.16394L0.806641 14.127H9.18447V39.2605L17.5623 46.242V76.9607H27.3364Z" fill="#3DFAFF"/>
<path d="M22.624 43.4493V76.9606H27.3365V40.6567L18.9587 33.6751V14.1269H27.3365L14.5952 0.163818V35.9441L22.624 43.4493Z" fill="#22DDDD"/>
<path d="M63.6403 62.2993V81.1494H56.9503V86.7347H30.129V81.1494H23.1475V62.2993C23.1475 59.5219 24.2508 56.8582 26.2147 54.8943C28.1787 52.9304 30.8423 51.827 33.6197 51.827H53.168C55.9454 51.827 58.6091 52.9304 60.573 54.8943C62.537 56.8582 63.6403 59.5219 63.6403 62.2993Z" fill="#23A3DB"/>
<path d="M52.47 41.3152C52.47 44.1401 51.1002 45.5807 48.7283 46.4087C48.1869 46.6017 47.7189 46.9579 47.3886 47.4282C47.0584 47.8986 46.8824 48.4598 46.8848 49.0345V51.8271H41.2996V49.0345C41.302 48.4598 41.1259 47.8986 40.7957 47.4282C40.4655 46.9579 39.9974 46.6017 39.4561 46.4087C37.0841 45.5807 35.7144 44.1397 35.7144 41.3152V32.2788C35.7144 30.7975 36.3028 29.3769 37.3502 28.3295C38.3977 27.282 39.8183 26.6936 41.2996 26.6936H46.8848C48.3661 26.6936 49.7867 27.282 50.8341 28.3295C51.8816 29.3769 52.47 30.7975 52.47 32.2788V41.3152Z" fill="#894619"/>
<path d="M56.659 88.1309H30.1292C29.7589 88.1309 29.4037 87.9838 29.1419 87.722C28.88 87.4601 28.7329 87.105 28.7329 86.7346V57.4122H31.5255V85.3383H55.2627V57.4122H58.0553V86.7346C58.0553 87.105 57.9082 87.4601 57.6464 87.722C57.3845 87.9838 57.0293 88.1309 56.659 88.1309Z" fill="#1C81A5"/>
<path d="M30.129 81.1495V86.7348H24.5438L23.1475 81.1495H30.129Z" fill="#FDCAA7"/>
<path d="M63.6402 81.1495L62.2439 86.7348H56.9502V81.1495H63.6402Z" fill="#FDCAA7"/>
<path d="M39.9032 22.5047V14.1269H31.5254L45.4884 0.163818L58.0552 14.1269H49.6774V22.5047H39.9032Z" fill="#F2CB2A"/>
<path d="M41.2995 49.0344V51.827H46.8848V49.0344C46.8849 48.5444 47.0133 48.0631 47.257 47.6381H40.9272C41.171 48.0631 41.2994 48.5444 41.2995 49.0344Z" fill="#FDCAA7"/>
<path opacity="0.2" d="M40.9271 41.0967V26.7074C39.5137 26.8018 38.1889 27.4298 37.221 28.4642C36.2532 29.4987 35.7146 30.8622 35.7142 32.2788V41.3152C35.7142 44.1401 37.084 45.5807 39.456 46.4087C39.9973 46.6017 40.4654 46.9579 40.7956 47.4282C41.1258 47.8986 41.3018 48.4598 41.2994 49.0345V51.8271H33.6197C30.8423 51.8271 28.1787 52.9304 26.2147 54.8944C24.2508 56.8583 23.1475 59.522 23.1475 62.2994V81.1495H30.129V88.131H33.8833V81.1495L33.8878 61.6012C33.626 54.5984 44.7902 51.8271 44.7902 51.8271V46.9721C44.7902 46.4726 44.6491 45.9833 44.3831 45.5604C44.1171 45.1376 43.737 44.7986 43.2867 44.5824L43.048 44.4677C42.4128 44.1627 41.8767 43.6844 41.5015 43.088C41.1262 42.4916 40.9272 41.8013 40.9271 41.0967Z" fill="#FAFBFC"/>
<path d="M49.6774 14.1268H58.0552L45.802 0.511993L45.4157 0.236572L45.314 0.338328V22.5047H49.6774V14.1268Z" fill="#F7D74F"/>
</svg>
