<svg width="109" height="113" viewBox="0 0 109 113" fill="none" xmlns="http://www.w3.org/2000/svg">
<path d="M60.9912 81.0674C61.3694 79.9522 61.0296 80.5145 70.36 69.7343C71.9887 67.8528 74.8341 67.6477 76.7156 69.2761C78.156 70.5228 78.61 72.4816 78.015 74.1763C77.1667 74.3305 78.8578 73.7008 60.9912 81.0674Z" fill="#E59770"/>
<path d="M65.925 74.8585C61.4808 79.9933 61.3585 79.9851 60.9912 81.0673C78.8529 73.7027 77.1654 74.3307 78.015 74.1763C78.491 72.8206 78.2939 71.2968 77.4593 70.1028L65.925 74.8585Z" fill="#DD855F"/>
<path d="M35.3217 94.2403C33.6129 94.4705 32.0058 95.1905 30.7006 96.3172L28.6455 98.0917L16.4619 83.9817C19.4785 81.3981 22.7164 79.0819 26.1591 77.1005C30.009 74.8848 31.5566 74.6572 39.7613 73.778L39.7618 73.7782C42.4471 73.5423 43.7843 74.1264 54.816 77.2556C58.7966 78.3843 57.9191 82.2235 57.9191 82.2235L75.7896 74.8554C76.1402 74.6812 80.2892 72.3679 82.5849 76.1122C84.5971 79.6442 81.1902 82.2011 80.506 82.6467L57.7377 95.6798C57.7377 95.6798 57.7364 95.6805 57.7348 95.6816C54.3625 97.8769 50.8466 97.4313 49.299 97.0715C39.0475 94.1636 38.7084 93.7841 35.3217 94.2403Z" fill="#F0A479"/>
<path d="M20.2971 80.9373C18.9827 81.9048 17.7025 82.9193 16.4619 83.9819L28.6457 98.092L30.7009 96.3172C31.2599 95.8347 31.8766 95.4317 32.5307 95.1048L20.2971 80.9373Z" fill="#E59770"/>
<path d="M67.0926 57.4523C67.0999 57.2895 67.1049 57.1261 67.1049 56.9614C67.1049 55.8865 66.9688 54.8432 66.7129 53.8482C65.3305 48.4749 60.4529 44.5044 54.6482 44.5044C43.0219 44.5044 37.8047 59.0469 46.6224 66.4853C46.6227 66.4855 46.6229 66.4855 46.6231 66.4857C48.789 68.3127 51.6024 69.4182 54.6482 69.4182C57.7486 69.4182 60.8535 68.1236 62.6739 66.4853C65.2661 64.299 66.9521 61.0746 67.0926 57.4523Z" fill="#FFC850"/>
<path d="M51.1476 66.4855C43.1377 59.7287 46.5731 46.6092 56.9105 44.7118C56.1765 44.5771 55.4207 44.5046 54.6478 44.5046C43.0206 44.5046 37.8067 59.0493 46.6221 66.4855C49.0166 68.367 51.5194 69.4184 54.6478 69.4184C55.4853 69.4184 56.2009 69.3387 56.9105 69.2095C54.5806 68.7863 52.9568 67.9073 51.1476 66.4855Z" fill="#F9B938"/>
<path d="M61.3892 82.4117C61.4371 82.2008 61.5823 81.5316 61.7059 80.6545L57.9254 82.2133C57.6891 82.8178 57.0884 83.7091 55.6254 83.5066C52.0048 83.0082 43.3836 81.8558 43.2971 81.8441C42.3671 81.7198 41.5142 82.3724 41.3901 83.3014C41.266 84.2303 41.9184 85.0843 42.8475 85.2084C55.841 86.9319 55.2818 86.9323 56.0627 86.9323C59.312 86.9321 61.0152 84.3364 61.3892 82.4117Z" fill="#E59770"/>
<path d="M30.4221 99.8008L15.1177 82.0766C14.4772 81.3349 13.3564 81.2527 12.6146 81.8932L0.742758 92.1441C0.0436375 92.7479 -0.0297229 93.8057 0.579564 94.5002L16.226 112.331C16.7815 112.964 17.7534 113.073 18.3967 112.529C18.4015 112.525 18.4064 112.521 18.4112 112.517L30.2385 102.304C30.9806 101.663 31.0628 100.543 30.4221 99.8008Z" fill="#FFC850"/>
<path d="M3.08107 90.1251L0.742758 92.1441C0.0436375 92.7479 -0.0297229 93.8057 0.579564 94.5002L16.226 112.331C16.7815 112.964 17.7536 113.073 18.3967 112.529C18.4015 112.525 18.4064 112.52 18.4112 112.517L20.8679 110.395L3.08107 90.1251Z" fill="#F9B938"/>
<path d="M54.1398 64.2546C51.6359 64.1925 49.7524 62.8472 49.7524 61.6883C49.7524 61.1089 50.2697 60.2396 50.9115 60.2396C51.698 60.2396 52.3185 61.5847 54.1398 61.7918V57.6733C52.2564 56.9698 50.125 56.1626 50.125 53.5135C50.125 50.8852 52.0703 49.7471 54.1398 49.478V48.8986C54.1398 48.6295 54.4501 48.3811 54.8435 48.3811C55.1954 48.3811 55.547 48.6295 55.547 48.8986V49.4367C56.8921 49.4782 59.0859 49.8714 59.0859 51.0717C59.0859 51.5477 58.7549 52.4996 57.989 52.4996C57.4096 52.4996 56.9336 51.8374 55.547 51.7339V55.3763C57.3887 56.0591 59.4584 56.9904 59.4584 59.8051C59.4584 62.3506 57.8647 63.82 55.547 64.1925V64.834C55.547 65.1031 55.1952 65.3515 54.8435 65.3515C54.4501 65.3515 54.1398 65.1033 54.1398 64.834V64.2546ZM54.3054 54.9212V51.7963C53.2709 51.9619 52.65 52.4585 52.65 53.2449C52.6497 54.1555 53.3535 54.5487 54.3054 54.9212ZM55.3816 58.1703V61.7714C56.2921 61.5851 56.9336 61.047 56.9336 60.0744C56.9336 59.0601 56.2714 58.5635 55.3816 58.1703Z" fill="#E4EAF8"/>
<path d="M32.9862 38.3422L47.8033 32.233C47.6216 32.7685 47.3381 33.279 46.9451 33.733L38.4344 43.5661C36.8058 45.4476 33.9603 45.6527 32.0789 44.0243C30.6385 42.7776 30.1845 40.8188 30.7795 39.1241C31.9333 38.9141 32.8305 38.4197 32.9862 38.3422Z" fill="#E59770"/>
<path d="M32.9865 42.3585L43.0828 38.1957L46.9454 33.733C47.3384 33.279 47.6219 32.7685 47.8036 32.233L32.9865 38.3422C32.8308 38.4197 31.9336 38.9141 30.7798 39.1241C30.3243 40.4213 30.4857 41.8722 31.2316 43.0412C32.162 42.8042 32.8519 42.4255 32.9865 42.3585Z" fill="#DD855F"/>
<path d="M73.4732 19.0599C75.182 18.8297 76.7892 18.1097 78.0943 16.983L80.1494 15.2085L92.333 29.3185C89.3164 31.9022 86.0785 34.2183 82.6358 36.1997C78.7859 38.4154 77.2383 38.643 69.0336 39.5222L69.0332 39.522C66.3478 39.7579 65.0106 39.1739 53.9789 36.0446C49.9983 34.9159 50.8758 31.0767 50.8758 31.0767L33.0053 38.4449C32.6547 38.619 28.5057 40.9323 26.21 37.1881C24.1979 33.656 27.6047 31.0992 28.2889 30.6535L51.0572 17.6204C51.0572 17.6204 51.0585 17.6197 51.0601 17.6186C54.4324 15.4233 57.9483 15.869 59.4959 16.2287L68.3356 18.7362C70.4094 19.3241 71.7914 19.2864 73.4732 19.0599Z" fill="#F0A479"/>
<path d="M72.8612 19.658C74.9349 20.246 76.3169 20.2082 77.9989 19.9817C79.6721 19.7564 81.2458 19.0588 82.536 17.972L80.1496 15.2083L78.0944 16.9827C76.7893 18.1097 75.1824 18.8295 73.4734 19.0597C72.7123 19.1622 72.0123 19.2253 71.2822 19.2099L72.8612 19.658Z" fill="#E59770"/>
<path d="M30.7354 38.1098C28.7232 34.5778 32.1301 32.0209 32.8143 31.5753L55.5826 18.5421C55.5826 18.5421 55.5839 18.5415 55.5854 18.5404C57.7559 17.1274 59.9851 16.8089 61.7115 16.857L59.4959 16.2287C57.9484 15.8689 54.4325 15.4232 51.0602 17.6185C51.0586 17.6194 51.0573 17.6203 51.0573 17.6203L28.289 30.6534C27.6048 31.0991 24.1977 33.6559 26.2101 37.188C27.7015 39.6205 29.9743 39.496 31.4804 39.0626C31.2173 38.7999 30.9667 38.487 30.7354 38.1098Z" fill="#E59770"/>
<path d="M47.4056 30.8886C47.3577 31.0994 47.2125 31.7687 47.0889 32.6457L50.8693 31.0869C51.1057 30.4825 51.7064 29.5912 53.1694 29.7937C56.79 30.292 65.4112 31.4445 65.4977 31.4561C66.4277 31.5805 67.2806 30.9279 67.4046 29.9988C67.5287 29.07 66.8764 28.216 65.9473 28.0919C65.8608 28.0805 57.246 26.9287 53.6322 26.4314C53.3197 26.3883 53.0201 26.3679 52.7321 26.3679C49.4827 26.3681 47.7796 28.9639 47.4056 30.8886Z" fill="#E59770"/>
<path d="M78.3725 13.4995L93.6769 31.2237C94.3174 31.9655 95.438 32.0476 96.18 31.4071L108.052 21.1562C108.751 20.5524 108.824 19.4946 108.215 18.8001L92.5682 0.969594C92.0127 0.336586 91.0406 0.227863 90.3975 0.771696C90.3926 0.77587 90.3878 0.780043 90.383 0.784216L78.5557 10.9967C77.814 11.6372 77.7318 12.7578 78.3725 13.4995Z" fill="#00C3FF"/>
<path d="M80.9351 8.94189L78.5557 10.9964C77.814 11.6369 77.7318 12.7575 78.3723 13.4995L93.6768 31.2237C94.3172 31.9654 95.4378 32.0476 96.1798 31.4071L98.5594 29.3523L80.9351 8.94189Z" fill="#06B0F2"/>
</svg>
