<svg width="91" height="91" viewBox="0 0 91 91" fill="none" xmlns="http://www.w3.org/2000/svg">
<path d="M69.0186 64.3224L79.9221 90.8025H83.0374C85.103 90.8025 87.084 89.9819 88.5445 88.5213C90.0051 87.0608 90.8257 85.0798 90.8257 83.0142C90.8256 77.8815 89.7267 72.8084 87.6029 68.1357L83.0374 58.0918L69.0186 64.3224Z" fill="#FDB683"/>
<path d="M8.27019 58.0918L3.70471 68.1357C1.58085 72.8084 0.481969 77.8815 0.481934 83.0142C0.481934 85.0798 1.30248 87.0608 2.76306 88.5213C4.22364 89.9819 6.20461 90.8025 8.27019 90.8025H11.3855L22.289 64.3224L8.27019 58.0918Z" fill="#FDB683"/>
<path d="M83.0373 58.0919L79.1165 49.4664C77.9633 46.9293 76.1041 44.7779 73.761 43.269C71.4179 41.7602 68.69 40.9578 65.9031 40.9578H25.4042C22.6173 40.9578 19.8894 41.7602 17.5463 43.269C15.2032 44.7779 13.344 46.9293 12.1908 49.4664L8.27002 58.0919L22.2889 64.3225L25.4042 56.5343V90.8026H65.9031V56.5343L69.0184 64.3225L83.0373 58.0919Z" fill="#DE5540"/>
<path d="M37.8654 6.68945H53.4419C55.9206 6.68945 58.2978 7.67411 60.0505 9.42681C61.8032 11.1795 62.7878 13.5567 62.7878 16.0354V33.1695C62.7878 37.7138 60.9827 42.0719 57.7694 45.2852C54.5561 48.4985 50.198 50.3037 45.6537 50.3037C41.1094 50.3037 36.7513 48.4985 33.538 45.2852C30.3247 42.0719 28.5195 37.7138 28.5195 33.1695V16.0354C28.5195 13.5567 29.5042 11.1795 31.2569 9.42681C33.0096 7.67411 35.3867 6.68945 37.8654 6.68945Z" fill="#FDC8A2"/>
<path d="M28.5195 25.3811L29.84 24.8528C34.0064 23.1863 37.4163 20.0487 39.4231 16.0351V5.13159H37.8654C35.3867 5.13159 33.0096 6.11625 31.2569 7.86894C29.5042 9.62164 28.5195 11.9988 28.5195 14.4775V25.3811Z" fill="#784533"/>
<path d="M62.7878 14.4775V25.3811C60.327 24.3963 58.0917 22.9221 56.2175 21.0479C54.3432 19.1736 52.8691 16.9383 51.8843 14.4775V5.13159H53.4419C55.9206 5.13159 58.2978 6.11625 60.0505 7.86894C61.8032 9.62164 62.7878 11.9988 62.7878 14.4775Z" fill="#784533"/>
<path d="M37.8653 33.1693C39.5858 33.1693 40.9806 31.7746 40.9806 30.054C40.9806 28.3335 39.5858 26.9387 37.8653 26.9387C36.1448 26.9387 34.75 28.3335 34.75 30.054C34.75 31.7746 36.1448 33.1693 37.8653 33.1693Z" fill="#844E3A"/>
<path d="M53.442 33.1693C55.1625 33.1693 56.5573 31.7746 56.5573 30.054C56.5573 28.3335 55.1625 26.9387 53.442 26.9387C51.7214 26.9387 50.3267 28.3335 50.3267 30.054C50.3267 31.7746 51.7214 33.1693 53.442 33.1693Z" fill="#844E3A"/>
<path d="M49.4055 36.5867C48.3242 37.4008 47.0075 37.8411 45.6541 37.8411C44.3006 37.8411 42.9839 37.4008 41.9027 36.5867L40.0596 39.0984C41.6719 40.3126 43.6356 40.9693 45.6541 40.9693C47.6725 40.9693 49.6362 40.3126 51.2486 39.0984L49.4055 36.5867Z" fill="#FCB079"/>
<path d="M51.8844 5.1317V14.4776C48.854 16.499 45.5421 18.0625 42.0556 19.1175C38.5699 20.1726 34.9478 20.7086 31.3058 20.7082H25.4043V16.0353C25.4042 15.3018 25.4556 14.5692 25.5581 13.8429C25.8775 11.5824 26.6919 9.42037 27.9433 7.51101C29.3584 5.3439 31.2918 3.56404 33.5683 2.33263C35.8448 1.10121 38.3926 0.457139 40.9808 0.458743H45.4006C46.835 0.458688 48.2331 0.909966 49.3968 1.74865C50.5605 2.58733 51.4307 3.7709 51.8844 5.1317Z" fill="#844E3A"/>
<path d="M26.962 25.3811H28.5197V34.727H26.962C25.7227 34.727 24.5341 34.2347 23.6577 33.3583C22.7814 32.482 22.2891 31.2934 22.2891 30.0541C22.2891 28.8147 22.7814 27.6261 23.6577 26.7498C24.5341 25.8734 25.7227 25.3811 26.962 25.3811Z" fill="#FDB683"/>
<path d="M64.3456 34.7271H62.788V25.3811H64.3456C65.5849 25.3811 66.7735 25.8735 67.6499 26.7498C68.5262 27.6262 69.0186 28.8148 69.0186 30.0541C69.0186 31.2934 68.5262 32.482 67.6499 33.3584C66.7735 34.2347 65.5849 34.7271 64.3456 34.7271Z" fill="#FDB683"/>
<path d="M62.788 16.518V21.8296L61.5205 20.0558L61.4913 20.0149C58.596 15.671 54.1781 12.6862 54.1353 12.657L55.8642 10.0654C58.4614 11.8833 60.7919 14.0552 62.788 16.518Z" fill="#6A3F2E"/>
<path d="M47.6787 9.95848C47.4489 10.1259 41.9699 14.0843 33.0193 16.0002C31.5901 16.3079 30.1357 16.5454 28.6968 16.7109C27.6512 16.8316 26.5706 16.9192 25.4861 16.966L25.4043 16.9699V16.0353C25.4042 15.3018 25.4556 14.5692 25.5581 13.8429C26.5005 13.7981 27.4331 13.7222 28.3385 13.6151C29.682 13.4632 31.0352 13.2393 32.365 12.955C40.6732 11.1754 45.7862 7.48182 45.8368 7.44482L47.6787 9.95848Z" fill="#784533"/>
<path d="M42.3202 6.7517C36.9054 9.15438 31.3855 10.2739 26.2822 10.8717C26.6968 9.68798 27.2546 8.5594 27.9431 7.51106C32.2071 6.89384 36.6932 5.84048 41.0585 3.9051C41.1059 3.8831 41.1547 3.86424 41.2045 3.84863L41.701 5.35761L42.3202 6.7517Z" fill="#784533"/>
<path d="M39.4233 54.9766H17.6162V61.2072H45.6539C45.6539 59.5547 44.9975 57.9699 43.829 56.8015C42.6606 55.633 41.0758 54.9766 39.4233 54.9766Z" fill="#F1DDC1"/>
<path d="M51.8844 54.9766H73.6915V61.2072H45.6538C45.6538 59.5547 46.3102 57.9699 47.4787 56.8015C48.6472 55.633 50.232 54.9766 51.8844 54.9766Z" fill="#F1DDC1"/>
<path d="M17.6162 61.207H42.5386V90.8024H17.6162V61.207Z" fill="#844E3A"/>
<path d="M48.769 61.207H73.6915V90.8024H48.769V61.207Z" fill="#844E3A"/>
<path d="M42.5386 61.207H48.7692V90.8024H42.5386V61.207Z" fill="#915C49"/>
<path d="M55 67.4377H67.4612V70.553H55V67.4377Z" fill="#784533"/>
<path d="M56.5576 73.6682H62.7882V76.7835H56.5576V73.6682Z" fill="#784533"/>
<path d="M22.289 75.2261H17.6161V73.3438C17.6235 72.6682 17.3834 72.0132 16.941 71.5024C16.4987 70.9917 15.8847 70.6604 15.215 70.5712C14.5952 70.499 13.9695 70.6424 13.4431 70.9773C12.9166 71.3122 12.5215 71.8181 12.3242 72.41L11.3855 75.2261H8.27019C6.20461 75.2261 4.22364 76.0466 2.76306 77.5072C1.30248 78.9678 0.481934 80.9488 0.481934 83.0143C0.481934 85.0799 1.30248 87.0609 2.76306 88.5215C4.22364 89.982 6.20461 90.8026 8.27019 90.8026H22.289C23.1153 90.8026 23.9077 90.4744 24.4919 89.8901C25.0761 89.3059 25.4043 88.5135 25.4043 87.6873V78.3414C25.4043 77.5151 25.0761 76.7228 24.4919 76.1385C23.9077 75.5543 23.1153 75.2261 22.289 75.2261Z" fill="#FDC8A2"/>
<path d="M79.9222 75.2258L79.0086 72.4849C78.8396 71.956 78.5161 71.4898 78.0799 71.1463C77.6436 70.8028 77.1146 70.5977 76.5608 70.5573C76.1918 70.5364 75.8225 70.591 75.4754 70.7178C75.1283 70.8446 74.8107 71.0409 74.5421 71.2947C74.2735 71.5485 74.0595 71.8545 73.9133 72.1939C73.767 72.5332 73.6916 72.8989 73.6916 73.2684V75.2258H69.0186C68.1924 75.2258 67.4 75.554 66.8158 76.1382C66.2315 76.7225 65.9033 77.5149 65.9033 78.3411V87.687C65.9033 88.5132 66.2315 89.3056 66.8158 89.8899C67.4 90.4741 68.1924 90.8023 69.0186 90.8023H83.0375C85.1031 90.8023 87.084 89.9818 88.5446 88.5212C90.0052 87.0606 90.8257 85.0796 90.8257 83.0141C90.8257 80.9485 90.0052 78.9675 88.5446 77.5069C87.084 76.0463 85.1031 75.2258 83.0375 75.2258H79.9222Z" fill="#FDC8A2"/>
</svg>
