<svg width="121" height="122" viewBox="0 0 121 122" fill="none" xmlns="http://www.w3.org/2000/svg">
<circle cx="60.4333" cy="61.2377" r="60.2853" fill="#F6F7FF"/>
<path d="M92.1701 52.7369V82.2065H71.7681V50.47L92.1701 52.7369Z" fill="#86B4CC"/>
<path d="M49.0988 50.47V82.2065H28.6968V52.7369L49.0988 50.47Z" fill="#86B4CC"/>
<path d="M46.832 50.47H74.0348V82.2065H46.832V50.47Z" fill="#A1C8D3"/>
<path d="M57.0329 65.2048H63.8336C64.4595 65.2048 64.967 65.7123 64.967 66.3383V79.9397H55.8994V66.3383C55.8994 65.7123 56.4069 65.2048 57.0329 65.2048Z" fill="#567580"/>
<path d="M57.0329 60.6712C56.4069 60.6712 55.8994 60.1638 55.8994 59.5378V57.2709C55.8994 56.6449 56.4069 56.1375 57.0329 56.1375C57.6588 56.1375 58.1663 56.6449 58.1663 57.2709V59.5378C58.1663 60.1638 57.6588 60.6712 57.0329 60.6712Z" fill="#464F5E"/>
<path d="M41.1647 61.8045C40.5387 61.8045 40.0312 61.2971 40.0312 60.6711V58.4042C40.0312 57.7782 40.5387 57.2708 41.1647 57.2708C41.7907 57.2708 42.2981 57.7782 42.2981 58.4042V60.6711C42.2981 61.2971 41.7907 61.8045 41.1647 61.8045Z" fill="#464F5E"/>
<path d="M34.3639 61.8045C33.7379 61.8045 33.2305 61.2971 33.2305 60.6711V58.4042C33.2305 57.7782 33.7379 57.2708 34.3639 57.2708C34.9899 57.2708 35.4974 57.7782 35.4974 58.4042V60.6711C35.4974 61.2971 34.9899 61.8045 34.3639 61.8045Z" fill="#464F5E"/>
<path d="M41.1647 68.6051C40.5387 68.6051 40.0312 68.0976 40.0312 67.4716V65.2047C40.0312 64.5788 40.5387 64.0713 41.1647 64.0713C41.7907 64.0713 42.2981 64.5788 42.2981 65.2047V67.4716C42.2981 68.0976 41.7907 68.6051 41.1647 68.6051Z" fill="#464F5E"/>
<path d="M34.3639 68.6051C33.7379 68.6051 33.2305 68.0976 33.2305 67.4716V65.2047C33.2305 64.5788 33.7379 64.0713 34.3639 64.0713C34.9899 64.0713 35.4974 64.5788 35.4974 65.2047V67.4716C35.4974 68.0976 34.9899 68.6051 34.3639 68.6051Z" fill="#464F5E"/>
<path d="M41.1647 75.4059C40.5387 75.4059 40.0312 74.8984 40.0312 74.2724V72.0055C40.0312 71.3795 40.5387 70.8721 41.1647 70.8721C41.7907 70.8721 42.2981 71.3795 42.2981 72.0055V74.2724C42.2981 74.8984 41.7907 75.4059 41.1647 75.4059Z" fill="#464F5E"/>
<path d="M34.3639 75.4059C33.7379 75.4059 33.2305 74.8984 33.2305 74.2724V72.0055C33.2305 71.3795 33.7379 70.8721 34.3639 70.8721C34.9899 70.8721 35.4974 71.3795 35.4974 72.0055V74.2724C35.4974 74.8984 34.9899 75.4059 34.3639 75.4059Z" fill="#464F5E"/>
<path d="M86.5026 61.8045C85.8766 61.8045 85.3691 61.2971 85.3691 60.6711V58.4042C85.3691 57.7782 85.8766 57.2708 86.5026 57.2708C87.1286 57.2708 87.636 57.7782 87.636 58.4042V60.6711C87.636 61.2971 87.1286 61.8045 86.5026 61.8045Z" fill="#464F5E"/>
<path d="M79.7018 61.8045C79.0758 61.8045 78.5684 61.2971 78.5684 60.6711V58.4042C78.5684 57.7782 79.0758 57.2708 79.7018 57.2708C80.3278 57.2708 80.8353 57.7782 80.8353 58.4042V60.6711C80.8353 61.2971 80.3278 61.8045 79.7018 61.8045Z" fill="#464F5E"/>
<path d="M86.5026 68.6051C85.8766 68.6051 85.3691 68.0976 85.3691 67.4716V65.2047C85.3691 64.5788 85.8766 64.0713 86.5026 64.0713C87.1286 64.0713 87.636 64.5788 87.636 65.2047V67.4716C87.636 68.0976 87.1286 68.6051 86.5026 68.6051Z" fill="#464F5E"/>
<path d="M79.7018 68.6051C79.0758 68.6051 78.5684 68.0976 78.5684 67.4716V65.2047C78.5684 64.5788 79.0758 64.0713 79.7018 64.0713C80.3278 64.0713 80.8353 64.5788 80.8353 65.2047V67.4716C80.8353 68.0976 80.3278 68.6051 79.7018 68.6051Z" fill="#464F5E"/>
<path d="M86.5026 75.4059C85.8766 75.4059 85.3691 74.8984 85.3691 74.2724V72.0055C85.3691 71.3795 85.8766 70.8721 86.5026 70.8721C87.1286 70.8721 87.636 71.3795 87.636 72.0055V74.2724C87.636 74.8984 87.1286 75.4059 86.5026 75.4059Z" fill="#464F5E"/>
<path d="M79.7018 75.4059C79.0758 75.4059 78.5684 74.8984 78.5684 74.2724V72.0055C78.5684 71.3795 79.0758 70.8721 79.7018 70.8721C80.3278 70.8721 80.8353 71.3795 80.8353 72.0055V74.2724C80.8353 74.8984 80.3278 75.4059 79.7018 75.4059Z" fill="#464F5E"/>
<path d="M63.8336 60.6712C63.2077 60.6712 62.7002 60.1638 62.7002 59.5378V57.2709C62.7002 56.6449 63.2077 56.1375 63.8336 56.1375C64.4596 56.1375 64.9671 56.6449 64.9671 57.2709V59.5378C64.9671 60.1638 64.4596 60.6712 63.8336 60.6712Z" fill="#464F5E"/>
<path d="M92.17 79.9397H28.6969C28.0709 79.9397 27.5635 80.4472 27.5635 81.0731V83.34C27.5635 83.966 28.0709 84.4735 28.6969 84.4735H44.5652C44.5652 85.0995 45.0727 85.6069 45.6987 85.6069H75.1683C75.7943 85.6069 76.3018 85.0995 76.3018 84.4735H92.17C92.796 84.4735 93.3035 83.966 93.3035 83.34V81.0731C93.3035 80.4472 92.796 79.9397 92.17 79.9397Z" fill="#EDC100"/>
<path d="M76.302 79.9397V84.4735C76.302 85.0995 75.7945 85.6069 75.1685 85.6069H45.6989C45.0729 85.6069 44.5654 85.0995 44.5654 84.4735V79.9397H76.302Z" fill="#F8E8AB"/>
<path d="M89.3929 47.1944C89.0101 46.424 88.2243 45.9367 87.3641 45.9363H78.5685V43.6694L72.4366 37.5374C72.0102 37.1096 71.4311 36.869 70.8271 36.8687H49.0308C48.3561 36.8652 47.7153 37.1647 47.2853 37.6848L42.2982 43.6694V45.9363H33.5026C32.6424 45.9367 31.8565 46.424 31.4737 47.1944L28.6968 52.737H92.1699L89.3929 47.1944Z" fill="#4397D5"/>
<path d="M78.5687 43.6694V47.0698C78.5687 47.6958 78.0612 48.2032 77.4352 48.2032H43.4318C42.8058 48.2032 42.2983 47.6958 42.2983 47.0698V43.6694H78.5687Z" fill="#2B5781"/>
<path d="M44.5654 48.2031H76.302V52.7369H44.5654V48.2031Z" fill="#3180BC"/>
</svg>
