<svg width="93" height="93" viewBox="0 0 93 93" fill="none" xmlns="http://www.w3.org/2000/svg">
<rect x="1.68604" y="1.71045" width="89.3827" height="89.3827" rx="22" stroke="white" stroke-width="2"/>
<path d="M34.816 28.339C32.986 29.0303 31.6747 30.7857 31.6747 32.8544C31.6747 33.6511 31.8869 34.3924 32.2294 35.0563C30.7779 35.6144 29.7393 37.014 29.7393 38.6607C29.7393 40.3079 30.7779 41.7071 32.2294 42.2656C31.8869 42.9295 31.6747 43.6709 31.6747 44.4671C31.6747 46.5362 32.986 48.2917 34.816 48.9825C34.671 49.3879 34.5779 49.8188 34.5779 50.2734C34.5779 52.4083 36.3139 54.1443 38.4488 54.1443C38.9307 54.1443 39.3877 54.0446 39.8134 53.8839C40.4404 55.1782 41.7555 56.0798 43.2874 56.0798C45.4222 56.0798 47.1583 54.3437 47.1583 52.2089V25.1126C47.1583 22.9782 45.4222 21.2417 43.2874 21.2417C41.7555 21.2417 40.4404 22.1437 39.8134 23.4375C39.3877 23.2768 38.9307 23.1771 38.4488 23.1771C36.3139 23.1771 34.5779 24.9137 34.5779 27.048C34.5779 27.5031 34.671 27.9335 34.816 28.339ZM38.4488 25.1126C39.5162 25.1126 40.3842 25.9806 40.3842 27.048H42.3197C42.3197 26.1181 41.9761 25.2742 41.4275 24.6065C41.652 23.7862 42.3962 23.1771 43.2874 23.1771C44.3548 23.1771 45.2228 24.0452 45.2228 25.1126V52.2089C45.2228 53.2763 44.3548 54.1443 43.2874 54.1443C42.3962 54.1443 41.652 53.5357 41.4275 52.7149C41.9761 52.0473 42.3197 51.2038 42.3197 50.2734H40.3842C40.3842 51.3408 39.5162 52.2089 38.4488 52.2089C37.3813 52.2089 36.5133 51.3408 36.5133 50.2734C36.5133 49.206 37.3813 48.338 38.4488 48.338V46.4025C37.5061 46.4025 36.6527 46.755 35.9813 47.3164C34.6341 47.0655 33.6102 45.886 33.6102 44.4671C33.6102 42.8666 34.9129 41.5639 36.5133 41.5639C38.1142 41.5639 39.4165 42.8666 39.4165 44.4671H41.3519C41.3519 41.7992 39.1817 39.6284 36.5133 39.6284C35.4199 39.6284 34.421 40.0069 33.6102 40.6217V40.5962C32.5427 40.5962 31.6747 39.7281 31.6747 38.6607C31.6747 37.5933 32.5427 36.7253 33.6102 36.7253V36.7002C34.421 37.315 35.4199 37.693 36.5133 37.693C39.1817 37.693 41.3519 35.5227 41.3519 32.8544H39.4165C39.4165 34.4553 38.1142 35.7576 36.5133 35.7576C34.9129 35.7576 33.6102 34.4553 33.6102 32.8544C33.6102 31.4359 34.6341 30.2565 35.9813 30.0056C36.6527 30.5669 37.5061 30.9189 38.4488 30.9189V28.9835C37.3813 28.9835 36.5133 28.1155 36.5133 27.048C36.5133 25.9806 37.3813 25.1126 38.4488 25.1126Z" fill="white"/>
<path d="M57.8033 23.1771C57.3213 23.1771 56.8648 23.2768 56.4391 23.4375C55.8116 22.1437 54.4966 21.2417 52.9646 21.2417C50.8298 21.2417 49.0938 22.9782 49.0938 25.1126V52.2089C49.0938 54.3437 50.8298 56.0798 52.9646 56.0798C54.4966 56.0798 55.8116 55.1782 56.4391 53.8839C56.8648 54.0446 57.3213 54.1443 57.8033 54.1443C59.9381 54.1443 61.6742 52.4083 61.6742 50.2734C61.6742 49.8188 61.5815 49.3879 61.436 48.9825C63.2661 48.2917 64.5773 46.5362 64.5773 44.4671C64.5773 43.6709 64.3656 42.9295 64.0231 42.2656C65.4746 41.7071 66.5128 40.3079 66.5128 38.6607C66.5128 37.014 65.4746 35.6144 64.0231 35.0563C64.3656 34.3924 64.5773 33.6511 64.5773 32.8544C64.5773 30.7857 63.2661 29.0303 61.436 28.339C61.5815 27.9335 61.6742 27.5031 61.6742 27.048C61.6742 24.9137 59.9381 23.1771 57.8033 23.1771ZM62.6419 32.8544C62.6419 34.4553 61.3396 35.7576 59.7387 35.7576C58.1383 35.7576 56.8355 34.4553 56.8355 32.8544H54.9001C54.9001 35.5227 57.0709 37.693 59.7387 37.693C60.8321 37.693 61.831 37.315 62.6419 36.7002V36.7253C63.7093 36.7253 64.5773 37.5933 64.5773 38.6607C64.5773 39.7281 63.7093 40.5962 62.6419 40.5962V40.6217C61.831 40.0069 60.8321 39.6284 59.7387 39.6284C57.0709 39.6284 54.9001 41.7992 54.9001 44.4671H56.8355C56.8355 42.8666 58.1383 41.5639 59.7387 41.5639C61.3396 41.5639 62.6419 42.8666 62.6419 44.4671C62.6419 45.886 61.6179 47.0655 60.2712 47.3164C59.5993 46.755 58.7459 46.4025 57.8033 46.4025V48.338C58.8707 48.338 59.7387 49.206 59.7387 50.2734C59.7387 51.3408 58.8707 52.2089 57.8033 52.2089C56.7358 52.2089 55.8678 51.3408 55.8678 50.2734H53.9324C53.9324 51.2038 54.2759 52.0473 54.8245 52.7149C54.6 53.5357 53.8558 54.1443 52.9646 54.1443C51.8972 54.1443 51.0292 53.2763 51.0292 52.2089V25.1126C51.0292 24.0452 51.8972 23.1771 52.9646 23.1771C53.8558 23.1771 54.6 23.7862 54.8245 24.6065C54.2759 25.2742 53.9324 26.1181 53.9324 27.048H55.8678C55.8678 25.9806 56.7358 25.1126 57.8033 25.1126C58.8707 25.1126 59.7387 25.9806 59.7387 27.048C59.7387 28.1155 58.8707 28.9835 57.8033 28.9835V30.9189C58.7459 30.9189 59.5993 30.5669 60.2712 30.0056C61.6179 30.2565 62.6419 31.4359 62.6419 32.8544Z" fill="white"/>
<path d="M63.3649 22.4377C58.8428 18.1874 52.9203 16.0563 46.7047 16.4476L46.8247 18.3788C52.504 18.0258 57.9096 19.9678 62.0399 23.8477C66.1721 27.7309 68.4483 32.9924 68.4483 38.6603C68.4483 45.4906 65.0437 51.8243 59.3409 55.6035C57.3738 56.9077 55.8853 58.768 54.9682 60.918H41.2438C40.3139 58.7524 38.8198 56.8788 36.8493 55.5629C30.9721 51.6348 27.595 45.0748 27.8147 38.012L25.8802 37.952C25.6392 45.6862 29.3386 52.8714 35.7744 57.1713C37.1957 58.1216 38.3307 59.4153 39.1217 60.918H36.5134V62.8534H39.8938C40.0814 63.4804 40.2316 64.1231 40.3077 64.7889H38.4488V66.7243H40.3843V69.6275C40.3843 70.1628 40.818 70.5952 41.352 70.5952H42.3197C42.3197 73.7975 44.9238 76.4015 48.1261 76.4015C51.3283 76.4015 53.9324 73.7975 53.9324 70.5952H54.9001C55.4345 70.5952 55.8678 70.1628 55.8678 69.6275V66.7243H57.8033V64.7889H55.9359C56.0044 64.124 56.141 63.4795 56.3248 62.8534H59.7387V60.918H57.0884C57.868 59.4319 58.9964 58.1542 60.4107 57.2176C66.655 53.0765 70.3837 46.1399 70.3837 38.6603C70.3837 32.5426 67.825 26.629 63.3649 22.4377ZM48.1261 74.4661C45.9912 74.4661 44.2552 72.73 44.2552 70.5952H51.997C51.997 72.73 50.2609 74.4661 48.1261 74.4661ZM53.9324 68.6597H42.3197V66.7243H53.9324V68.6597ZM54.0014 64.7889H42.2422C42.1775 64.1302 42.0731 63.4828 41.9143 62.8534H54.3024C54.1483 63.4819 54.059 64.132 54.0014 64.7889Z" fill="white"/>
<path d="M24.9003 23.1769C27.0352 23.1769 28.7712 24.9134 28.7712 27.0478C28.7712 27.5832 29.205 28.0155 29.739 28.0155C30.2734 28.0155 30.7067 27.5832 30.7067 27.0478C30.7067 24.9134 32.4427 23.1769 34.5776 23.1769C35.112 23.1769 35.5453 22.7445 35.5453 22.2092C35.5453 21.6743 35.112 21.2415 34.5776 21.2415C32.4427 21.2415 30.7067 19.5054 30.7067 17.3706C30.7067 16.8357 30.2734 16.4028 29.739 16.4028C29.205 16.4028 28.7712 16.8357 28.7712 17.3706C28.7712 19.5054 27.0352 21.2415 24.9003 21.2415C24.3664 21.2415 23.9326 21.6743 23.9326 22.2092C23.9326 22.7445 24.3664 23.1769 24.9003 23.1769ZM29.739 20.5766C30.1689 21.223 30.7251 21.7797 31.3715 22.2092C30.7251 22.6392 30.1689 23.1953 29.739 23.8417C29.3094 23.1953 28.7528 22.6392 28.1064 22.2092C28.7528 21.7797 29.3094 21.223 29.739 20.5766Z" fill="white"/>
<path d="M28.7714 32.8541C29.3058 32.8541 29.7391 32.4218 29.7391 31.8864C29.7391 31.3515 29.3058 30.9187 28.7714 30.9187C26.6366 30.9187 24.9005 29.1827 24.9005 27.0478C24.9005 26.5129 24.4672 26.0801 23.9328 26.0801C23.3989 26.0801 22.9651 26.5129 22.9651 27.0478C22.9651 29.1827 21.229 30.9187 19.0942 30.9187C18.5602 30.9187 18.1265 31.3515 18.1265 31.8864C18.1265 32.4218 18.5602 32.8541 19.0942 32.8541C21.229 32.8541 22.9651 34.5907 22.9651 36.725C22.9651 37.2604 23.3989 37.6928 23.9328 37.6928C24.4672 37.6928 24.9005 37.2604 24.9005 36.725C24.9005 34.5907 26.6366 32.8541 28.7714 32.8541ZM23.9328 33.519C23.5033 32.8726 22.9467 32.3164 22.3002 31.8864C22.9467 31.4569 23.5023 30.9003 23.9328 30.2539C24.3628 30.9003 24.919 31.456 25.5654 31.8864C24.919 32.3164 24.3628 32.8726 23.9328 33.519Z" fill="white"/>
</svg>
