<svg width="84" height="89" viewBox="0 0 84 89" fill="none" xmlns="http://www.w3.org/2000/svg">
<path d="M22.5252 66.514C21.8423 66.514 21.1876 66.2428 20.7048 65.7599C20.222 65.2771 19.9507 64.6223 19.9507 63.9396V35.3303C19.9507 29.1954 24.9242 24.2043 31.0375 24.2043H53.1429C59.2562 24.2043 64.2299 29.1954 64.2299 35.3303V63.9386C64.2299 65.3603 63.0773 66.5129 61.6555 66.5129L22.5252 66.514Z" fill="#FFF4F4"/>
<path d="M53.1433 24.2043H42.1162V66.5135L61.6559 66.513C63.0776 66.513 64.2302 65.3603 64.2302 63.9386V35.3303C64.2302 29.1954 59.2567 24.2043 53.1433 24.2043Z" fill="#F6EFEA"/>
<path d="M42.0905 39.1288C40.6687 39.1288 39.5161 37.9761 39.5161 36.5544V25.0629C39.5161 23.6412 40.6687 22.4885 42.0905 22.4885C43.5124 22.4885 44.6649 23.6412 44.6649 25.0629V36.5544C44.6649 37.9761 43.5122 39.1288 42.0905 39.1288Z" fill="#FF8856"/>
<path d="M16.7126 88.3407C16.569 88.3407 16.4243 88.3287 16.28 88.3041C15.3909 88.1524 14.6459 87.5468 14.3164 86.7073L10.8916 77.9866L2.25357 74.3577C1.42205 74.0085 0.834062 73.2496 0.703455 72.3571C0.572849 71.4648 0.918673 70.5691 1.6153 69.9962L8.85117 64.0441L9.63292 54.7076C9.70809 53.8089 10.2482 53.0152 11.0566 52.6151C11.8649 52.2152 12.8234 52.2674 13.5837 52.7527L21.4804 57.7951L30.6015 55.6534C31.4796 55.4466 32.4014 55.7153 33.0316 56.3606C33.6618 57.006 33.9084 57.9338 33.6817 58.8066L31.3263 67.8751L36.1819 75.8879C36.6492 76.6592 36.6789 77.619 36.2602 78.4177C35.8414 79.2163 35.0349 79.7375 34.1348 79.7917L24.7824 80.3538L18.6621 87.4479C18.1682 88.0201 17.454 88.3407 16.7126 88.3407Z" fill="#FDBF00"/>
<path d="M67.4684 88.3408C66.727 88.3408 66.0131 88.0202 65.5195 87.4482L59.3992 80.3541L50.0468 79.792C49.1466 79.7379 48.3403 79.2165 47.9214 78.418C47.5026 77.6192 47.5322 76.6595 47.9997 75.8882L52.8549 67.8752L50.4996 58.8069C50.273 57.934 50.5195 57.0062 51.1497 56.3609C51.7799 55.7156 52.7015 55.4469 53.5797 55.6537L62.7009 57.7954L70.5977 52.753C71.3578 52.2679 72.3168 52.2158 73.1249 52.6154C73.9332 53.0154 74.4731 53.8092 74.5485 54.7078L75.3302 64.0444L82.5661 69.9965C83.2626 70.5694 83.6084 71.4651 83.4779 72.3574C83.3473 73.2498 82.7592 74.0088 81.9278 74.358L73.2898 77.9869L69.865 86.7076C69.5353 87.547 68.7903 88.1527 67.9014 88.3044C67.7569 88.3286 67.6121 88.3408 67.4684 88.3408Z" fill="#FF8856"/>
<path d="M55.5574 88.5681C55.2188 88.5681 54.8785 88.5013 54.5565 88.3654L42.0904 83.1029L29.6242 88.3654C28.7936 88.7159 27.8397 88.6065 27.1099 88.0762C26.3804 87.5462 25.9813 86.6728 26.0582 85.7744L27.2109 72.2922L18.3538 62.0625C17.7634 61.3807 17.5729 60.4396 17.8516 59.5819C18.1304 58.7242 18.8376 58.0748 19.716 57.8702L32.8944 54.8004L39.8864 43.2155C40.3523 42.4434 41.1885 41.9714 42.0904 41.9714C42.9923 41.9714 43.8284 42.4434 44.2944 43.2155L51.2866 54.8004L64.4649 57.8702C65.3433 58.0746 66.0504 58.7242 66.3291 59.5819C66.6078 60.4396 66.4175 61.3807 65.827 62.0625L56.9699 72.2922L58.1227 85.7744C58.1996 86.6728 57.8006 87.5461 57.0708 88.0762C56.6241 88.4011 56.0929 88.5681 55.5574 88.5681Z" fill="#FFDE46"/>
<path d="M42.1162 22.4897V39.1274C43.5261 39.1135 44.665 37.9674 44.665 36.5544V25.0629C44.665 23.6498 43.5261 22.5036 42.1162 22.4897Z" fill="#FF435B"/>
<path d="M66.3294 59.5817C66.0507 58.7241 65.3436 58.0747 64.4652 57.8701L51.2868 54.8003L44.2946 43.2154C43.8331 42.4507 43.0083 41.9809 42.1162 41.9722V83.1134L54.5568 88.3651C54.8787 88.501 55.2191 88.5678 55.5577 88.5678C56.0932 88.5678 56.6243 88.4008 57.0711 88.0761C57.8008 87.5459 58.1999 86.6727 58.123 85.7743L56.9702 72.2921L65.8272 62.0624C66.4176 61.3807 66.6081 60.4395 66.3294 59.5817Z" fill="#FFCD00"/>
<path d="M42.0901 27.1263C34.8033 27.1263 28.875 21.198 28.875 13.9112C28.875 6.62431 34.8033 0.696045 42.0901 0.696045C49.377 0.696045 55.3052 6.62431 55.3052 13.9112C55.3052 21.198 49.377 27.1263 42.0901 27.1263Z" fill="#FFE4C1"/>
<path d="M42.1162 0.696533V27.1254C49.3912 27.1115 55.3058 21.1892 55.3058 13.911C55.3058 6.63269 49.3912 0.710435 42.1162 0.696533Z" fill="#FDD1A3"/>
</svg>
