<svg width="20" height="20" viewBox="0 0 20 20" fill="none" xmlns="http://www.w3.org/2000/svg">
<path d="M18.5007 13.4624C17.1682 13.4624 15.8791 13.2458 14.6766 12.8558C14.2974 12.7258 13.8749 12.8233 13.5824 13.1158L11.8816 15.2499C8.81574 13.7874 5.94491 11.0249 4.41741 7.85078L6.52991 6.05245C6.82241 5.74911 6.90908 5.32661 6.78991 4.94745C6.38908 3.74495 6.18324 2.45578 6.18324 1.12328C6.18324 0.538281 5.69574 0.0507813 5.11074 0.0507813H1.36241C0.777409 0.0507812 0.0732422 0.310781 0.0732422 1.12328C0.0732422 11.1874 8.44741 19.5508 18.5007 19.5508C19.2699 19.5508 19.5732 18.8683 19.5732 18.2724V14.5349C19.5732 13.9499 19.0857 13.4624 18.5007 13.4624Z" fill="white"/>
</svg>
